SplineFontDB: 3.2
FontName: Octicons-Bold
FullName: Octicons
FamilyName: Octicons
Weight: Bold
Copyright: 
UComments: "2020-6-11: Created with FontForge (http://fontforge.org)"
Version: 10
ItalicAngle: 0
UnderlinePosition: -100
UnderlineWidth: 50
Ascent: 800
Descent: 200
InvalidEm: 0
LayerCount: 2
Layer: 0 0 "Back" 1
Layer: 1 0 "Fore" 0
XUID: [1021 214 -1571244977 13963]
StyleMap: 0x0000
FSType: 0
OS2Version: 0
OS2_WeightWidthSlopeOnly: 0
OS2_UseTypoMetrics: 1
CreationTime: 1591890911
ModificationTime: 1592056686
OS2TypoAscent: 0
OS2TypoAOffset: 1
OS2TypoDescent: 0
OS2TypoDOffset: 1
OS2TypoLinegap: 90
OS2WinAscent: 0
OS2WinAOffset: 1
OS2WinDescent: 0
OS2WinDOffset: 1
HheadAscent: 0
HheadAOffset: 1
HheadDescent: 0
HheadDOffset: 1
MarkAttachClasses: 1
DEI: 91125
Encoding: UnicodeBmp
UnicodeInterp: none
NameList: AGL For New Fonts
DisplaySize: -48
AntiAlias: 1
FitToEm: 0
WidthSeparation: 150
WinInfo: 61389 19 13
BeginPrivate: 0
EndPrivate
BeginChars: 65536 239

StartChar: heart
Encoding: 9829 9829 0
Width: 1000
Flags: W
LayerCount: 2
Fore
SplineSet
-20 456.25 m 0
 -20 633.697403745 119.233830268 757.5 265.625 757.5 c 0
 359.887755231 757.5 443.303036581 713.108771173 500 644.358529164 c 1
 556.696963419 713.108771173 640.112244769 757.5 734.375 757.5 c 0
 880.766169732 757.5 1020 633.697403745 1020 456.25 c 0
 1020 268.312327813 886.504406417 115.215383998 770.078649561 14.9071993459 c 0
 702.567174342 -42.9109554769 630.29189043 -93.83175135 552.585291363 -138.10717865 c 0
 546.354480036 -141.706544739 540.014604972 -145.188013039 533.612886522 -148.523260334 c 0
 524.898654777 -154.285506246 511.730905863 -157.483398438 499.952148438 -157.483398438 c 0
 489.275749605 -157.483398438 479.178337215 -154.980912042 470.215567273 -150.529513271 c 0
 469.464652241 -150.285552066 468.906714956 -149.848613114 468.242072072 -149.518379761 c 2
 458.393554688 -144.419903267 l 1
 458.393554688 -144.077395172 l 1
 376.641167532 -98.5629516231 300.431257696 -45.4720733998 229.74588126 14.9530932839 c 0
 113.451276202 115.257190146 -20 268.313162087 -20 456.25 c 0
EndSplineSet
EndChar

StartChar: uniF000
Encoding: 61440 61440 1
Width: 1000
VWidth: 13300
Flags: W
LayerCount: 2
Fore
SplineSet
500 686.25 m 0
 362.434692007 686.25 270 589.180214456 270 471.875 c 0
 270 416.921221959 292.544127078 382.285912408 326.876422888 340.705334131 c 0
 346.082183595 317.975660842 365.518310649 296.113244934 383.406762377 270.397907558 c 0
 402.237527065 243.156040367 419.756358714 209.84601924 425.605294647 168.49540241 c 0
 425.895865307 165.886448827 426.005859375 163.275876049 426.005859375 161.0234375 c 0
 426.005859375 124.173778638 396.06857318 94.1484375 359.130859375 94.1484375 c 0
 325.989674094 94.1484375 298.932284591 118.162707236 293.241347197 149.511898549 c 0
 291.270459732 163.406578256 285.50011918 176.786817582 273.482685177 194.216844113 c 0
 263.242585389 208.508271122 252.480595675 221.949213369 240.805424873 235.157487408 c 0
 235.073535875 242.021891033 229.828469644 248.180352751 223.833661509 255.474596368 c 0
 183.909626133 303.793375332 136.25 370.417214102 136.25 471.875 c 0
 136.25 667.179639757 293.783327916 820 500 820 c 0
 706.216672084 820 863.75 667.179639757 863.75 471.875 c 0
 863.75 370.417214102 816.123977544 303.834153691 776.199942168 255.515374727 c 0
 759.868164133 235.643518114 739.765775342 213.184892542 726.648996047 194.320049076 c 0
 714.670678327 177.054427049 708.807343677 163.522936895 706.871672275 149.881853453 c 0
 702.251403397 117.447900734 674.296537078 92.560546875 640.685546875 92.560546875 c 0
 603.770722897 92.560546875 573.810546875 122.520722897 573.810546875 159.435546875 c 0
 573.810546875 162.431805294 573.990235698 165.633136788 574.436747524 168.853174 c 0
 580.26440502 209.986135873 597.862364286 243.300394916 616.627138383 270.446795621 c 0
 634.377846065 295.964120635 654.396290309 317.867436006 672.999891206 340.628861745 c 0
 707.427269957 382.242142715 730 416.883417197 730 471.875 c 0
 730 589.180214456 637.565307993 686.25 500 686.25 c 0
355 -153.125 m 0
 355 -116.210176022 384.960176022 -86.25 421.875 -86.25 c 2
 578.125 -86.25 l 2
 615.039823978 -86.25 645 -116.210176022 645 -153.125 c 0
 645 -190.039823978 615.039823978 -220 578.125 -220 c 2
 421.875 -220 l 2
 384.960176022 -220 355 -190.039823978 355 -153.125 c 0
359.375 30 m 2
 344.532011478 30 332.5 17.9679885216 332.5 3.125 c 0
 332.5 -11.7179885216 344.532011478 -23.75 359.375 -23.75 c 2
 640.625 -23.75 l 2
 655.467988522 -23.75 667.5 -11.7179885216 667.5 3.125 c 0
 667.5 17.9679885216 655.467988522 30 640.625 30 c 2
 359.375 30 l 2
EndSplineSet
EndChar

StartChar: uniF001
Encoding: 61441 61441 2
Width: 1000
VWidth: 13292
Flags: W
LayerCount: 2
Fore
SplineSet
105 636.0625 m 2
 105 733.342492177 183.970007823 812.3125 281.25 812.3125 c 2
 828.125 812.3125 l 2
 865.039823978 812.3125 895 782.352323978 895 745.4375 c 2
 895 -35.8125 l 2
 895 -72.7273239784 865.039823978 -102.6875 828.125 -102.6875 c 2
 671.875 -102.6875 l 2
 634.960176022 -102.6875 605 -72.7273239784 605 -35.8125 c 0
 605 1.10232397839 634.960176022 31.0625 671.875 31.0625 c 2
 761.25 31.0625 l 1
 761.25 116.0625 l 1
 281.25 116.0625 l 2
 257.806260088 116.0625 238.75 97.0062399123 238.75 73.5625 c 0
 238.75 61.99348558 243.343996062 51.5340254825 250.876610569 43.8349369986 c 0
 262.795187504 31.7396846877 270 15.1700272424 270 -2.9755859375 c 0
 270 -39.8653684001 240.075100198 -69.912109375 203.125 -69.912109375 c 0
 184.361797611 -69.912109375 167.455253411 -62.101009757 155.338197928 -49.8108534811 c 0
 124.208285763 -18.0616489037 105 25.4504763358 105 73.37890625 c 2
 105 636.0625 l 2
761.25 249.8125 m 1
 761.25 678.5625 l 1
 281.25 678.5625 l 2
 257.806260088 678.5625 238.75 659.506239912 238.75 636.0625 c 2
 238.75 244.661183747 l 1
 252.348966114 248.027271682 266.581839508 249.8125 281.25 249.8125 c 2
 761.25 249.8125 l 1
437.5 -97.904296875 m 0
 445.481961721 -97.904296875 452.81180407 -100.489249007 458.82398266 -104.964260985 c 2
 542.5 -167.72066938 l 1
 542.5 22.3125 l 1
 332.5 22.3125 l 1
 332.5 -167.720810229 l 1
 416.11743948 -105.008027771 l 2
 422.03706503 -100.601905292 429.491317766 -97.904296875 437.5 -97.904296875 c 0
EndSplineSet
EndChar

StartChar: uniF002
Encoding: 61442 61442 3
Width: 1000
VWidth: 13238
Flags: W
LayerCount: 2
Fore
SplineSet
266.688706499 757.318239796 m 0
 307.915631645 757.318239796 346.032069962 740.416160654 377.457721875 708.5143625 c 0
 409.037006121 676.935078254 426.212478813 640.233633934 426.212478813 598.807462861 c 0
 426.212478813 582.576947107 423.683015196 566.059319811 418.835048418 548.994476751 c 0
 414.322397345 532.824143741 404.298417109 516.463802029 392.190354264 500.908617203 c 0
 377.08194183 481.498894042 358.440929279 463.235840734 339.118200275 453.349793337 c 0
 335.74489306 451.66313973 334.372924328 450.846366978 333.816122646 450.466508399 c 0
 333.362168281 448.547171372 332.693360192 441.022591608 332.693359375 427.5 c 0
 332.693359375 412.328249058 333.78765628 405.116563931 335.07444921 401.772780845 c 0
 336.996808479 396.777453109 347.262167234 387.265788959 351.837324635 382.5 c 1
 450.741347795 382.5 549.645370955 382.5 648.549394115 382.5 c 1
 651.779047819 385.864222608 654.903871664 389.3915635 658.280626803 392.607520775 c 0
 663.097434012 397.194956213 664.319926959 399.194138809 665.31226954 401.772780845 c 0
 666.59906247 405.116563931 667.693359375 412.328249058 667.693359375 427.5 c 0
 667.693359375 441.600781027 666.899741335 448.586696246 666.417583786 450.048643545 c 0
 666.281014234 450.462735347 667.495927833 450.758917885 656.025399011 457.927998398 c 0
 602.937278543 490.414758685 573.920975575 542.03561898 573.920975575 595.466643654 c 0
 573.920975575 635.735013741 590.323553947 675.908503284 622.852191223 708.43714056 c 0
 654.923313908 740.856862405 694.38360826 757.96875 734.568359375 757.96875 c 0
 774.75311049 757.96875 814.13659919 740.934084345 846.207721875 708.5143625 c 0
 877.787006121 676.935078254 894.962478813 640.233633934 894.962478813 598.807462861 c 0
 894.962478813 582.576947107 892.433015196 566.059319811 887.585048418 548.994476751 c 0
 883.072397345 532.824143741 873.048417109 516.463802029 860.940354264 500.908617203 c 0
 845.83194183 481.498894042 827.190929279 463.235840734 807.868200275 453.349793337 c 0
 804.496715297 451.664050848 803.144047748 450.861685297 802.601736104 450.492111758 c 0
 802.121686435 448.566675088 801.443359782 440.834216984 801.443359375 426.875 c 0
 801.443359375 396.178267516 797.774867821 370.784495686 787.483049081 347.68955378 c 0
 779.263877458 329.245652274 767.099554593 313.002470218 751.207721875 297.1106375 c 0
 734.797153774 280.700069399 719.01416051 268.292214006 699.276972415 260.509933466 c 0
 674.666748201 250.806237677 646.714789077 248.75 605.193359375 248.75 c 2
 570.193359375 248.75 l 1
 570.193359375 146.300171115 l 1
 582.701929366 139.53878193 l 2
 600.777651566 130.028633066 619.666942682 110.937045314 632.065693692 94.1622645355 c 0
 640.028000711 82.7875402233 646.34121107 73.0473153812 650.018102536 60.6401636655 c 0
 654.566703005 45.2915528511 654.568359375 29.8331777824 654.568359375 3.125 c 0
 654.568359375 -23.2443044455 654.566625311 -38.7347181631 650.01751895 -54.0792038497 c 0
 646.358687414 -66.4207240691 640.096333362 -76.098783923 632.103749751 -87.2313110966 c 0
 615.742879027 -110.13653011 591.60336002 -128.782834713 565.51476949 -141.270987105 c 0
 544.621034505 -151.272452928 522.169622756 -157.5 500.193359375 -157.5 c 0
 478.449975403 -157.5 456.136138814 -151.282970887 435.424115212 -141.552285278 c 0
 409.580523703 -129.410745231 385.579542284 -111.403722841 370.040084581 -89.5644849886 c 0
 350.711553058 -61.9139468378 341.788418637 -29.4978790308 341.788418637 2.43170941896 c 0
 341.788418637 55.9378346817 366.87460536 109.909739512 415.245349084 137.35083451 c 2
 430.193359375 145.945940427 l 1
 430.193359375 248.75 l 1
 395.818359375 248.75 l 2
 353.879065493 248.75 325.376438803 251.029342703 300.428818683 260.877087487 c 0
 280.425377365 268.773182744 264.387044315 281.27759006 247.928996875 297.7356375 c 0
 232.425400154 313.239234221 220.471218196 328.843032225 212.426144314 346.932258953 c 0
 202.350797663 369.586523241 198.943359375 394.683862818 198.943359375 426.25 c 0
 198.943359375 440.909169868 198.149515184 448.145539799 197.641331582 449.708719423 c 0
 197.468616478 450.23999342 198.402680366 450.598994387 187.002069187 458.095245623 c 0
 134.067871483 490.546138298 105.037117072 542.675934339 105.037117072 596.472582418 c 0
 105.037117072 635.137010418 120.146061021 673.961267969 150.12915121 705.708069345 c 0
 166.809424009 723.113571397 190.219294008 740.101420213 209.084797081 746.961603149 c 0
 228.444429819 753.781473772 247.702714945 757.318239796 266.688706499 757.318239796 c 0
802.321680654 450.28356141 m 1
 802.2447193 450.21707541 802.239473905 450.196224482 802.239473905 450.196224482 c 1
 802.321680654 450.28356141 l 1
333.437789199 450.160535644 m 1
 333.4430672 450.174038015 333.437789199 450.160535644 333.437789199 450.160535644 c 1
265.818359375 570 m 0
 267.63975379 570 274.317145374 572.192765627 280.638091876 577.764282544 c 0
 288.721624813 584.889408582 292.693359375 594.328149655 292.693359375 596.875 c 0
 292.693359375 602.539295904 284.996795457 611.738489094 282.411456912 614.522699835 c 0
 278.644323653 618.579612575 269.074772741 623.092990635 265.818359375 623.75 c 0
 259.921350552 623.13090108 251.31373456 616.386667198 248.17065954 613.468097537 c 0
 244.1137468 609.700964278 239.60036874 600.131413366 238.943359375 596.875 c 0
 238.943359375 595.053605585 241.136125002 588.376214001 246.707641919 582.055267499 c 0
 253.832767957 573.971734562 263.27150903 570 265.818359375 570 c 0
751.161456912 614.522699835 m 0
 747.394323653 618.579612575 737.824772741 623.092990635 734.568359375 623.75 c 0
 728.671350552 623.13090108 720.06373456 616.386667198 716.92065954 613.468097537 c 0
 712.8637468 609.700964278 708.35036874 600.131413366 707.693359375 596.875 c 0
 707.693359375 594.328149655 711.665093937 584.889408582 719.748626874 577.764282544 c 0
 726.069573376 572.192765627 732.74696496 570 734.568359375 570 c 0
 740.232655279 570 749.431848469 577.696563918 752.21605921 580.281902463 c 0
 756.27297195 584.049035722 760.78635001 593.618586634 761.443359375 596.875 c 0
 760.806723151 602.939054242 754.136382239 611.318934098 751.161456912 614.522699835 c 0
523.943359375 3.125 m 0
 523.943359375 11.6797207951 521.112997571 18.1198398182 516.418623846 22.9892930215 c 0
 514.256594011 24.8039462453 504.582650547 30 500.193359375 30 c 0
 487.468633117 30 476.164755432 17.4890342705 476.164755432 1.75072191695 c 0
 476.164755432 -5.32720237865 478.555762851 -11.6448507896 483.773464886 -16.5717632074 c 0
 489.303388362 -21.5957664792 494.936992585 -23.3688391652 500.153752236 -23.3688408451 c 0
 511.842586942 -23.3688408451 523.943359375 -14.0895926625 523.943359375 3.125 c 0
EndSplineSet
EndChar

StartChar: uniF005
Encoding: 61445 61445 4
Width: 1000
VWidth: 13300
Flags: W
LayerCount: 2
Fore
SplineSet
160.900390625 252.322336023 m 1
 174.523623019 255.687376157 188.45620352 257.5 203.400390625 257.5 c 2
 406.525390625 257.5 l 2
 443.440214603 257.5 473.400390625 227.539823978 473.400390625 190.625 c 0
 473.400390625 153.710176022 443.440214603 123.75 406.525390625 123.75 c 2
 203.400390625 123.75 l 2
 179.954809314 123.75 160.900390625 104.694293894 160.900390625 81.25 c 0
 160.900390625 57.8057061059 179.954809314 38.75 203.400390625 38.75 c 2
 562.775390625 38.75 l 2
 599.690214603 38.75 629.650390625 8.78982397839 629.650390625 -28.125 c 0
 629.650390625 -65.0398239784 599.690214603 -95 562.775390625 -95 c 2
 203.400390625 -95 l 2
 106.11840061 -95 27.150390625 -16.0297705624 27.150390625 81.25 c 2
 27.150390625 643.75 l 2
 27.150390625 741.029770562 106.11840061 820 203.400390625 820 c 2
 750.275390625 820 l 2
 787.190214603 820 817.150390625 790.039823978 817.150390625 753.125 c 2
 817.150390625 534.375 l 2
 817.150390625 497.460176022 787.190214603 467.5 750.275390625 467.5 c 0
 713.360566647 467.5 683.400390625 497.460176022 683.400390625 534.375 c 2
 683.400390625 686.25 l 1
 203.400390625 686.25 l 2
 179.954809314 686.25 160.900390625 667.194293894 160.900390625 643.75 c 2
 160.900390625 252.322336023 l 1
594.57421875 123.75 m 0
 557.724559888 123.75 527.69921875 153.687286195 527.69921875 190.625 c 0
 527.69921875 208.720341734 534.679064307 225.297429659 546.429165137 237.042973498 c 2
 703.350077472 393.903027875 l 2
 715.442308956 405.907573979 732.12632269 413.383789062 750.580078125 413.383789062 c 0
 769.03383356 413.383789062 785.772586013 405.853023369 797.864817497 393.848477265 c 0
 850.204483235 341.47759757 902.565487305 289.128056207 954.891679083 236.743702551 c 0
 966.063753707 224.786789685 972.849609375 208.749439712 972.849609375 191.173828125 c 0
 972.849609375 154.259004147 942.889433353 124.298828125 905.974609375 124.298828125 c 0
 891.435070712 124.298828125 877.94972282 128.944604577 866.9563964 136.873046875 c 1
 865.652915625 136.873046875 l 1
 817.455078125 185.070884375 l 1
 817.455078125 -153.125 l 2
 817.455078125 -190.039823978 787.494902103 -220 750.580078125 -220 c 0
 713.665254147 -220 683.705078125 -190.039823978 683.705078125 -153.125 c 2
 683.705078125 185.0987594 l 1
 641.043699556 142.472217111 l 2
 628.988682867 130.851930267 612.579642326 123.75 594.57421875 123.75 c 0
EndSplineSet
EndChar

StartChar: uniF006
Encoding: 61446 61446 5
Width: 1000
VWidth: 13300
Flags: W
LayerCount: 2
Fore
SplineSet
792.5 570 m 1
 792.5 723.278725 l 1
 1028.278725 487.5 l 1
 792.5 251.721275 l 1
 792.5 405 l 1
 417.5 405 l 1
 417.5 570 l 1
 792.5 570 l 1
270 695 m 1
 270 592.5 l 1
 167.5 592.5 l 1
 167.5 695 l 1
 270 695 l 1
667.5 382.5 m 1
 770 382.5 l 1
 770 -12.5 l 2
 770 -57.9313351919 732.931335192 -95 687.5 -95 c 2
 395 -95 l 1
 395 -248.278725 l 1
 281.25 -134.528725 l 1
 167.5 -248.278725 l 1
 167.5 -95 l 1
 62.5 -95 l 2
 17.0686648081 -95 -20 -57.9313351919 -20 -12.5 c 2
 -20 737.5 l 2
 -20 782.931335192 17.0686648081 820 62.5 820 c 2
 687.5 820 l 2
 732.931335192 820 770 782.931335192 770 737.5 c 2
 770 592.5 l 1
 667.5 592.5 l 1
 667.5 717.5 l 1
 145 717.5 l 1
 145 195 l 1
 667.5 195 l 1
 667.5 382.5 l 1
667.5 92.5 m 1
 82.5 92.5 l 1
 82.5 7.5 l 1
 167.5 7.5 l 1
 167.5 28.3333333333 167.5 49.1666666667 167.5 70 c 1
 395 70 l 1
 395 49.1666666667 395 28.3333333333 395 7.5 c 1
 667.5 7.5 l 1
 667.5 92.5 l 1
230 382.5 m 1
 230 405 l 1
 207.5 405 l 1
 207.5 382.5 l 1
 230 382.5 l 1
230 507.5 m 1
 230 530 l 1
 207.5 530 l 1
 207.5 507.5 l 1
 230 507.5 l 1
207.5 280 m 1
 207.5 257.5 l 1
 230 257.5 l 1
 230 280 l 1
 207.5 280 l 1
EndSplineSet
EndChar

StartChar: uniF007
Encoding: 61447 61447 6
Width: 1000
VWidth: 13223
Flags: W
LayerCount: 2
Fore
SplineSet
-20.03125 676.129882812 m 2
 -20.03125 713.04470679 9.92892602161 743.004882812 46.84375 743.004882812 c 2
 312.65234375 743.004882812 l 2
 386.873976618 743.004882812 453.694428475 711.207826969 500.143175808 660.494371116 c 1
 546.615492975 711.313420853 613.401482566 743.1875 687.65234375 743.1875 c 0
 688.541720899 743.1875 689.409717408 743.12281002 690.251461494 743.004882812 c 2
 953.15625 743.004882812 l 2
 990.071073978 743.004882812 1020.03125 713.04470679 1020.03125 676.129882812 c 2
 1020.03125 19.8798828125 l 2
 1020.03125 -17.0349411659 990.071073978 -46.9951171875 953.15625 -46.9951171875 c 2
 671.478515625 -46.9951171875 l 2
 638.175578704 -46.9951171875 608.009502646 -60.5153068852 586.180631585 -82.3441779458 c 2
 547.312877532 -121.149441029 l 2
 535.163841897 -133.301274047 518.417029537 -140.68359375 500.03125 -140.68359375 c 0
 481.645238044 -140.68359375 464.910295605 -133.312058828 452.760416514 -121.162179737 c 2
 413.870949802 -82.3332685314 l 2
 392.039754429 -60.5037483569 361.884892202 -46.9951171875 328.58203125 -46.9951171875 c 2
 46.84375 -46.9951171875 l 2
 9.92892602161 -46.9951171875 -20.03125 -17.0349411659 -20.03125 19.8798828125 c 2
 -20.03125 676.129882812 l 2
886.21875 609.254882812 m 1
 687.775390625 609.254882812 l 2
 621.233596261 609.254882812 567.150390625 555.223051252 567.150390625 488.629882812 c 2
 566.924045232 64.3404009091 l 1
 599.453871506 78.9877752266 635.020673277 86.7548828125 671.41796875 86.7548828125 c 2
 886.21875 86.7548828125 l 1
 886.21875 609.254882812 l 1
312.65234375 609.254882812 m 2
 113.71875 609.254882812 l 1
 113.71875 86.7548828125 l 1
 328.521484375 86.7548828125 l 2
 365.749315157 86.7548828125 401.240450298 78.6596947749 433.181932535 64.2292030402 c 1
 433.40039667 347.959060948 l 1
 433.277351536 488.734133259 l 2
 433.225415494 555.277605908 379.199286371 609.254882812 312.65234375 609.254882812 c 2
EndSplineSet
EndChar

StartChar: uniF008
Encoding: 61448 61448 7
Width: 1000
VWidth: 13207
Flags: W
LayerCount: 2
Fore
SplineSet
893.704632348 728.305146202 m 0
 894.321607591 728.305146202 894.639263787 728.238166597 894.639263787 728.108960019 c 0
 894.639263787 727.991692603 894.3776005 727.823166894 893.84056479 727.606936035 c 1
 907.243834158 727.606936035 914.760039198 725.567431617 916.63768784 724.977612622 c 2
 925.740750644 722.118100338 l 1
 929.252511095 713.232700557 l 2
 948.097547364 665.551293043 954.235192611 622.698305011 954.235192611 587.384239972 c 0
 954.235192611 549.666198773 947.29455723 520.765628433 941.646723042 503.476107639 c 1
 990.537922171 446.958870903 1020 374.988748484 1020 289.6328125 c 0
 1020 208.004320245 1006.83058992 140.813308816 981.633357624 85.8555311272 c 0
 950.071077155 17.0149230502 899.658989157 -31.61946697 836.486248496 -64.030454919 c 0
 745.686822844 -110.615406906 629.274747342 -124.715820312 498.779296875 -124.715820312 c 0
 368.261117833 -124.715820312 252.304393402 -110.620817478 162.019638338 -64.0070483166 c 0
 99.1997259233 -31.5733014015 49.2063607399 17.0948072649 17.9548818401 85.921848859 c 0
 -6.99406762493 140.868444764 -20 208.030500318 -20 289.6328125 c 0
 -20 374.98874845 9.46207780613 446.958870846 58.3532769555 503.476107525 c 1
 52.7054427581 520.765628301 45.7648073893 549.666198703 45.7648073893 587.384239971 c 0
 45.7648073893 622.69830501 51.9024526358 665.551293043 70.7474889049 713.232700557 c 2
 74.2212483985 722.021950929 l 1
 83.2028855217 724.926792664 l 2
 85.1221586505 725.54752412 92.8787613732 727.71667387 106.728683824 727.71667387 c 0
 139.410343089 727.71667387 204.603338968 715.763815649 308.032216131 646.346546677 c 1
 370.851145991 662.504119808 436.359520783 664.673827616 500 664.673828125 c 0
 563.651336434 664.673828125 629.171206196 662.503379916 691.999935314 646.338275484 c 1
 785.655962397 708.834602473 883.185365212 728.305146202 893.704632348 728.305146202 c 0
500 -23.4970703125 m 0
 591.411857719 -23.4970703125 673.922871845 -21.1506082958 734.943640718 -2.67181132672 c 0
 768.850552664 7.59615076648 795.571488435 22.476559171 814.932820489 43.6294615736 c 0
 838.974223467 69.895497888 853.779296875 107.805834389 853.779296875 165.9140625 c 0
 853.779296875 207.230056691 834.121872055 246.374362067 796.57010977 280.431132832 c 0
 769.516899351 304.989026443 732.196598299 312.622793235 682.939697793 312.622793235 c 0
 658.38666757 312.622793235 631.341353569 310.736543219 602.457586635 308.698837965 c 0
 570.363799483 306.434670731 535.992337351 303.995117188 500 303.995117188 c 0
 464.255177658 303.995117188 429.99056543 306.425231398 397.924355148 308.685456391 c 0
 368.94621648 310.728014981 341.756781488 312.622793235 317.068583449 312.622793235 c 0
 267.626068052 312.622793235 230.199391789 304.95321979 203.504128301 280.498799587 c 0
 166.496146441 246.371938429 146.220703125 206.425484387 146.220703125 165.9140625 c 0
 146.220703125 107.603556778 161.03622085 69.6222050039 185.069305194 43.3570153583 c 0
 204.423356828 22.2054299325 231.131459795 7.35876281752 265.034868828 -2.8662554784 c 0
 326.049277958 -21.2677515951 408.570391875 -23.4970703125 500 -23.4970703125 c 0
343.139648438 289.673828125 m 0
 362.415439427 289.673828125 379.92278617 281.879709072 393.994591854 269.714466075 c 0
 421.990994824 245.511243489 438.15234375 204.227905813 438.15234375 158.407226562 c 0
 438.15234375 112.590170349 422.014501392 71.0987601643 394.06520837 46.7084873916 c 0
 380.013581464 34.4461731757 362.487359207 26.529296875 343.139648438 26.529296875 c 0
 323.721111084 26.529296875 306.187056506 34.5650197672 292.161763995 46.8899420736 c 0
 264.27123462 71.3991355442 248.126953125 112.951852167 248.126953125 158.407226562 c 0
 248.126953125 203.830086466 264.29540631 245.180254414 292.226435768 269.514590668 c 0
 306.269375635 281.749213857 323.785878734 289.673828125 343.139648438 289.673828125 c 0
656.860351562 289.673828125 m 0
 676.264848405 289.673828125 693.873616382 281.915275327 707.98656234 269.714466075 c 0
 736.055317497 245.448694165 751.873046875 204.12170067 751.873046875 158.407226562 c 0
 751.873046875 112.590170349 735.735204517 71.0987601643 707.785911495 46.7084873915 c 0
 693.734284589 34.4461731755 676.208062332 26.529296875 656.860351562 26.529296875 c 0
 637.512640793 26.529296875 619.986418536 34.4461731757 605.93479163 46.7084873916 c 0
 577.985498608 71.0987601643 561.84765625 112.590170349 561.84765625 158.407226562 c 0
 561.84765625 204.227905813 578.009005176 245.511243489 606.005408146 269.714466075 c 0
 620.07721383 281.879709072 637.584560573 289.673828125 656.860351562 289.673828125 c 0
EndSplineSet
EndChar

StartChar: uniF009
Encoding: 61449 61449 8
Width: 1000
VWidth: 13250
Flags: W
LayerCount: 2
Fore
SplineSet
596.734870775 781.258241915 m 0
 614.096041195 781.258241915 621.500433816 764.249343382 623.686680182 755.171088657 c 0
 627.805891442 738.066315071 628.473143119 690.905265895 629.35864092 663.75 c 1
 652.5 663.75 l 2
 712.144054602 663.75 759.161019736 647.883370992 795.40655136 610.998079657 c 0
 815.603086415 591.071358572 830.941053502 572.175320228 838.527898797 539.938101874 c 0
 847.825717512 500.430781212 848.125 442.611549003 848.125 323.75 c 2
 848.125 150.101056276 l 1
 854.91021272 146.466120891 l 2
 877.443466013 134.828555047 896.69979065 116.103886544 911.453103024 94.4440364864 c 0
 929.908016104 67.3497379315 941.875 34.9996940021 941.875 3.125 c 0
 941.875 -82.6140968339 866.989096834 -157.5 781.25 -157.5 c 0
 695.510903166 -157.5 620.625 -82.6140968339 620.625 3.125 c 0
 620.625 34.9996940021 632.591983896 67.3497379315 651.046896976 94.4440364864 c 0
 665.80020935 116.103886544 685.056533987 134.828555047 707.58978728 146.466120891 c 2
 714.375 150.101056276 l 1
 714.375 318.75 l 2
 714.375 389.069332403 713.595742151 438.36425393 712.083748667 469.687718939 c 0
 711.029652914 491.525069287 709.134002189 505.365496573 708.443409229 507.836798749 c 0
 702.652426468 520.358111686 688.229395999 529.999999802 646.875 530 c 2
 629.375 530 l 1
 629.375 493.75 l 2
 629.375 467.68282477 629.111442246 452.417103273 626.425030438 440.168272806 c 0
 625.457514327 435.75683418 624.100551961 431.398461772 621.444462002 427.004870343 c 0
 616.90161719 419.490289008 608.873464713 412.938655698 598.204773295 412.938655698 c 0
 589.767664732 412.938655698 585.200108951 415.900198084 580.900547105 418.412490581 c 0
 575.292900251 421.689114948 569.518088999 426.035624459 562.475675986 431.871325534 c 0
 546.71941803 444.927761065 524.85995109 465.61132391 494.6106375 495.8606375 c 0
 469.799474201 520.671800799 447.537311709 543.702863902 432.400125542 560.197841652 c 0
 425.647820426 567.555822285 420.351239744 573.550114669 416.563382235 578.256721907 c 0
 413.828695238 581.654710765 411.800244808 584.015714852 409.924946736 588.348236745 c 0
 409.294116402 589.805651049 408.125 591.859765141 408.125 596.875 c 0
 408.125 602.601701067 409.528147826 604.508045465 410.157341702 605.853972086 c 0
 412.062355318 609.929041206 413.881998928 611.970194264 416.559874613 615.265464278 c 0
 420.235240788 619.788199972 425.442350461 625.700103814 432.105750955 632.997463664 c 0
 447.050097391 649.363622919 469.139119472 672.417844472 493.9856375 697.2643625 c 0
 518.38837627 721.66710127 541.569843666 743.331276364 558.728668034 758.11071439 c 0
 566.387667656 764.707652956 572.772243505 769.901425894 578.095981236 773.692444809 c 0
 580.499627893 775.404074945 582.630595032 776.839411257 585.273906573 778.217815452 c 0
 587.266166668 779.256716704 589.579914256 781.258241915 596.734870775 781.258241915 c 0
754.375 3.125 m 0
 754.375 0.578149654549 758.346734562 -8.86059141828 766.430267499 -15.9857174559 c 0
 772.751214001 -21.557234373 779.428605585 -23.75 781.25 -23.75 c 0
 783.071394415 -23.75 789.748785999 -21.557234373 796.069732501 -15.9857174559 c 0
 804.153265438 -8.86059141828 808.125 0.578149654548 808.125 3.125 c 0
 808.125 8.78929590412 800.428436082 17.9884890941 797.843097537 20.772699835 c 0
 794.075964278 24.8296125749 784.506413366 29.3429906347 781.25 30 c 0
 779.428605585 30 772.751214001 27.807234373 766.430267499 22.2357174559 c 0
 758.346734562 15.1105914183 754.375 5.67185034545 754.375 3.125 c 0
216.334263075 756.2362075 m 0
 302.176304189 756.2362075 379.375 686.801398456 379.375 595.625 c 0
 379.375 570.597779779 371.272901139 545.245463135 358.70678606 522.332128297 c 0
 343.028398124 493.743805635 320.001314036 468.166272965 292.548668274 453.608051728 c 2
 285.625 449.898943724 l 1
 285.625 150.101056276 l 1
 292.41021272 146.466120891 l 2
 314.943466013 134.828555047 334.19979065 116.103886544 348.953103024 94.4440364864 c 0
 367.408016104 67.3497379315 379.375 34.9996940021 379.375 3.125 c 0
 379.375 -82.6140968339 304.489096834 -157.5 218.75 -157.5 c 0
 133.010903166 -157.5 58.125 -82.6140968339 58.125 3.125 c 0
 58.125 34.9996940021 70.0919838964 67.3497379315 88.5468969759 94.4440364864 c 0
 103.30020935 116.103886544 122.556533987 134.828555047 145.08978728 146.466120891 c 2
 151.875 150.101056276 l 1
 151.875 303.125 l 2
 151.875 365.975536197 151.631644209 405.402643518 150.735298855 429.29188037 c 0
 150.328975715 440.121132392 149.593315088 447.710367339 149.027674817 452.276674605 c 0
 145.041785591 454.240470655 141.371235385 456.629176189 137.422509212 459.481407048 c 0
 128.619111654 465.840249577 118.622840119 474.612022979 108.850958265 484.745423389 c 0
 76.4535731191 517.193905748 58.8428915545 553.307280444 58.8428912907 594.102793988 c 0
 58.8428912907 612.927166806 62.4861688584 632.181235015 69.1819047603 652.05245124 c 0
 77.0664181529 675.267962896 94.3587510061 697.636542566 114.299782093 715.778952287 c 0
 140.687653121 739.786716268 171.049980274 756.2362075 216.334263075 756.2362075 c 0
218.75 570 m 0
 221.296850345 570 230.735591418 573.971734562 237.860717456 582.055267499 c 0
 243.432234373 588.376214001 245.625 595.053605585 245.625 596.875 c 0
 245.625 602.539295904 237.928436082 611.738489094 235.343097537 614.522699835 c 0
 231.575964278 618.579612575 222.006413366 623.092990635 218.75 623.75 c 0
 212.852991177 623.13090108 204.245375185 616.386667198 201.102300165 613.468097537 c 0
 197.045387425 609.700964278 192.532009365 600.131413366 191.875 596.875 c 0
 191.875 595.053605585 194.067765627 588.376214001 199.639282544 582.055267499 c 0
 206.764408582 573.971734562 216.203149655 570 218.75 570 c 0
235.343097537 20.772699835 m 0
 231.575964278 24.8296125749 222.006413366 29.3429906347 218.75 30 c 0
 212.852991177 29.3809010802 204.245375185 22.6366671982 201.102300165 19.7180975369 c 0
 197.045387425 15.9509642784 192.532009365 6.38141336565 191.875 3.125 c 0
 191.875 0.578149654549 195.846734562 -8.86059141828 203.930267499 -15.9857174559 c 0
 210.251214001 -21.557234373 216.928605585 -23.75 218.75 -23.75 c 0
 224.414295904 -23.75 233.613489094 -16.053436082 236.397699835 -13.4680975369 c 0
 240.454612575 -9.70096427837 244.967990635 -0.131413365646 245.625 3.125 c 0
 244.988363776 9.18905424193 238.318022864 17.5689340977 235.343097537 20.772699835 c 0
EndSplineSet
EndChar

StartChar: uniF00A
Encoding: 61450 61450 9
Width: 1000
VWidth: 13287
Flags: W
LayerCount: 2
Fore
SplineSet
395.610351562 -69.6240234375 m 2
 395.610351562 -106.591427493 396.220703125 -133.671337811 396.220703125 -162.763671875 c 0
 396.220703125 -171.539944599 393.915990325 -181.016143027 387.750401377 -189.487265186 c 0
 379.764578074 -200.459272129 366.090721273 -207.287280932 350.281657991 -207.287280932 c 0
 345.622707961 -207.287280932 339.657488381 -206.859025787 335.537889922 -205.486237923 c 0
 128.879703683 -136.620824736 -20 57.7858299377 -20 287.858398438 c 0
 -20 575.133674802 212.724723635 807.858398438 500 807.858398438 c 0
 787.275276365 807.858398438 1019.99999923 575.128072363 1019.99999923 287.852795999 c 0
 1019.93680803 57.829704183 871.04252466 -136.167490713 664.554257759 -205.867337867 c 0
 659.939563336 -206.792515229 654.967734524 -207.46366953 650.34561789 -207.46366953 c 0
 624.611892177 -207.46366953 605 -188.233456283 605 -162.763671875 c 0
 605 -119.628374107 605.610351562 -84.5334938771 605.610351562 -25.251953125 c 0
 605.610351562 17.2138999537 591.535476799 41.0949635503 578.810440272 52.0630497667 c 2
 544.106967367 81.9750018485 l 1
 589.601886043 87.0907744448 l 2
 637.658905629 92.4946479105 684.876027831 103.69213423 721.543458508 128.68284392 c 0
 766.563826198 159.366502914 800.0078125 212.18536342 800.0078125 314.103515625 c 0
 800.0078125 364.146009332 782.740333991 403.384172493 753.939557621 435.054962473 c 2
 745.50365976 444.331502314 l 1
 750.172530988 455.949009759 l 2
 752.448412466 461.612063787 758.844386804 479.565589958 758.844386804 505.753563198 c 0
 758.844386804 521.645721176 756.515296896 540.679185631 749.355347805 562.144498301 c 1
 734.137099886 561.381146383 698.003247779 554.347037341 637.442974484 513.188213278 c 2
 629.762290127 507.96815863 l 1
 620.807541431 510.483660365 l 2
 582.691378394 521.190970808 541.971528448 526.586914062 501.220703125 526.586914062 c 0
 460.53298302 526.586914062 419.81052033 521.19174507 381.626345463 510.481549682 c 2
 372.722800866 507.984214003 l 1
 365.066212499 513.142349044 l 2
 304.642318405 553.849069911 268.475733198 561.108799313 253.099788631 562.003969931 c 1
 245.976583776 540.59635496 244.092208581 508.343049056 243.657636754 505.754171214 c 0
 243.657636754 479.566088609 250.054066612 461.612079954 252.329898437 455.950254439 c 2
 256.999981106 444.331999995 l 1
 248.563165299 435.054735104 l 2
 219.819903075 403.448159401 202.495117188 363.515219675 202.495117188 314.103515625 c 0
 202.495117188 212.546490728 235.774999425 159.653870257 280.644295592 128.868909103 c 0
 317.177812897 103.803151288 364.239249317 92.4900257152 412.229433474 87.0906348147 c 2
 457.351606552 82.0139247538 l 1
 423.110589676 52.1419189516 l 2
 412.955324495 43.2824232922 401.781233431 26.1226387717 397.931852985 -2.32000563359 c 2
 396.454928264 -13.2328382945 l 1
 377.089904031 -22.0720199857 355.292473607 -32.7358772399 321.150901419 -32.7358772399 c 0
 285.583740515 -32.7358772399 244.248227112 -17.1195052378 215.394073362 31.1889745175 c 0
 211.109046609 38.0428739817 201.399734914 51.1080450553 189.109871557 60.4427201324 c 0
 186.532986138 62.3999745297 183.88688538 64.1745271534 181.180808647 65.7301725507 c 1
 197.978616827 49.5998332174 220.05069045 13.5494779051 226.368926111 -4.21123664216 c 0
 229.382620613 -12.6828053918 234.617020866 -23.2834602203 244.806588549 -32.5877361284 c 0
 257.370809956 -44.0603506854 278.941482251 -55.2625941376 319.359913288 -55.2625941376 c 0
 334.229479547 -55.2625941376 351.669637408 -53.6937239271 371.970847004 -49.9549868781 c 2
 395.610351562 -45.6014585285 l 1
 395.610351562 -69.6240234375 l 2
244.029874112 561.716244826 m 1
 244.009194836 561.707393639 244.019534474 561.716244826 244.029874112 561.716244826 c 1
EndSplineSet
EndChar

StartChar: uniF00B
Encoding: 61451 61451 10
Width: 1000
VWidth: 13223
Flags: W
LayerCount: 2
Fore
SplineSet
200.417374178 392.749388283 m 0
 200.417374178 429.597291639 232.076160751 456.596722129 272.084148867 456.596722129 c 0
 287.870347845 456.596722129 301.75909211 449.413765505 319.300725106 434.402396879 c 0
 341.180667063 415.678491624 400.522930336 356.322936425 430.3125 326.764293657 c 1
 430.3125 478.75 l 2
 430.3125 539.694698551 431.083715034 597.506488954 432.423480572 639.14726625 c 0
 433.019528387 657.672816884 433.722479905 672.967075613 434.551123878 684.184532689 c 0
 435.224242432 693.296622721 435.390150289 698.587538654 437.377372246 705.046774756 c 0
 439.730341397 713.389081117 443.404311676 721.381854505 447.770049725 728.539511244 c 0
 451.352621682 734.413160082 455.294656175 740.067173302 461.332833244 744.667689165 c 0
 472.746447836 753.363776473 485.975156431 757.849315712 499.236681486 757.849315712 c 0
 528.924266451 757.849315712 554.278684359 736.078332898 563.225114207 705.119744459 c 0
 565.233607725 698.627304918 565.398224042 693.330912307 566.073876122 684.184532689 c 0
 566.902520095 672.967075613 567.605471613 657.672816884 568.201519428 639.14726625 c 0
 569.541284966 597.506488954 570.3125 539.694698551 570.3125 478.75 c 2
 570.3125 326.764185933 l 1
 600.220031102 356.439781184 659.368028993 415.613194018 681.324274894 434.402396879 c 0
 698.86590789 449.413765505 712.754652155 456.596722129 728.540851133 456.596722129 c 0
 768.573876843 456.596722129 800.207625822 429.599004462 800.207625822 392.749388283 c 0
 800.207625822 387.820274839 799.653927525 382.513482015 798.335567901 377.767387369 c 0
 796.193015089 370.054197245 792.841628466 366.038257307 788.482160145 360.148234818 c 0
 783.079002922 352.848097459 775.530416407 343.827958157 765.556165756 332.625716968 c 0
 743.165874383 307.478820922 708.662865668 271.598051092 661.9518625 225.2356375 c 0
 598.295348181 161.579123181 565.813595323 129.520341453 544.465413017 112.211506386 c 0
 527.675654841 98.5985837069 514.295415453 92.5 500.3125 92.5 c 0
 486.329584547 92.5 472.949345159 98.5985837069 456.159586983 112.211506386 c 0
 434.811404677 129.520341453 402.383113809 161.525861049 338.72659949 225.182375368 c 0
 292.015596322 271.54478896 257.459125617 307.478820922 235.068834244 332.625716968 c 0
 225.094583593 343.827958157 217.545997078 352.848097459 212.142839855 360.148234818 c 0
 207.711902511 366.134818201 204.027957108 370.406316384 202.105154116 378.482088952 c 0
 200.978411519 383.214407859 200.417374178 387.994336645 200.417374178 392.749388283 c 0
167.8125 -59.375 m 0
 167.8125 -50.9953922129 170.144190633 -44.0262428552 173.193956606 -37.2377577525 c 0
 176.926480622 -28.9295190545 182.140277396 -20.7539777796 189.372801346 -13.9018056195 c 0
 196.221379144 -6.76787041302 203.069956942 0.366064793488 209.91853474 7.5 c 1
 790.70646526 7.5 l 1
 797.59714727 0.322206239044 804.487829281 -6.85558752191 811.378511291 -14.0333812829 c 0
 824.140024583 -26.509855602 832.1875 -42.2347569505 832.1875 -59.375 c 0
 832.1875 -76.5152430495 824.140024583 -92.240144398 811.378511291 -104.716618717 c 0
 804.487829281 -111.894412478 797.59714727 -119.072206239 790.70646526 -126.25 c 1
 209.91853474 -126.25 l 1
 203.069956942 -119.116064793 196.221379144 -111.982129587 189.372801346 -104.84819438 c 0
 182.140277396 -97.9960222204 176.926480622 -89.8204809455 173.193956606 -81.5122422475 c 0
 170.144190633 -74.7237571448 167.8125 -67.7546077871 167.8125 -59.375 c 0
EndSplineSet
EndChar

StartChar: uni26A1
Encoding: 9889 9889 11
Width: 1000
Flags: W
LayerCount: 2
Fore
SplineSet
578.118164062 342.5625 m 2
 541.203340084 342.5625 511.243164062 372.522676022 511.243164062 409.4375 c 0
 511.243164062 419.336577851 513.413105505 428.702996853 517.262340809 437.101328424 c 2
 600.986363517 621.326920318 l 1
 227.068518896 257.5625 l 1
 421.868164062 257.5625 l 2
 458.782988041 257.5625 488.743164062 227.602323978 488.743164062 190.6875 c 0
 488.743164062 181.759670558 487.00162908 173.193565226 483.771715356 165.335319248 c 2
 413.059107809 -7.57410864773 l 1
 772.859638889 342.5625 l 1
 578.118164062 342.5625 l 2
216.362304688 123.8125 m 2
 138.318819186 123.8125 86.8096992014 187.967109428 86.8096992014 254.02085174 c 0
 86.8096992014 286.443815771 99.197525301 319.649020639 126.18408925 345.88697726 c 2
 594.116287709 801.356773229 l 1
 595.409345028 800.06371591 l 1
 613.809718188 812.599577489 636.030371815 819.939453125 659.965820312 819.939453125 c 0
 723.306880517 819.939453125 774.75390625 768.508454766 774.75390625 705.212890625 c 0
 774.75390625 688.318180861 771.040432711 672.216084896 764.547252993 657.82719864 c 2
 682.001548467 476.3125 l 1
 783.624023438 476.3125 l 2
 861.69252435 476.3125 913.189923838 412.176943017 913.189923838 346.130405956 c 0
 913.189923838 313.697763262 900.794253775 280.480902748 873.800452176 254.236283842 c 2
 415.066050659 -192.170147132 l 2
 397.403335276 -209.372096027 373.254374418 -219.9375 346.672851562 -219.9375 c 2
 327.813476562 -219.9375 l 2
 273.69230957 -219.9375 229.688476562 -176.010726264 229.688476562 -121.8125 c 0
 229.688476562 -108.675860683 232.286953546 -96.1416278288 236.96619089 -84.7129004786 c 2
 322.252432761 123.8125 l 1
 216.362304688 123.8125 l 2
EndSplineSet
EndChar

StartChar: uniF00C
Encoding: 61452 61452 12
Width: 1000
LayerCount: 2
Fore
SplineSet
272.084148867 393.403277871 m 0
 232.051123157 393.403277871 200.417374178 420.400995538 200.417374178 457.250611717 c 0
 200.417374178 462.179725161 200.971072475 467.486517985 202.289432099 472.232612631 c 0
 204.431993367 479.945833196 207.780856393 483.957667094 212.137512472 489.849381158 c 0
 217.536909445 497.151243527 225.080849137 506.180235481 235.050330128 517.408341494 c 0
 257.429881993 542.613262502 291.97445947 578.69068447 338.6731375 625.3893625 c 0
 402.343355873 689.059580873 434.842672231 720.951444319 456.242140858 738.115698407 c 0
 473.102134733 751.638894887 486.549305395 757.5 500.3125 757.5 c 0
 505.813021925 757.5 512.568524409 756.628406955 519.247402897 754.020452342 c 0
 527.578627742 750.767292951 535.362509254 745.555874574 545.032307417 737.735717222 c 0
 566.7611692 720.163156207 599.960830005 687.380394995 665.7018625 621.6393625 c 0
 727.62062677 559.72059823 760.89265554 525.780495265 779.34762726 503.632705587 c 0
 793.617954963 486.506902232 801.5625 474.021163753 801.5625 458.75 c 0
 801.5625 419.929777274 772.501441969 388.318541267 736.357303937 388.318541267 c 0
 726.81177594 388.318541267 717.15445081 390.618874416 708.109983569 395.301459849 c 0
 703.167667126 397.793960875 700.715772836 400.079334707 696.417855815 403.615127273 c 0
 691.203871869 407.904546546 684.637772488 413.675242917 676.92070905 420.681217428 c 0
 647.076693867 447.775255382 602.567195896 491.881131798 570.3125 523.873594395 c 1
 570.3125 371.875 l 2
 570.3125 310.584025045 569.541301726 252.618050804 568.201554115 210.908682441 c 0
 567.605514766 192.352631593 566.902573578 177.044766004 566.073937231 165.821111866 c 0
 565.400046316 156.693442555 565.23454983 151.400245723 563.240562486 144.930288178 c 0
 554.011785189 112.444247324 528.512167565 92.1875 500.3125 92.1875 c 0
 472.112832835 92.1875 446.613214719 112.444248507 437.384436876 144.93029029 c 0
 435.390543282 151.399944939 435.225040017 156.692594746 434.551123878 165.815467311 c 0
 433.722479905 177.032924387 433.019528387 192.327183116 432.423480572 210.85273375 c 0
 431.083715034 252.493511046 430.3125 310.305301449 430.3125 371.25 c 2
 430.3125 523.235814067 l 1
 400.404968898 493.560218816 341.256971007 434.386805982 319.300725106 415.597603121 c 0
 301.75909211 400.586234495 287.870347845 393.403277871 272.084148867 393.403277871 c 0
167.8125 -59.375 m 0
 167.8125 -50.9953922129 170.144190633 -44.0262428552 173.193956606 -37.2377577525 c 0
 176.926480622 -28.9295190545 182.140277396 -20.7539777796 189.372801346 -13.9018056195 c 0
 196.221379144 -6.76787041302 203.069956942 0.366064793488 209.91853474 7.5 c 1
 790.70646526 7.5 l 1
 797.59714727 0.322206239044 804.487829281 -6.85558752191 811.378511291 -14.0333812829 c 0
 824.140024583 -26.509855602 832.1875 -42.2347569505 832.1875 -59.375 c 0
 832.1875 -76.5152430495 824.140024583 -92.240144398 811.378511291 -104.716618717 c 0
 804.487829281 -111.894412478 797.59714727 -119.072206239 790.70646526 -126.25 c 1
 209.91853474 -126.25 l 1
 203.069956942 -119.116064793 196.221379144 -111.982129587 189.372801346 -104.84819438 c 0
 182.140277396 -97.9960222204 176.926480622 -89.8204809455 173.193956606 -81.5122422475 c 0
 170.144190633 -74.7237571448 167.8125 -67.7546077871 167.8125 -59.375 c 0
EndSplineSet
EndChar

StartChar: uniF00E
Encoding: 61454 61454 13
Width: 1000
LayerCount: 2
Fore
SplineSet
501.129882812 -220 m 0
 460.469481151 -220 422.111596233 -220.021633315 383.251299795 -220.021633315 c 0
 64.2445868907 -220.021633315 49.6534817835 -219.702787704 13.2881826767 -173.612943346 c 0
 3.68554648396 -161.442439639 -6.0924013377 -149.165319668 -15.7138911434 -136.97809925 c 1
 -16.5702979433 53.1442156941 -18.0057701856 251.999781641 -18.0057701856 441.200241235 c 0
 -18.0057701856 538.700657696 -17.4533330298 612.03602708 -16.4470279843 660.125189409 c 0
 -15.999441034 681.514410899 -15.4659602614 697.884939155 -14.8306016253 709.401874651 c 0
 -14.2858628326 719.27617427 -14.3006932984 724.590057045 -12.3646981491 730.882041281 c 0
 -2.8000907236 761.967015413 24.1326991744 790.642805948 57.5078143264 807.736335413 c 0
 63.8561109506 811.109693432 70.8201708532 812.819452694 80.0680367668 814.150691384 c 0
 91.854572139 815.847376607 108.231898829 816.930550436 134.177718513 817.760538717 c 0
 192.442357278 819.624382986 298.98468994 820 501.129882812 820 c 0
 541.790284474 820 580.148169392 820.021633315 619.00846583 820.021633315 c 0
 938.015178734 820.021633315 952.606283842 819.702787704 988.971582948 773.612943346 c 0
 998.584653502 761.429214997 1008.37299225 749.138940972 1018.00488281 736.938546259 c 1
 1018.00488281 -136.938546259 l 1
 1008.35960344 -149.151161208 998.595532574 -161.415426722 988.971582948 -173.612943346 c 0
 952.606283842 -219.702787704 938.015178734 -220.021633315 619.00846583 -220.021633315 c 0
 580.194484153 -220.021633315 541.748008293 -220 501.129882812 -220 c 0
884.254882812 -83.125 m 1
 884.254882812 683.218090704 l 1
 703.678452631 684.060593488 498.581902004 685.435586535 321.592335961 685.435586535 c 0
 203.444250086 685.435586535 141.850652777 684.362134575 117.183354707 682.458743263 c 1
 116.361300752 648.887005393 115.895507813 560.579612496 115.895507812 448.4375 c 0
 115.895507812 273.899688912 117.084037421 91.8317726073 117.910620376 -83.125 c 1
 884.254882812 -83.125 l 1
384.412555207 487.874445266 m 0
 424.742731788 487.874445266 457.273825844 461.949180205 457.273825844 424.583053354 c 0
 457.273825844 419.712168065 456.718296504 414.570815355 455.45684413 409.840368951 c 0
 454.020416066 404.453763713 451.972765897 401.010324656 449.528192003 396.939080464 c 0
 446.509249416 391.911270707 442.669684013 386.405722758 438.082036608 380.328923375 c 0
 427.794795968 366.702440769 413.781096017 350.361867915 398.578063018 334.79685794 c 2
 364.523083827 299.845695086 l 1
 401.740098338 260.790031707 l 2
 423.888509939 237.938495928 437.807436556 222.546408763 446.831082968 209.123224338 c 0
 453.966274249 198.509223733 458.629882812 187.903670147 458.629882812 176.25 c 0
 458.629882812 137.42661769 429.605456905 107.972835721 393.883934879 107.972835721 c 0
 383.120998891 107.972835721 371.957181286 110.640830674 361.738812083 116.090627583 c 0
 352.929008929 120.789189265 344.360347853 128.802892503 330.999879966 141.017356287 c 0
 312.807077108 157.649657906 286.818742468 183.189125355 264.984376437 205.581702855 c 0
 243.352660432 227.766449434 227.273896439 244.021392446 216.061690016 259.574270397 c 0
 207.200164932 271.86642886 200.641466789 284.953094271 200.641466789 300.133273428 c 0
 200.641466789 315.805034826 207.595822907 329.278716059 217.060521422 342.115685571 c 0
 229.678570637 359.229544276 256.021715319 385.365767832 279.490520312 409.1393625 c 0
 307.792841865 437.441684052 325.424471938 455.037259681 338.817942187 466.662715142 c 0
 348.080145567 474.702254624 355.627716869 480.311151948 364.226283017 483.935947937 c 0
 371.136538341 486.849022669 378.30542443 487.874445266 384.412555207 487.874445266 c 0
612.379882812 488.75 m 0
 643.764130589 488.75 657.44887911 474.439823934 722.815279757 408.468178835 c 0
 746.516140643 384.613416256 772.492364654 358.938586314 785.085710261 341.957778789 c 0
 794.666607849 329.038941895 801.700634801 315.482167539 801.700634801 299.704922621 c 0
 801.700634801 284.480414597 795.120847015 271.352255504 786.225207514 259.00823308 c 0
 774.341778695 242.518208749 751.468080761 219.54218148 729.742500761 197.208892949 c 0
 708.711882841 176.178275029 687.673158521 155.908477676 671.282946268 140.988338007 c 0
 657.755662507 128.674344758 649.312793412 120.565536076 640.188544586 115.917333844 c 0
 629.833445995 110.642094939 618.934913539 107.980827114 608.167076899 107.980827114 c 0
 572.055604639 107.980827114 543.629882812 137.927872832 543.629882812 176.875 c 0
 543.629882812 188.133139606 547.839806304 198.988345 554.952409278 209.702737038 c 0
 563.884117099 223.157420158 577.63239789 238.174970219 600.483870849 261.378004301 c 2
 637.80555405 300.081972064 l 1
 600.506361268 339.22370977 l 2
 580.111193118 360.306355499 565.697351438 376.542532751 556.053133265 391.530937875 c 0
 548.414800883 403.401928158 543.224007309 415.34336023 543.224007309 428.565373529 c 0
 543.224007309 445.06172197 551.762562715 458.125103389 561.507998419 468.639915596 c 0
 574.732539957 482.809067245 592.994110883 488.75 612.379882812 488.75 c 0
EndSplineSet
EndChar

StartChar: uniF010
Encoding: 61456 61456 14
Width: 1000
Flags: W
LayerCount: 2
Fore
SplineSet
682.24029843 -157.509799114 m 2
 659.783993478 -157.509799114 637.378925421 -157.5 614.149414062 -157.5 c 2
 303.755448803 -157.5 l 1
 296.867078113 -150.324613864 289.978707422 -143.149227729 283.090336732 -135.973841593 c 0
 270.281798827 -123.474485213 262.207449777 -107.673732791 262.207449777 -90.3817135113 c 0
 262.207449777 -75.4187207174 268.1882827 -61.3858042696 277.909528935 -49.3822636049 c 0
 283.822377835 -41.9134018371 289.735226735 -34.4445400693 295.648075634 -26.9756783014 c 1
 491.662617555 -24.9305104093 687.675042886 -22.8832259272 883.68295853 -20.831431758 c 1
 884.926468238 120.821747127 885.887452544 262.757451415 886.541592552 405 c 1
 807.899414062 405 l 2
 746.058268835 405 712.240715551 405.632802166 684.727731206 416.010553352 c 0
 662.402504394 424.431510021 646.817747491 439.556564731 631.568838845 458.871849016 c 0
 623.928270576 468.549902156 616.287702308 478.227955297 608.647134039 487.906008437 c 1
 605.129390634 686.072220257 l 1
 525.354602573 685.454807452 445.859758635 684.557450525 366.640169123 683.384839171 c 1
 364.137682663 606.809194172 l 2
 361.152347812 519.040349553 361.416202302 501.752544855 338.479287044 483.729466524 c 0
 327.7043582 475.013389095 299.210343494 467.770996698 297.14021442 467.770996698 c 1
 297.222158965 467.813686397 297.347176769 467.992795281 297.517700551 468.058035714 c 1
 280.15538458 468.058035714 264.296484911 476.198166989 251.773298295 489.097369248 c 0
 248.051911884 492.81764533 243.674671637 497.152598711 239.976329959 503.596966981 c 0
 237.004737279 508.774969817 234.997690103 514.645640808 233.725928514 520.98855173 c 0
 230.568348511 536.736981998 230.396868025 557.545996725 230.396868025 599.370945015 c 0
 230.396868025 604.46730966 230.399414062 609.8757061 230.399414062 615.625 c 0
 230.399414062 683.747610446 231.938901397 723.541307377 247.026860492 754.311113319 c 0
 259.431203557 779.608055504 280.285830332 794.202137748 306.817624927 807.756424117 c 0
 318.243078645 813.69766005 331.576731106 815.907023978 356.361370412 817.473444159 c 0
 387.65588445 819.451296559 439.160071737 820 531.649414062 820 c 0
 631.06881523 820 681.513265586 819.665927275 712.089206648 817.393877505 c 0
 736.174961535 815.604103194 749.761609536 811.9875407 761.821444446 806.326912782 c 0
 774.077434698 800.858074424 786.911007249 789.709557133 806.01102404 772.683716262 c 0
 829.813011223 751.466520619 861.217476054 721.209845337 897.14630207 685.281019321 c 0
 942.781761243 638.94883558 970.530691831 609.601781 987.894005672 588.3417797 c 0
 1001.69820038 571.439637629 1009.62982192 559.050368159 1013.38293412 546.122981674 c 0
 1016.37030317 535.667190021 1017.07535955 521.497606614 1017.9814998 496.044240989 c 0
 1019.10122717 464.591239916 1019.60026378 417.585260657 1019.60026378 351.655990093 c 0
 1019.60026378 215.3495714 1018.11794676 63.4631317351 1017.22980395 -74.4950524042 c 1
 1008.22617863 -85.8958442823 999.265103262 -97.3875323016 990.139650361 -108.667418648 c 0
 982.308215712 -118.347781226 974.894709955 -127.915546425 963.132059809 -135.812914635 c 0
 953.748218159 -142.113166007 942.57764469 -146.436555835 928.757218134 -149.361578496 c 0
 890.37275658 -157.485453645 826.993542604 -157.509799114 684.820683417 -157.509799114 c 2
 682.24029843 -157.509799114 l 2
782.902003846 539.754809472 m 0
 805.481303025 539.754809472 830.640406826 540.29482581 853.188408666 540.807280397 c 1
 739.149414062 654.846275 l 1
 739.149414062 613.75 l 2
 739.149414062 584.763645717 739.513560666 564.230462942 740.361684014 550.707405179 c 0
 740.620013411 546.588424897 740.971736682 543.102468364 741.321941691 540.32716361 c 0
 750.877098198 540.017414394 765.964106553 539.754809472 782.902003846 539.754809472 c 0
167.477493963 412.514776749 m 0
 172.761246336 412.514776749 177.021597384 411.643077209 180.721833862 410.835523811 c 0
 196.548439758 407.722726929 211.248253071 402.226395606 221.738944218 389.595775466 c 0
 229.962286407 379.69500702 233.755008528 368.031812015 236.261165945 355.187755255 c 0
 237.023366283 351.376753564 237.769329138 347.188145179 237.769329138 342.180405737 c 0
 237.769329138 331.309269793 233.269274978 320.977180433 226.30220789 311.440909997 c 0
 217.542967739 299.451577636 204.174839342 285.785289228 180.951591248 262.275334368 c 2
 141.103652464 221.500699333 l 1
 165.27786049 197.628398618 197.283089966 166.388692571 217.671558005 142.731444918 c 0
 222.359519728 137.291886084 226.226911498 132.556039901 229.261309016 128.367052668 c 0
 231.728820594 124.960651749 233.87552133 122.731544185 235.758758236 116.541691741 c 0
 237.368298347 111.437539109 238.096599696 106.233168206 238.096600295 101.125343526 c 0
 238.096600295 84.0228353566 230.452611227 68.9359287221 220.279694965 57.2091419346 c 0
 207.679270186 42.6840548296 189.27616609 31.0528137672 168.024070536 31.0528137672 c 0
 162.987529952 31.0528137672 157.857119298 31.7609287672 152.821479248 33.3237819851 c 0
 149.016877216 34.4127806209 147.332342759 35.597089189 145.538977639 36.702352774 c 0
 143.257093105 38.1086943317 141.172978692 39.6229961014 138.84871302 41.4089563602 c 0
 133.671267614 45.3872931964 127.424648696 50.727116916 120.069571679 57.326818278 c 0
 103.574624986 72.1277132111 81.7825667442 93.112389199 59.310652247 115.93542736 c 0
 26.1281504693 149.46721863 6.9438251239 169.789643412 -4.71914025444 185.490910552 c 0
 -13.8645372753 197.802901291 -19.6005859375 209.109570573 -19.6005859375 221.875 c 0
 -19.6005859375 235.001926623 -13.6033541665 246.590594285 -3.99512853366 259.229805922 c 0
 8.26267199658 275.354420499 28.5172652971 296.396576235 63.7600515625 331.6393625 c 0
 98.4614417767 366.340752714 117.746240889 385.661191373 132.321804032 397.356825207 c 0
 143.70945485 406.494434017 154.778496057 412.514776749 167.477493963 412.514776749 c 0
324.028589308 350.054166524 m 0
 324.028589308 368.1656965 334.54565244 381.40039821 345.637545033 392.268452306 c 0
 355.914197634 402.751781314 368.667514963 414.063170711 387.295205802 414.063170711 c 0
 402.744344306 414.063170711 415.856186798 406.636707048 429.829876361 396.146826784 c 0
 447.674996903 382.750709965 469.166900649 362.011238413 500.163776563 331.0143625 c 0
 535.407458899 295.770680163 555.469000938 274.928403923 567.577028234 258.939598647 c 0
 577.084355777 246.385050739 582.899414062 234.797955849 582.899414062 221.875 c 0
 582.899414062 208.952044151 577.084355777 197.364949261 567.577028234 184.810401353 c 0
 555.469000938 168.821596077 535.407458899 147.979319837 500.163776563 112.7356375 c 0
 468.893649057 81.4655099942 447.164313484 60.5978324851 429.023251171 47.1440707931 c 0
 414.784711544 36.584495192 401.407429523 29.282109238 385.901026572 29.282109238 c 0
 368.109734953 29.282109238 355.356066045 39.3249888775 344.896438055 49.1169810385 c 0
 333.479613882 59.7553853819 323.160018514 73.2807555002 323.160018514 91.2707632064 c 0
 323.160018514 104.800961422 328.6812938 116.821163804 336.569640567 128.795684975 c 0
 353.82593965 154.990770564 395.631255226 195.54042338 421.659801431 221.875187776 c 1
 396.030948315 247.806249647 354.475391673 288.02487141 337.320293042 313.526731165 c 0
 329.571366543 325.045874311 324.028589308 336.722559675 324.028589308 350.054166524 c 0
EndSplineSet
EndChar

StartChar: uniF011
Encoding: 61457 61457 15
Width: 1000
Flags: W
LayerCount: 2
Fore
SplineSet
104.987155747 221.377991875 m 0
 104.987155747 257.145678713 105.008789062 292.579503124 105.008789062 330 c 0
 105.008789062 333.119830736 105.008781868 336.215711049 105.008781868 339.287843591 c 0
 105.008781868 514.353254873 105.032144645 612.302813469 107.741524905 670.636402048 c 0
 109.65143203 711.757147658 112.500291823 733.840866347 119.777479798 750.988230312 c 0
 126.034258915 765.731187226 135.341665308 774.058455716 143.325224357 781.572393645 c 0
 153.61264093 791.068470481 169.188745377 801.62025496 181.575483009 807.833369765 c 0
 192.778434434 813.619182929 205.887884502 815.901001435 229.101520314 817.467826822 c 0
 258.534502287 819.454430337 306.122917407 820 390.633789062 820 c 0
 553.34145577 820 576.521229111 819.860303389 605.541655097 806.15621334 c 0
 612.491989548 802.809756012 618.577324244 798.063905701 626.834068383 791.382753962 c 0
 637.022898969 783.138205987 649.591138687 772.070629177 663.838800977 758.984839933 c 0
 718.495190155 708.785587937 801.883600571 625.27332826 851.530706849 568.570296829 c 0
 860.518651911 558.304970821 867.969592243 549.374010265 873.588530121 541.933261809 c 0
 878.189571843 535.840438782 881.633062201 531.263934286 884.171593057 525.015242949 c 0
 889.505133739 511.886527423 891.460180425 496.10960467 892.868915168 462.661719995 c 0
 894.638444094 420.647423333 895.008789062 349.520491957 895.008789062 220.625 c 2
 895.011914062 176.83546875 l 2
 895.011914062 170.780851511 895.012252758 164.870169571 895.012252758 159.099179664 c 0
 895.012252758 29.6923608553 894.841949262 -29.4743245118 886.863680771 -66.2441586619 c 0
 883.879850766 -79.9958811777 879.433945417 -91.1784954167 873.014208987 -100.573904895 c 0
 863.962630781 -113.821066147 852.783030628 -122.136293179 841.136940047 -131.330575217 c 0
 831.407071805 -139.012050145 821.677203564 -146.693525072 811.947335322 -154.375 c 1
 188.070242803 -154.375 l 1
 176.032835914 -144.868096454 163.921906143 -135.289106049 151.945168508 -125.748292426 c 0
 142.897957568 -118.541175095 133.177007771 -111.104036255 125.533393984 -98.6555771843 c 0
 119.4679237 -88.7772970031 115.546912887 -77.0253874487 112.818947884 -61.9186401476 c 0
 105.184056647 -19.6386356529 104.987155747 54.4477066441 104.987155747 221.377991875 c 0
480.008789062 607.5 m 2
 480.008789062 686.25 l 1
 362.508789062 686.25 l 2
 296.806452082 686.25 258.125561143 685.089853638 241.062461782 683.545087796 c 1
 240.245761075 652.627799438 239.774414062 571.117906395 239.774414062 467.685546875 c 0
 239.774414062 307.330301939 240.957394315 140.070233495 241.781490756 -20.625 c 1
 758.294416607 -20.625 l 1
 759.541199586 120.865603573 760.499578341 262.64461137 761.152875422 404.728700842 c 1
 562.9147975 408.247719976 l 1
 553.138020577 415.969312734 543.354341151 423.68400299 533.581898317 431.409929836 c 0
 514.494871572 447.078384626 499.501589832 461.840599309 491.019342414 484.328317144 c 0
 480.641591229 511.841301488 480.008789062 545.658854773 480.008789062 607.5 c 2
648.419998886 539.754809472 m 0
 663.819427945 539.754809472 681.359679706 540.133490497 696.78897646 540.566087603 c 1
 613.758789062 623.596275 l 1
 613.758789062 598.125 l 2
 613.758789062 569.245068155 614.550083872 550.154254009 615.62980963 540.278168009 c 1
 623.558854939 539.997629907 635.421307891 539.754809472 648.419998886 539.754809472 c 0
EndSplineSet
EndChar

StartChar: uniF00D
Encoding: 61453 61453 16
Width: 1000
LayerCount: 2
Fore
SplineSet
645 467.5 m 1
 542.5 467.5 l 1
 542.5 570 l 1
 645 570 l 1
 645 467.5 l 1
207.5 445 m 1
 207.5 342.5 l 1
 105 342.5 l 1
 105 445 l 1
 207.5 445 l 1
520 570 m 1
 520 467.5 l 1
 417.5 467.5 l 1
 417.5 570 l 1
 520 570 l 1
270 570 m 1
 270 467.5 l 1
 105 467.5 l 1
 105 570 l 1
 270 570 l 1
730 92.5 m 1
 730 195 l 1
 895 195 l 1
 895 92.5 l 1
 730 92.5 l 1
480 342.5 m 1
 480 445 l 1
 582.5 445 l 1
 582.5 342.5 l 1
 480 342.5 l 1
270 195 m 1
 270 92.5 l 1
 105 92.5 l 1
 105 195 l 1
 270 195 l 1
770 570 m 1
 770 467.5 l 1
 667.5 467.5 l 1
 667.5 570 l 1
 770 570 l 1
895 570 m 1
 895 467.5 l 1
 792.5 467.5 l 1
 792.5 570 l 1
 895 570 l 1
730 217.5 m 1
 730 445 l 1
 895 445 l 1
 895 217.5 l 1
 730 217.5 l 1
1020 612.5 m 2
 1020 50 l 2
 1020 4.55959943772 982.940400562 -32.5 937.5 -32.5 c 2
 62.5 -32.5 l 2
 17.0595994377 -32.5 -20 4.55959943772 -20 50 c 2
 -20 612.5 l 2
 -20 657.940400562 17.0595994377 695 62.5 695 c 2
 937.5 695 l 2
 982.940400562 695 1020 657.940400562 1020 612.5 c 2
917.5 70 m 1
 917.5 592.5 l 1
 82.5 592.5 l 1
 82.5 70 l 1
 917.5 70 l 1
355 342.5 m 1
 355 445 l 1
 457.5 445 l 1
 457.5 342.5 l 1
 355 342.5 l 1
395 570 m 1
 395 467.5 l 1
 292.5 467.5 l 1
 292.5 570 l 1
 395 570 l 1
230 342.5 m 1
 230 445 l 1
 332.5 445 l 1
 332.5 342.5 l 1
 230 342.5 l 1
292.5 92.5 m 1
 292.5 195 l 1
 707.5 195 l 1
 707.5 92.5 l 1
 292.5 92.5 l 1
605 342.5 m 1
 605 445 l 1
 707.5 445 l 1
 707.5 342.5 l 1
 605 342.5 l 1
207.5 320 m 1
 207.5 217.5 l 1
 105 217.5 l 1
 105 320 l 1
 207.5 320 l 1
480 320 m 1
 582.5 320 l 1
 582.5 217.5 l 1
 480 217.5 l 1
 480 320 l 1
355 320 m 1
 457.5 320 l 1
 457.5 217.5 l 1
 355 217.5 l 1
 355 320 l 1
332.5 320 m 1
 332.5 217.5 l 1
 230 217.5 l 1
 230 320 l 1
 332.5 320 l 1
605 217.5 m 1
 605 320 l 1
 707.5 320 l 1
 707.5 217.5 l 1
 605 217.5 l 1
EndSplineSet
EndChar

StartChar: uniF012
Encoding: 61458 61458 17
Width: 1000
LayerCount: 2
Fore
SplineSet
501.129882812 -157.5 m 0
 460.469481151 -157.5 422.111596233 -157.521633315 383.251299795 -157.521633315 c 0
 64.2445868907 -157.521633315 49.6534817835 -157.202787704 13.2881826767 -111.112943346 c 0
 3.68738803248 -98.9447736415 -6.08872597151 -86.6699751285 -15.7083801592 -74.4850798323 c 1
 -16.5663163276 87.3788898831 -18.0057701856 256.312695274 -18.0057701856 417.507064114 c 0
 -18.0057701856 500.419522047 -17.4535720893 563.414776381 -16.4455726873 605.219433609 c 0
 -15.609207436 639.905925071 -15.7883223151 657.255262741 -12.3646981491 668.382041281 c 0
 -2.8000907236 699.467015413 24.1326991744 728.142805948 57.5078143264 745.236335413 c 0
 63.8561109506 748.609693432 70.8201708532 750.319452694 80.0680367668 751.650691384 c 0
 91.854572139 753.347376607 108.231898829 754.430550436 134.177718513 755.260538717 c 0
 192.442357278 757.124382986 298.98468994 757.5 501.129882812 757.5 c 0
 541.790284474 757.5 580.148169392 757.521633315 619.00846583 757.521633315 c 0
 938.015178734 757.521633315 952.606283842 757.202787704 988.971582948 711.112943346 c 0
 998.584653502 698.929214997 1008.37299225 686.638940972 1018.00488281 674.438546259 c 1
 1018.00488281 -74.4385462594 l 1
 1008.35960344 -86.6511612082 998.595532574 -98.9154267223 988.971582948 -111.112943346 c 0
 952.606283842 -157.202787704 938.015178734 -157.521633315 619.00846583 -157.521633315 c 0
 580.194484153 -157.521633315 541.748008293 -157.5 501.129882812 -157.5 c 0
321.592335961 622.935586535 m 0
 203.352140168 622.935586535 141.754648672 621.860460166 117.125729106 619.954290017 c 1
 116.350653681 590.115334774 115.895507812 516.541138596 115.895507812 424.169921875 c 0
 115.895507812 277.656180632 117.07615639 125.050655779 117.899072887 -21.6989050579 c 1
 131.175909394 -22.4365070861 144.452745901 -23.1741091142 157.729582408 -23.9117111424 c 1
 348.910822904 166.059521502 l 2
 409.425894099 226.226804932 466.438232779 281.734660743 507.247124788 320.299365213 c 0
 525.397124036 337.451248606 540.315322003 351.23150729 551.106368992 360.741397182 c 0
 560.050083606 368.62327753 564.209400013 372.945079937 571.483366533 376.60173843 c 0
 587.975069006 385.036680531 607.525025703 388.529142191 627.085660433 388.529142193 c 0
 645.258726588 388.529142193 663.639762393 385.454140247 679.822522786 378.303618213 c 0
 685.354854612 375.844804068 689.281477045 372.894765468 695.301597406 368.480822216 c 0
 702.638012479 363.101773649 711.967391039 355.763060422 722.907049519 346.825456256 c 0
 747.488018168 326.7430224 780.068718472 298.657059349 813.294167635 268.579284317 c 2
 887.144847909 201.1692294 l 1
 886.547543245 341.333521361 885.564311921 481.111886663 884.408203997 620.717375364 c 1
 703.779775788 621.560120752 498.635437601 622.935586535 321.592335961 622.935586535 c 0
887.515812985 20.3373691139 m 1
 818.470152 82.9601779144 688.201380934 202.215961894 631.100646308 248.798704838 c 1
 606.948919648 227.934612996 545.292820966 169.491343324 477.819858584 101.53643121 c 2
 352.735749533 -23.5478194113 l 1
 530.57485543 -22.9336627304 708.02631498 -21.9318597023 885.290847715 -20.7431298594 c 1
 886.019295465 -7.0364228619 886.768613517 6.64941383371 887.515812985 20.3373691139 c 1
455.504882812 425 m 0
 455.504882812 363.793382257 430.79743687 329.281878707 391.509648405 303.3012444 c 0
 369.074552434 288.47805599 340.639647699 281.933068051 312.651820413 281.933068051 c 0
 286.501603607 281.933068051 260.201507705 287.558261223 238.756758981 301.102313048 c 0
 194.653492828 328.376701328 169.892903887 376.593664455 169.892903887 427.09450017 c 0
 169.892903887 440.132057032 171.416073287 453.618470694 174.965783808 466.549559022 c 0
 181.24626629 489.428459493 197.113223069 511.936360497 215.576031256 530.122035434 c 0
 239.605228897 553.790546361 263.733686181 567.876473552 307.30107261 567.876476382 c 0
 337.805907784 567.876476382 370.13251183 561.130476859 393.388171942 545.446427016 c 0
 431.578676861 520.201855967 455.504882812 484.922889127 455.504882812 425 c 0
302.379882812 425 m 0
 302.379882812 424.559502152 303.734918842 420.242494688 307.527893391 416.949082641 c 0
 310.452842511 414.409370722 313.383711464 413.75 313.629882812 413.75 c 0
 319.314304749 413.75 323.960639844 418.70184212 323.960639844 424.946659768 c 0
 323.960639844 430.710320839 318.628913462 434.821489241 313.406431657 436.213054065 c 0
 312.385477726 435.973203328 308.562268402 434.537815945 305.578965454 431.101989422 c 0
 303.039253534 428.177040301 302.379882812 425.246171349 302.379882812 425 c 0
EndSplineSet
EndChar

StartChar: uniF013
Encoding: 61459 61459 18
Width: 1000
LayerCount: 2
Fore
SplineSet
460.335690399 29.2403810568 m 0
 459.911468506 29.2403810568 459.492004246 29.2362906954 459.078981077 29.2286853795 c 0
 458.162491326 16.0216724277 457.06640625 -7.98101949902 457.06640625 -32.5 c 2
 457.06640625 -86.25 l 1
 464.610119773 -86.25 472.153833295 -86.25 479.697546818 -86.25 c 1
 478.768453454 -48.0659835927 477.833171055 -9.88815621998 476.892403398 28.2841858943 c 1
 471.685035059 28.6747385197 465.60329356 29.2403810568 460.335690399 29.2403810568 c 0
479.56640625 190.625 m 0
 479.56640625 199.004607787 481.898096883 205.973757145 484.947862856 212.762242248 c 0
 488.677509247 221.06407563 493.886145275 229.23341612 501.10998287 236.082344178 c 0
 507.347694478 242.570222809 514.665718305 248.429732224 523.703513556 252.084531547 c 0
 535.193576488 256.731004136 547.100068137 257.5 562.06640625 257.5 c 0
 577.032744363 257.5 588.939236012 256.731004136 600.429298944 252.084531547 c 0
 609.531616958 248.403640379 616.889520022 242.486446734 623.15626227 235.943295674 c 0
 635.903953896 223.470549869 643.941405342 207.754563872 643.94140625 190.625 c 0
 643.94140625 173.454158253 635.86517254 157.703716043 623.064028023 145.216592511 c 0
 610.268333512 132.178081161 593.148639955 125.564257423 575.84122535 123.360450647 c 1
 587.695696885 112.029304328 597.113379074 99.7144517736 602.987572606 82.8944233352 c 0
 613.122272071 53.8749618024 613.31640625 16.8572068903 613.31640625 -55 c 0
 613.31640625 -66.1062357381 613.327497908 -76.1208414626 613.327497908 -85.1880882555 c 0
 613.327497908 -127.554065493 613.085350377 -149.237775846 610.338225818 -164.955723725 c 0
 609.140522715 -171.808501801 607.230511043 -178.042649449 604.117319585 -183.617579692 c 0
 600.293585223 -190.464910678 595.598831561 -194.908538017 591.836751901 -198.514679779 c 0
 588.248800392 -202.25714727 583.982179475 -206.643050914 577.684689004 -210.332828814 c 0
 572.53759823 -213.348575708 566.703011238 -215.37530842 560.437386337 -216.657687677 c 0
 544.970095096 -219.823362891 524.760559362 -220.002940923 484.702272052 -220.002940923 c 0
 479.575930126 -220.002940923 474.124528161 -220 468.31640625 -220 c 0
 462.508284339 -220 457.056882374 -220.002940923 451.930540448 -220.002940923 c 0
 411.872253138 -220.002940923 391.662717404 -219.823362891 376.195426163 -216.657687677 c 0
 369.929801262 -215.37530842 364.09521427 -213.348575708 358.948123496 -210.332828814 c 0
 352.650717236 -206.643097234 348.384125558 -202.257260051 344.796203626 -198.514824285 c 0
 341.033331772 -194.9079995 336.358905482 -190.486000398 332.535515599 -183.672165711 c 0
 329.421702708 -178.12290093 327.5014822 -171.909177746 326.299856031 -165.09547672 c 0
 323.549665279 -149.500795082 323.304934531 -128.094817411 323.304934531 -86.3619920179 c 0
 323.304934531 -77.3265840362 323.31640625 -67.3383579694 323.31640625 -56.25 c 0
 323.31640625 -12.8423205702 323.865451558 19.2637835936 326.594496191 44.8235393098 c 0
 328.773557256 65.2322449229 332.350091087 81.7632464848 338.94692517 96.1669285431 c 0
 351.157521607 122.827830818 372.398041016 137.457458941 399.3853612 151.945388724 c 0
 415.159360357 160.549388264 433.157819474 162.857075573 457.945090965 162.857075573 c 0
 467.860535895 162.857075573 478.244282899 162.625146865 488.183002348 162.03015225 c 1
 486.99732741 164.159529597 485.922133615 166.319123094 484.947862856 168.487757752 c 0
 481.898096883 175.276242855 479.56640625 182.245392213 479.56640625 190.625 c 0
354.56640625 284.375 m 0
 354.56640625 292.754607787 356.898096883 299.723757145 359.947862856 306.512242248 c 0
 363.677509247 314.81407563 368.886145275 322.98341612 376.10998287 329.832344178 c 0
 382.347694478 336.320222809 389.665718305 342.179732224 398.703513556 345.834531547 c 0
 410.193576488 350.481004136 422.100068137 351.25 437.06640625 351.25 c 0
 452.032744363 351.25 463.939236012 350.481004136 475.429298944 345.834531547 c 0
 484.531616958 342.153640379 491.889520022 336.236446734 498.15626227 329.693295674 c 0
 510.903953896 317.220549869 518.941405342 301.504563872 518.94140625 284.375 c 0
 518.94140625 267.204158253 510.86517254 251.453716043 498.064028023 238.966592511 c 0
 481.864303862 222.459455117 458.733943497 216.250000974 437.06640625 216.25 c 0
 415.462434575 216.25 392.404211168 222.423073968 376.211540923 238.821577485 c 0
 368.934930558 245.690115994 363.694962585 253.897067783 359.947862856 262.237757752 c 0
 356.898096883 269.026242855 354.56640625 275.995392213 354.56640625 284.375 c 0
479.56640625 378.125 m 0
 479.56640625 386.504607787 481.898096883 393.473757145 484.947862856 400.262242248 c 0
 488.677509247 408.56407563 493.886145275 416.73341612 501.10998287 423.582344178 c 0
 507.347694478 430.070222809 514.665718305 435.929732224 523.703513556 439.584531547 c 0
 535.193576488 444.231004136 547.100068137 445 562.06640625 445 c 0
 577.032744363 445 588.939236012 444.231004136 600.429298944 439.584531547 c 0
 609.531616958 435.903640379 616.889520021 429.986446734 623.15626227 423.443295674 c 0
 635.903953896 410.970549869 643.941405342 395.254563872 643.94140625 378.125 c 0
 643.94140625 360.954158253 635.86517254 345.203716042 623.064028023 332.716592511 c 0
 606.864303862 316.209455117 583.733943497 310.000000974 562.06640625 310 c 0
 540.462434575 310 517.404211168 316.173073968 501.211540923 332.571577485 c 0
 493.934930558 339.440115994 488.694962585 347.647067783 484.947862856 355.987757752 c 0
 481.898096883 362.776242855 479.56640625 369.745392213 479.56640625 378.125 c 0
354.56640625 471.875 m 0
 354.56640625 480.254607787 356.898096883 487.223757145 359.947862856 494.012242248 c 0
 363.677509247 502.31407563 368.886145275 510.48341612 376.10998287 517.332344178 c 0
 382.347694478 523.820222809 389.665718305 529.679732224 398.703513556 533.334531547 c 0
 410.193576488 537.981004136 422.100068137 538.75 437.06640625 538.75 c 0
 452.032744363 538.75 463.939236012 537.981004136 475.429298944 533.334531547 c 0
 484.531616958 529.653640379 491.889520022 523.736446734 498.15626227 517.193295674 c 0
 510.903953896 504.720549869 518.941405342 489.004563872 518.94140625 471.875 c 0
 518.94140625 454.704158253 510.86517254 438.953716043 498.064028023 426.466592511 c 0
 481.864303862 409.959455117 458.733943497 403.750000974 437.06640625 403.75 c 0
 415.462434575 403.75 392.404211168 409.923073968 376.211540923 426.321577485 c 0
 368.934930558 433.190115994 363.694962585 441.397067783 359.947862856 449.737757752 c 0
 356.898096883 456.526242855 354.56640625 463.495392213 354.56640625 471.875 c 0
479.56640625 565.625 m 0
 479.56640625 574.004607787 481.898096883 580.973757145 484.947862856 587.762242248 c 0
 488.677509247 596.06407563 493.886145275 604.23341612 501.10998287 611.082344178 c 0
 507.347694478 617.570222809 514.665718305 623.429732224 523.703513556 627.084531547 c 0
 535.193576488 631.731004136 547.100068137 632.5 562.06640625 632.5 c 0
 577.032744363 632.5 588.939236012 631.731004136 600.429298944 627.084531547 c 0
 609.531616958 623.403640379 616.889520022 617.486446734 623.15626227 610.943295674 c 0
 635.903953896 598.470549869 643.941405342 582.754563872 643.94140625 565.625 c 0
 643.94140625 548.454158253 635.86517254 532.703716042 623.064028023 520.216592511 c 0
 606.864303862 503.709455117 583.733943497 497.500000974 562.06640625 497.5 c 0
 540.462434575 497.5 517.404211168 503.673073968 501.211540923 520.071577485 c 0
 493.934930558 526.940115994 488.694962585 535.147067783 484.947862856 543.487757752 c 0
 481.898096883 550.276242855 479.56640625 557.245392213 479.56640625 565.625 c 0
894.56640625 236.25 m 2
 894.56953125 190.067265625 l 2
 894.56953125 184.808473566 894.569717603 179.653167969 894.569717603 174.598856304 c 0
 894.569717603 36.5531385054 894.430704042 -26.1540527346 886.559070531 -64.306295677 c 0
 883.63925091 -78.4580809896 879.312516791 -89.8474717717 872.942442653 -99.4201683158 c 0
 863.823948606 -113.123082059 852.58100438 -121.015986926 841.048501844 -130.420173082 c 0
 831.760341293 -138.200196162 822.665644192 -144.519352074 811.694016647 -148.653855093 c 0
 797.963159292 -153.828135372 783.65993226 -155.157994276 763.232737105 -156.216831007 c 0
 753.319939295 -156.845540755 738.194112244 -157.27558194 738.058546843 -157.275578118 c 0
 728.827893481 -157.2753179 720.707486958 -156.613961742 712.709911719 -153.727881149 c 0
 702.48849541 -150.039284249 695.428340151 -143.515658901 689.17704375 -137.2643625 c 0
 676.044751581 -124.132070331 667.686227966 -107.980220864 667.686227966 -90.2705377247 c 0
 667.686227966 -75.2267611546 673.802485822 -61.1046784834 683.496421064 -49.1736812632 c 0
 696.670426676 -33.1766744478 715.542183787 -26.4894095853 742.077560039 -23.8358719601 c 2
 757.81395449 -22.3787983998 l 1
 759.118713169 153.892284641 760.092727521 330.494112009 760.77915999 507.38352126 c 1
 581.91268125 686.25 l 1
 512.097041112 686.25 l 1
 516.470958475 677.934011582 518.94140625 668.871749559 518.94140625 659.375 c 0
 518.94140625 642.245434447 510.903954042 626.529447773 498.156260515 614.056702553 c 0
 491.889519543 607.513551328 484.531616987 601.596358419 475.429298944 597.915468453 c 0
 463.939236012 593.268995864 452.032744363 592.5 437.06640625 592.5 c 0
 422.100068137 592.5 410.193576488 593.268995864 398.703513556 597.915468453 c 0
 389.601195466 601.596359651 382.243292356 607.513553365 375.976551274 614.056705639 c 0
 363.222563805 626.536003513 355.19140625 642.278854046 355.19140625 659.453125 c 0
 355.19140625 668.795806548 357.552660259 677.725775069 361.740167194 685.977379561 c 1
 321.601711386 685.166175569 281.472056968 684.346170189 241.341679644 683.526887713 c 1
 240.019645742 447.575003535 239.033941749 211.286789446 238.340991777 -25.2941786623 c 1
 249.177241518 -38.2988617821 l 2
 261.586006501 -52.8791606367 269.190485729 -69.294251416 269.190485729 -86.5407357623 c 0
 269.190485729 -112.290293289 251.486950669 -132.648446131 226.664607392 -142.827836855 c 0
 219.077456287 -146.077973936 210.952378426 -147.8110716 202.67541425 -147.811071782 c 0
 174.424389825 -147.811071782 150.101213179 -129.037611832 129.308407567 -101.525895127 c 0
 122.11386199 -92.2757651005 114.919316415 -83.0256350719 107.724770836 -73.7755050471 c 1
 106.868237018 102.099449441 105.430753252 285.827557946 105.430753252 460.913311531 c 0
 105.430753252 550.94731178 105.98308019 619.035677061 106.99015392 663.947563697 c 0
 107.4381138 683.924972224 107.97189502 699.292826165 108.609642491 710.207467197 c 0
 109.156182324 719.561147698 109.193888247 724.778745897 111.071825288 730.882041281 c 0
 120.652803434 762.020220254 147.530319402 790.673378477 180.984617114 807.756424117 c 0
 192.410070832 813.69766005 205.743723293 815.907023978 230.528362599 817.473444159 c 0
 261.822876637 819.451296559 313.327063924 820 405.81640625 820 c 0
 505.5837259 820 555.985574097 819.66655613 586.467214106 817.393486401 c 0
 610.62648642 815.591886797 624.017950945 811.979328565 636.076624418 806.284954981 c 0
 642.834364134 803.156371779 648.751196461 798.754123837 656.36464215 792.776084172 c 0
 665.781752966 785.381815626 677.092411243 775.609342988 689.77605033 764.109410365 c 0
 738.53700858 719.899091015 810.884921747 647.226453542 854.392138257 596.555635264 c 0
 868.854291212 579.712242764 878.906855624 568.135654321 883.729210244 556.265242949 c 0
 889.126450395 542.979728731 891.021295427 526.926213135 892.428167649 491.88293664 c 0
 894.194813917 447.87817726 894.56640625 372.781476181 894.56640625 236.25 c 2
EndSplineSet
EndChar

StartChar: uniF014
Encoding: 61460 61460 19
Width: 1000
LayerCount: 2
Fore
SplineSet
895 527.028725 m 1
 895 -75 l 2
 895 -120.550694902 858.050694902 -157.5 812.5 -157.5 c 2
 187.5 -157.5 l 2
 141.949305098 -157.5 105 -120.550694902 105 -75 c 2
 105 675 l 2
 105 720.550694902 141.949305098 757.5 187.5 757.5 c 2
 664.528725 757.5 l 1
 895 527.028725 l 1
207.5 655 m 1
 207.5 128.427999669 l 1
 218.358188736 135.317258221 229.686125569 141.462577916 241.406464923 146.815339087 c 0
 253.728886325 152.950803138 266.313929635 158.536541689 279.123851775 163.558565857 c 1
 296.197440965 196.51273873 311.197637318 229.620528862 332.099793337 271.4248409 c 0
 357.563782256 322.622200301 379.710717966 375.360676055 398.438237582 429.38376494 c 1
 388.641128467 465.321903629 381.883083813 502.024830813 378.237143269 539.115414341 c 0
 377.015599604 549.817612809 376.405689164 560.567450517 376.405689078 571.317622846 c 0
 376.405689078 593.626518031 379.030872795 615.857501516 384.247772339 637.581601226 c 0
 385.551043389 643.591996258 387.480410446 649.428046502 389.994499224 655 c 1
 207.5 655 l 1
533.463248498 221.44188398 m 1
 529.545045854 224.401213673 525.143226848 227.454823251 521.887478022 231.137596066 c 0
 499.204895968 256.795225398 480.229746929 285.373558173 465.425657836 316.031918414 c 1
 453.744836436 284.403321065 440.415788941 253.393187262 425.488722265 223.128942466 c 0
 419.528810145 210.766025973 412.387675351 199.177967067 405.34497825 188.815958977 c 1
 429.163550751 197.06831334 453.464653003 204.616861331 478.113361959 210.141571959 c 0
 496.290982457 214.215866208 514.644333705 217.983781819 533.463248498 221.44188398 c 1
791.875 -55 m 1
 791.875 95 l 1
 790.282186417 95 788.689372834 95 787.096559251 95 c 0
 724.219544044 101.325460693 669.662631326 119.007415174 620.662954129 142.107516866 c 1
 592.853101575 139.656322789 564.224493392 136.070594104 535.812755255 130.388248118 c 0
 504.763173289 124.178331724 474.595546242 118.565517692 447.811176717 110.267812852 c 0
 422.699555021 102.488319491 405.383733448 96.2096331006 379.164184143 85.4679616381 c 1
 350.733093205 34.1669828139 315.521252799 -13.0826649953 274.483327411 -55 c 1
 791.875 -55 l 1
539.717683633 619.991007213 m 0
 539.717683633 614.75261026 539.239651295 609.51078813 538.273196721 604.317311276 c 0
 538.775358597 596.952096583 539.02661119 589.571533006 539.026611328 582.1875 c 0
 539.026611328 573.99523619 538.717346055 565.807242848 538.099284445 557.639742859 c 0
 536.719855866 516.55531894 532.716303769 475.611479048 526.114465755 435.05428156 c 1
 541.168460058 385.862930789 566.600039765 340.483151391 600.686682914 301.983249219 c 0
 615.4376048 287.849568935 632.650903018 276.535382877 651.486091566 268.594651361 c 1
 676.042708295 271.429061938 700.739551709 272.942106818 725.474786963 273.124446496 c 2
 726.1160175 273.124446496 l 2
 743.6946193 272.274690983 761.063411756 269.567031592 777.981955881 265.505979683 c 0
 782.892463119 263.884954872 787.712015949 262.163026764 792.5 260.270137463 c 1
 792.5 479.221275 l 1
 616.721275 655 l 1
 532.244190198 655 l 1
 537.172602207 644.009275686 539.717683633 632.094704074 539.717683633 619.991007213 c 0
EndSplineSet
EndChar

StartChar: uniF015
Encoding: 61461 61461 20
Width: 1000
LayerCount: 2
Fore
SplineSet
308.179252176 758.598843505 m 0
 358.879377753 758.598843505 409.276791248 757.538762522 447.410120837 755.353078728 c 0
 464.383720949 754.380204785 478.897305407 753.197146998 490.303123875 751.702437286 c 0
 499.655301544 750.476853097 506.642255117 749.5415561 513.688704932 746.441118181 c 0
 520.96679824 743.238757125 526.307686457 738.79676682 534.744111303 731.845548727 c 0
 545.125194084 723.292023772 558.875910265 710.997637833 576.427553885 694.627521369 c 0
 615.876130246 657.834511929 674.367405212 600.533348746 752.936775351 521.616326526 c 0
 860.304690068 413.90094283 913.326475075 360.213007782 941.512585746 327.881359778 c 0
 963.79503049 302.321673004 971.987409945 287.577205703 976.229756073 272.021936566 c 0
 979.50864099 259.69332928 982.55427497 248.148599592 982.55427497 234.936426962 c 0
 982.55427497 211.734233069 972.137654603 190.492771669 949.738473096 162.473318334 c 0
 921.462003671 127.101882317 871.751549554 77.1984681721 784.192415223 -10.3606661588 c 0
 697.996234932 -96.9044116922 651.873018688 -142.472655375 622.646087755 -167.95243004 c 0
 599.508554389 -188.123522853 585.336258087 -196.930207764 570.382026694 -201.148067901 c 0
 559.21159077 -204.250966769 548.405392213 -207.355622513 535.611818858 -207.355622513 c 0
 511.718187015 -207.355622513 490.059784291 -195.695618758 458.821557017 -169.918867502 c 0
 419.229510951 -137.248821465 360.292720352 -78.6144882948 254.707190752 26.4138617294 c 0
 185.489034689 94.9363579324 125.940635422 155.524540632 85.6483511686 198.072054409 c 0
 67.7257087784 216.997858397 53.6352575603 232.322333061 43.9992653043 243.436035874 c 0
 39.7003724432 248.39417785 36.2985987662 252.487175302 33.6391922835 255.997696782 c 0
 31.4183870266 258.92924734 29.6077460289 260.981079763 27.7238250283 265.641305396 c 0
 24.9073794464 272.608302362 24.2871522377 278.758599103 23.2693477096 287.699752045 c 0
 22.0205860466 298.669804455 21.0259690271 312.890289717 20.2045269587 329.668579598 c 0
 18.3590145721 367.363924156 17.444786494 417.797656444 17.444786494 468.566249268 c 0
 17.444786494 520.65391279 18.4069518508 572.96839295 20.3773746062 612.102682701 c 0
 21.2544474654 629.522103642 22.3185898774 644.292866217 23.6617535871 655.66118884 c 0
 24.7482909704 664.857467317 25.3611398687 671.185682854 28.4830829763 678.433581982 c 0
 40.0560284406 706.10548714 63.7402967072 729.808938434 94.705991547 745.328329945 c 0
 102.442839777 749.330875615 108.985363703 749.967255011 118.26645911 751.243334115 c 0
 129.799804723 752.829081558 144.75073765 754.079762097 162.41406287 755.115699789 c 0
 202.087534404 757.442512211 255.226413049 758.598843505 308.179252176 758.598843505 c 0
303.149414062 623.75 m 2
 238.844084947 623.75 180.289488517 622.574577395 154.393739821 621.255674242 c 1
 153.074836667 595.359925546 151.899414062 536.805329115 151.899414062 472.5 c 2
 151.899414062 317.653725 l 1
 538.122960458 -68.5698213959 l 1
 639.858218385 33.7591040112 741.886225988 135.795279741 844.219243891 237.526445171 c 1
 457.995689063 623.75 l 1
 303.149414062 623.75 l 2
349.959789239 506.634837993 m 0
 392.953932348 506.634837993 433.149414062 472.228075182 433.149414062 424.375 c 0
 433.149414062 404.612368816 424.815135409 386.635455506 412.71226802 372.640425132 c 0
 397.65478975 355.228859841 375.502093867 342.5 350.649414062 342.5 c 0
 299.803501759 342.5 269.469908546 385.938677542 269.469908546 426.663301259 c 0
 269.469908546 453.172506015 282.232359537 480.741640625 310.265564998 496.208236742 c 0
 322.949555238 503.318958543 336.595648831 506.634837993 349.959789239 506.634837993 c 0
EndSplineSet
EndChar

StartChar: uniF016
Encoding: 61462 61462 21
Width: 1000
LayerCount: 2
Fore
SplineSet
499.859375 -157.5 m 0
 459.198973338 -157.5 420.841088421 -157.521633315 381.980791982 -157.521633315 c 0
 62.9740790782 -157.521633315 48.382973971 -157.202787704 12.0176748642 -111.112943346 c 0
 2.41688021998 -98.9447736415 -7.35923378401 -86.6699751285 -16.9788879717 -74.4850798323 c 1
 -17.8368241401 87.3788898831 -19.2762779981 256.312695274 -19.2762779981 417.507064114 c 0
 -19.2762779981 500.419522047 -18.7240799018 563.414776381 -17.7160804998 605.219433609 c 0
 -16.8873275344 639.590221505 -16.8389343449 657.043693989 -13.7675055229 667.933305267 c 0
 -4.78835368154 699.768479978 23.2993436195 728.339805902 56.2775858643 745.881424117 c 0
 64.4087875434 750.10964899 73.9652995032 752.690342858 86.6865041182 754.187018926 c 0
 102.701584906 756.071226347 124.924416432 756.666244063 161.718468005 756.666244063 c 0
 229.051129418 756.666244063 305.584560676 755.188518189 373.664675538 754.28479985 c 1
 382.771998135 747.258097421 391.881703883 740.233778143 400.987525984 733.205575217 c 0
 416.000434222 721.35327924 440.42249914 694.063184356 459.049021701 668.78433231 c 2
 485.600271826 633.047258876 l 1
 936.870433611 629.317753407 l 1
 948.336456366 620.262611199 959.889747003 611.24264553 971.238470723 602.071061793 c 0
 986.306426836 589.893743477 1001.45945568 577.089818437 1009.06442701 551.969594014 c 0
 1018.15627702 521.93801301 1019.27720903 477.538864403 1019.27720903 381.812736551 c 0
 1019.27720903 236.686700164 1017.61873104 72.7535889402 1016.69070086 -74.4938668349 c 1
 1007.05999045 -86.6880259387 997.310449645 -98.9338994106 987.701075136 -111.112943346 c 0
 951.335776029 -157.202787704 936.744670922 -157.521633315 617.737958018 -157.521633315 c 0
 578.92397634 -157.521633315 540.47750048 -157.5 499.859375 -157.5 c 0
EndSplineSet
EndChar

StartChar: uniF017
Encoding: 61463 61463 22
Width: 1000
LayerCount: 2
Fore
SplineSet
499.859375 -157.5 m 0
 459.198973338 -157.5 420.841088421 -157.521633315 381.980791982 -157.521633315 c 0
 62.9740790782 -157.521633315 48.382973971 -157.202787704 12.0176748642 -111.112943346 c 0
 2.41688021998 -98.9447736415 -7.35923378401 -86.6699751285 -16.9788879717 -74.4850798323 c 1
 -17.8368241401 87.3788898831 -19.2762779981 256.312695274 -19.2762779981 417.507064114 c 0
 -19.2762779981 500.419522047 -18.7240799018 563.414776381 -17.7160804998 605.219433609 c 0
 -16.8797152485 639.905925071 -17.0588301276 657.255262741 -13.6352059616 668.382041281 c 0
 -4.07344772201 699.457755559 22.84614697 728.125721361 56.2074809719 745.221058535 c 0
 66.5479610364 750.764678374 78.6018109268 753.328062053 96.4592757585 754.932781819 c 0
 119.140725845 756.970997749 152.889632182 757.499832961 209.316904807 757.499832961 c 0
 256.997091882 757.306795766 290.465935381 757.166175463 316.732548315 754.780556391 c 0
 337.688561495 752.877263231 354.485400933 749.492576145 369.473460903 742.667761735 c 0
 396.936915555 730.162275272 413.110538791 708.793911711 436.926205574 677.860919222 c 2
 469.759677968 635.495148392 l 1
 936.914475452 629.282983532 l 1
 948.365819422 620.239429135 959.904293347 611.230889758 971.238470723 602.071061793 c 0
 986.306426836 589.893743477 1001.45945568 577.089818437 1009.06442701 551.969594014 c 0
 1018.15627702 521.93801301 1019.27720903 477.538864403 1019.27720903 381.812736551 c 0
 1019.27720903 236.686700164 1017.61873104 72.7535889402 1016.69070086 -74.4938668349 c 1
 1007.05999045 -86.6880259387 997.310449645 -98.9338994106 987.701075136 -111.112943346 c 0
 951.335776029 -157.202787704 936.744670922 -157.521633315 617.737958018 -157.521633315 c 0
 578.92397634 -157.521633315 540.47750048 -157.5 499.859375 -157.5 c 0
582.359375 248.75 m 1
 289.00334026 248.75 l 1
 285.810240026 245.423853923 282.707181008 241.969189966 279.395818836 238.761307862 c 0
 272.319256439 231.90588804 270.484375 226.172427984 270.484375 221.875 c 0
 270.484375 217.125159259 273.046722382 211.621476956 279.911476427 204.470691492 c 2
 289.00334026 195 l 1
 581.181625573 195 l 1
 582.276253725 155.95826255 582.736840739 108.820877872 585.351228759 71.9744234315 c 1
 626.579033985 105.587397744 718.85943939 189.75141919 749.048316591 221.555310373 c 1
 734.086612833 237.086490442 702.232192474 268.173407152 666.88890134 300.961761577 c 0
 632.932539614 332.088426493 601.304251648 360.206564301 583.192943685 375.732393727 c 1
 582.595666121 365.911130466 582.359375013 351.877627335 582.359375 333.125 c 2
 582.359375 248.75 l 1
EndSplineSet
EndChar

StartChar: uniF018
Encoding: 61464 61464 23
Width: 1000
LayerCount: 2
Fore
SplineSet
496.308806098 755.391538879 m 0
 502.530696865 755.391538879 508.725828761 755.262278058 514.70884284 754.977372626 c 0
 614.491740315 750.257911259 696.234701311 694.755851604 741.699998159 603.825257908 c 0
 751.439969401 583.788745639 757.79512334 570.396060353 761.72897976 555.566863375 c 0
 766.684979692 536.884559968 766.875 519.268710884 766.875 488.125 c 0
 766.875 457.830833266 766.443799013 439.892952238 762.252709874 422.045045809 c 0
 758.922516128 407.863293904 753.610923637 394.825052947 745.496020393 378.144418502 c 0
 733.33974594 353.156521015 714.764935474 323.640239729 699.868426171 307.254079496 c 2
 693.477015959 300.152512594 l 1
 698.97491065 296.797864986 704.517195856 293.504485704 709.974140077 290.084800659 c 0
 760.694329368 258.300148704 819.25957219 195.934756027 847.681508538 142.474447183 c 0
 861.028772639 117.305320592 873.692190863 81.5122125303 882.753254455 47.7952842342 c 0
 890.018608898 20.7603305203 895 -4.22874743486 895 -23.125 c 0
 895 -61.0849796373 864.083556578 -95 825.625 -95 c 0
 809.233467079 -95 795.054451449 -87.3144554506 784.346169883 -77.1381187576 c 0
 770.986961312 -64.4425425773 761.29096676 -46.2330369781 761.250129504 -25.754866358 c 0
 760.663614284 22.6672976104 728.699943502 93.063944146 682.65582001 139.690904662 c 0
 631.135404581 191.793471678 565.933383558 217.578288214 500.686041126 217.578288214 c 0
 435.256510358 217.578288214 369.189920647 191.536892366 316.539381978 138.886353697 c 0
 274.315276514 97.2486941427 252.28094103 53.9524238408 241.57110748 -9.11659594866 c 0
 237.216636995 -32.921034602 232.15975516 -51.2929419406 223.213795185 -66.0118202176 c 0
 213.007014991 -82.8051387333 196.233150101 -95 170.625 -95 c 0
 153.638008703 -95 139.152519614 -86.6941588662 128.333859839 -76.0755079265 c 0
 114.787727161 -62.779807954 105 -43.9684412297 105 -23.125 c 0
 105 -4.22874743486 109.981391102 20.7603305203 117.246745545 47.7952842342 c 0
 126.307809137 81.5122125303 138.981028917 117.323780166 152.328293019 142.492906758 c 0
 180.777464255 196.004443131 239.362800776 258.33595026 290.127095442 290.148241584 c 0
 295.59244398 293.483030523 301.057792518 296.817819461 306.523141056 300.1526084 c 1
 300.199133373 307.179389708 l 2
 285.370747473 323.490614198 266.09331212 353.30399114 254.36560163 378.434799332 c 0
 246.50025924 395.289104453 241.093729612 407.804492183 237.751947545 421.970387871 c 0
 233.558613613 439.746032686 233.125 457.552250482 233.125 487.5 c 0
 233.125 517.438776962 233.554501457 535.303052667 237.882897119 553.236441084 c 0
 241.323387674 567.491065266 246.880730482 580.12846467 254.996569864 597.203928242 c 0
 266.797223088 622.844861718 287.553832653 654.36525782 303.523944237 671.787198146 c 0
 320.967370438 690.41994886 346.335029437 708.749901908 372.960168033 723.749469696 c 0
 394.269887672 735.754537131 416.492099278 746.136830116 436.805589249 750.753532382 c 0
 450.789534139 753.931701675 473.255666886 755.391538879 496.308806098 755.391538879 c 0
497.969840928 622.669221877 m 0
 463.231380766 622.669221877 431.027321456 609.378476292 404.866492919 582.838505312 c 0
 378.03717386 556.009186253 364.6875 521.642151023 364.6875 487.5 c 0
 364.6875 453.357848977 377.935043441 419.093681559 404.7643625 392.2643625 c 0
 431.593681559 365.435043441 465.857848977 352.1875 500 352.1875 c 0
 534.142151023 352.1875 568.406318441 365.435043441 595.2356375 392.2643625 c 0
 619.441994382 416.470719382 636.25 456.220574761 636.25 487.5 c 0
 636.25 540.476466668 595.384893158 597.776326631 546.742506815 614.166695942 c 0
 530.079952442 619.894449008 513.606782114 622.669221877 497.969840928 622.669221877 c 0
EndSplineSet
EndChar

StartChar: uniF019
Encoding: 61465 61465 24
Width: 1000
LayerCount: 2
Fore
SplineSet
304.221275 445 m 1
 445.778725 445 l 1
 488.75 402.028725 l 1
 488.75 72.971275 l 1
 445.778725 30 l 1
 304.221275 30 l 1
 261.25 72.971275 l 1
 261.25 402.028725 l 1
 304.221275 445 l 1
363.75 132.5 m 1
 386.25 132.5 l 1
 386.25 342.5 l 1
 363.75 342.5 l 1
 363.75 132.5 l 1
575 800 m 2
 575 820 l 1
 801.977255185 820 l 1
 801.353908742 802.546299579 800.673076923 785.262387423 800.673076923 767.115384615 c 0
 800.673076923 707.056891728 806.3770398 640.916721316 817.875035646 568.79292919 c 2
 821.568473633 545.625 l 1
 821.170977018 545.625 l 1
 827.073322949 520.543447893 835.297629671 500.531880344 845.286612801 485.439186699 c 0
 861.224523951 461.358055798 881.386309954 448.590852715 908.982029299 444.814596384 c 2
 926.25 442.45161092 l 1
 926.25 -137.876552309 l 1
 926.236098006 -138.251906137 l 2
 925.44936976 -159.493568791 917.36446548 -179.201108482 900.662732572 -195.107520775 c 0
 884.382261177 -210.612731628 865.946209867 -220 844.500544795 -220 c 2
 155.873447691 -220 l 1
 155.498093863 -219.986098006 l 2
 134.256431209 -219.19936976 114.548891518 -211.11446548 98.6424792245 -194.412732572 c 0
 83.1372683722 -178.132261177 73.75 -159.696209867 73.75 -138.250544795 c 2
 73.75 442.63445669 l 1
 91.2229006273 444.841559928 l 2
 118.784736134 448.323054939 139.268191328 460.993610047 155.255653112 485.018207595 c 0
 168.414954867 504.792886839 177.504695629 532.237245753 183.378536403 568.81525421 c 0
 194.357232689 637.182590175 199.647045924 700.505979134 199.647045924 758.731785681 c 0
 199.647045924 779.816977879 198.734799723 799.893945338 197.845151287 820 c 1
 426.875 820 l 1
 426.875 800 l 2
 426.875 790.324425734 430.719094853 782.243009911 442.349394975 772.092341859 c 0
 452.358830935 763.764975126 470.90046063 758.125000509 500 758.125 c 0
 528.828626582 758.125 547.716960592 764.156919255 558.071982611 772.440936871 c 0
 571.832085853 783.554866412 575 790.627755723 575 800 c 2
176.25 -117.5 m 1
 823.75 -117.5 l 1
 823.75 351.32705542 l 1
 761.77322099 396.229266028 732.407210383 471.021514679 719.95660681 521.446459149 c 0
 707.868698044 571.611280529 701.072895547 636.955188712 699.127333119 717.5 c 1
 676.191529254 717.5 l 1
 674.797842361 674.043159987 664.975631573 633.875960306 643.410874983 598.477758404 c 0
 616.32214326 552.694843695 566.627122009 531.329986856 501.665209255 530.004233343 c 2
 500.939306782 529.989419007 l 1
 435.896567169 533.30792613 386.551056053 554.230239202 359.244599518 598.223974731 c 0
 337.907355791 633.193346394 325.866156487 673.394501011 323.932751412 717.5 c 1
 301.557192322 717.5 l 1
 301.623972548 711.019220027 301.658163265 704.611988887 301.658163265 698.278061224 c 0
 301.658163265 620.860238627 296.627488769 554.399212922 283.199031507 498.44730766 c 0
 267.877283963 434.606692894 230.663596517 384.815251108 176.25 351.086371642 c 1
 176.25 -117.5 l 1
554.221275 445 m 1
 695.778725 445 l 1
 738.75 402.028725 l 1
 738.75 72.971275 l 1
 695.778725 30 l 1
 554.221275 30 l 1
 511.25 72.971275 l 1
 511.25 402.028725 l 1
 554.221275 445 l 1
613.75 132.5 m 1
 636.25 132.5 l 1
 636.25 342.5 l 1
 613.75 342.5 l 1
 613.75 132.5 l 1
EndSplineSet
EndChar

StartChar: uniF01F
Encoding: 61471 61471 25
Width: 1000
LayerCount: 2
Fore
SplineSet
487.695469421 580.940455531 m 0
 493.849466076 580.940455531 500.112692393 580.836591247 506.764751859 580.618490936 c 0
 556.38012351 579.362405578 578.444380679 575.241568529 610.3460289 560.619979761 c 0
 632.211159233 550.370699918 657.945202722 535.057296585 671.00524957 524.045884536 c 0
 706.192634763 494.378089177 741.171631022 444.314725762 754.056465798 402.338340767 c 1
 760.669246054 382.5 l 1
 857.5 382.5 l 2
 868.569089236 382.5 878.529636413 382.511865764 887.532050635 382.511865764 c 0
 928.634537238 382.511865764 949.763992358 382.264514626 965.235748535 379.511141161 c 0
 972.010487555 378.305499963 978.203625842 376.374944828 983.726977273 373.260644248 c 0
 990.462584579 369.462822219 994.849619309 364.844746947 998.443894876 361.094215054 c 0
 1005.67423838 354.242856743 1010.88673979 346.068871675 1014.61854339 337.762242248 c 0
 1017.66830937 330.973757145 1020 324.004607787 1020 315.625 c 0
 1020 307.245392213 1017.66830937 300.276242855 1014.61854339 293.487757752 c 0
 1010.88674221 285.181128005 1005.67424193 277.00714429 998.443898526 270.15578858 c 0
 994.849624072 266.405254286 990.462588652 261.787177174 983.726977273 257.989355752 c 0
 978.203625842 254.875055172 972.010487555 252.944500037 965.235748535 251.738858839 c 0
 949.763992358 248.985485374 928.634537238 248.738134236 887.532050635 248.738134236 c 0
 878.529636413 248.738134236 868.569089236 248.75 857.5 248.75 c 2
 760.714745798 248.75 l 1
 757.315711512 236.854357436 l 2
 736.832220601 167.21048834 683.129191026 105.640995469 614.934819078 73.2317889991 c 0
 598.096300766 65.093171815 585.570922465 59.5111920124 570.878726162 56.2001007404 c 0
 552.489756858 52.055890133 533.67321722 51.875 500 51.875 c 0
 466.32678278 51.875 447.510243142 52.055890133 429.121273838 56.2001007404 c 0
 414.429077535 59.5111920124 401.946533515 65.0725316061 385.108015203 73.2111487901 c 0
 316.420552208 106.208067288 263.116742206 167.386126614 242.641479938 237.002018326 c 2
 239.284913746 248.75 l 1
 142.5 248.75 l 2
 131.430910764 248.75 121.470363587 248.738134236 112.467949365 248.738134236 c 0
 71.365462762 248.738134236 50.2360076424 248.985485374 34.7642514651 251.738858839 c 0
 27.9895124455 252.944500037 21.796374158 254.875055172 16.2730227265 257.989355752 c 0
 9.53741542065 261.787177781 5.15038069076 266.405253053 1.5561051237 270.155784946 c 0
 -5.6742383799 277.007143257 -10.8867397875 285.181128325 -14.6185433938 293.487757752 c 0
 -17.6683093669 300.276242855 -20 307.245392213 -20 315.625 c 0
 -20 324.004607787 -17.6683093669 330.973757145 -14.6185433938 337.762242248 c 0
 -10.8867422083 346.068871995 -5.67424192717 354.24285571 1.5561014737 361.09421142 c 0
 5.15037592786 364.844745714 9.53741134767 369.462822826 16.2730227265 373.260644248 c 0
 21.796374158 376.374944828 27.9895124455 378.305499963 34.7642514651 379.511141161 c 0
 50.2360076424 382.264514626 71.365462762 382.511865764 112.467949365 382.511865764 c 0
 121.470363587 382.511865764 131.430910764 382.5 142.5 382.5 c 2
 239.188164934 382.5 l 1
 240.357796809 386.691180883 241.461821 390.912134008 242.70189298 395.080153718 c 0
 267.128074591 477.179264132 328.181222236 538.133375674 417.097689978 572.382681767 c 0
 433.916900568 578.964111998 457.418169568 580.940455531 487.695469421 580.940455531 c 0
499.140625 448.125 m 0
 477.224926551 448.125 455.256865823 444.65870642 445.459488348 440.398977084 c 0
 422.639561395 430.256787327 392.921251003 402.088697272 378.235516479 374.8928926 c 0
 371.247029569 361.847717034 366.5625 338.886597808 366.5625 315.625 c 0
 366.5625 292.363402192 371.278461362 269.34384384 378.266948272 256.298668274 c 0
 405.162369358 206.430075011 444.430867757 182.5 500 182.5 c 0
 541.831037494 182.5 566.332854094 192.811069091 591.258009371 216.400948192 c 0
 605.611666468 229.985659373 614.936892215 242.183972022 621.183165976 255.144990076 c 0
 628.964637093 271.291542644 632.5 289.667281568 632.5 315.625 c 0
 632.5 347.097958484 629.83182134 359.766065975 621.715627583 374.98392927 c 0
 606.750956542 403.250530124 577.237615603 430.208061652 553.433096591 440.337644211 c 0
 543.194138638 444.694647595 521.051181389 448.125 499.140625 448.125 c 0
EndSplineSet
EndChar

StartChar: uniF020
Encoding: 61472 61472 26
Width: 1000
LayerCount: 2
Fore
SplineSet
650.605148675 389.95754493 m 0
 661.220228629 397.932904259 667.578125 420.554374826 667.578125 440.625 c 0
 667.578125 444.963974018 667.384064731 448.489954489 667.161981772 451.08648713 c 0
 662.044296015 453.464681906 657.899070201 456.033473727 653.125634212 459.481407048 c 0
 644.322236654 465.840249577 634.325965119 474.612022979 624.554083265 484.745423389 c 0
 592.156698119 517.193905748 574.546016554 553.307280444 574.546016291 594.102793988 c 0
 574.546016291 612.927166806 578.177178518 632.145450206 584.87291442 652.016666431 c 0
 593.911218762 678.796827443 612.482801301 702.195487542 635.122774956 720.181411274 c 0
 663.377129059 742.627579531 698.885090553 757.5 734.453125 757.5 c 0
 772.378364687 757.5 808.023017953 741.714785778 835.994792477 717.549638421 c 0
 870.88749255 687.405421498 895.078125 643.197019999 895.078125 595.625 c 0
 895.078125 570.597779779 886.976026139 545.245463135 874.40991106 522.332128297 c 0
 858.731523124 493.743805635 835.487559898 468.05179712 808.034914136 453.493575883 c 0
 804.475896255 451.642886585 802.938254403 450.581313367 802.368919562 450.144476545 c 0
 802.050195269 448.757901103 801.328125231 443.080796031 801.328125 432.5 c 0
 801.328125 382.607399081 782.75758975 335.01254558 748.572872578 301.465008349 c 0
 729.213261622 281.835586728 710.296144488 267.123809792 681.392516969 259.283118817 c 0
 645.780818488 249.622732053 597.508176532 248.75 505.703125 248.75 c 0
 451.748595769 248.75 412.465220566 247.969055751 386.869784667 246.469811214 c 0
 365.748239341 245.232623398 355.104361018 242.983549568 355.104361018 242.983549568 c 1
 342.558066759 237.370733716 332.578125 223.291113212 332.578125 178.75 c 0
 332.578125 159.708685481 333.702786069 151.516811189 334.013717492 149.615880235 c 0
 334.813061419 149.077697549 336.585800655 147.967660072 339.389673537 146.452515126 c 0
 361.911595052 134.813963767 381.158663531 116.095447429 395.906228024 94.4440364864 c 0
 414.361141104 67.3497379315 426.328125 34.9996940021 426.328125 3.125 c 0
 426.328125 -82.6140968339 351.442221834 -157.5 265.703125 -157.5 c 0
 179.964028166 -157.5 105.078125 -82.6140968339 105.078125 3.125 c 0
 105.078125 34.9996940021 117.045108896 67.3497379315 135.500021976 94.4440364864 c 0
 150.25333435 116.103886544 169.509658987 134.828555047 192.04291228 146.466120891 c 2
 198.828125 150.101056276 l 1
 198.828125 450.370597861 l 1
 186.947175427 458.058271115 l 1
 133.974699874 490.506531562 104.921882697 542.655498311 104.921882697 596.472582418 c 0
 104.921882697 635.137010418 120.030826646 673.961267969 150.013916835 705.708069345 c 0
 166.694189634 723.113571397 190.104059633 740.101420213 208.969562706 746.961603149 c 0
 228.329195444 753.781473772 247.58748057 757.318239796 266.573472124 757.318239796 c 0
 307.80039727 757.318239796 345.916835587 740.416160654 377.3424875 708.5143625 c 0
 408.921771746 676.935078254 426.097244438 640.233633934 426.097244438 598.807462861 c 0
 426.097244438 582.576947107 423.567780821 566.059319811 418.719814043 548.994476751 c 0
 414.20716297 532.824143741 404.183182734 516.463802029 392.075119889 500.908617203 c 0
 376.966707455 481.498894042 358.325694904 463.235840734 339.0029659 453.349793337 c 0
 336.590104398 452.143362586 334.949826708 451.218489026 334.067421975 450.698323256 c 0
 333.316889304 446.990188107 332.578125 432.912495739 332.578125 405.625 c 0
 332.578125 392.637404055 332.667535008 382.71315577 332.924817936 375.56052807 c 1
 397.977164567 382.407314734 604.632364957 382.817975533 650.563599289 389.951106439 c 0
 650.577543347 389.951106439 650.591393378 389.95754493 650.605148675 389.95754493 c 0
265.703125 570 m 0
 267.524519415 570 274.201910999 572.192765627 280.522857501 577.764282544 c 0
 288.606390438 584.889408582 292.578125 594.328149655 292.578125 596.875 c 0
 292.578125 602.539295904 284.881561082 611.738489094 282.296222537 614.522699835 c 0
 278.529089278 618.579612575 268.959538366 623.092990635 265.703125 623.75 c 0
 259.806116177 623.13090108 251.198500185 616.386667198 248.055425165 613.468097537 c 0
 243.998512425 609.700964278 239.485134365 600.131413366 238.828125 596.875 c 0
 238.828125 595.053605585 241.020890627 588.376214001 246.592407544 582.055267499 c 0
 253.717533582 573.971734562 263.156274655 570 265.703125 570 c 0
751.046222537 614.522699835 m 0
 747.279089278 618.579612575 737.709538366 623.092990635 734.453125 623.75 c 0
 728.556116177 623.13090108 719.948500185 616.386667198 716.805425165 613.468097537 c 0
 712.748512425 609.700964278 708.235134365 600.131413366 707.578125 596.875 c 0
 707.578125 594.328149655 711.549859562 584.889408582 719.633392499 577.764282544 c 0
 725.954339001 572.192765627 732.631730585 570 734.453125 570 c 0
 740.117420904 570 749.316614094 577.696563918 752.100824835 580.281902463 c 0
 756.157737575 584.049035722 760.671115635 593.618586634 761.328125 596.875 c 0
 760.691488776 602.939054242 754.021147864 611.318934098 751.046222537 614.522699835 c 0
282.296222537 20.772699835 m 0
 278.529089278 24.8296125749 268.959538366 29.3429906347 265.703125 30 c 0
 259.806116177 29.3809010802 251.198500185 22.6366671982 248.055425165 19.7180975369 c 0
 243.998512425 15.9509642784 239.485134365 6.38141336565 238.828125 3.125 c 0
 238.828125 0.578149654549 242.799859562 -8.86059141828 250.883392499 -15.9857174559 c 0
 257.204339001 -21.557234373 263.881730585 -23.75 265.703125 -23.75 c 0
 271.367420904 -23.75 280.566614094 -16.053436082 283.350824835 -13.4680975369 c 0
 287.407737575 -9.70096427837 291.921115635 -0.131413365646 292.578125 3.125 c 0
 291.941488776 9.18905424193 285.271147864 17.5689340977 282.296222537 20.772699835 c 0
EndSplineSet
EndChar

StartChar: uniF023
Encoding: 61475 61475 27
Width: 1000
LayerCount: 2
Fore
SplineSet
235.245347124 757.318239796 m 0
 276.431813162 757.318239796 314.620405272 740.342004334 346.02854235 708.500717323 c 0
 378.394492764 676.450187723 395.431135501 636.721434598 395.431135968 596.278106155 c 0
 395.431135968 557.870491176 380.20346834 521.132766717 351.527564029 489.515857105 c 0
 342.906029245 480.010113403 338.39628772 474.429282656 336.452563087 471.916658033 c 0
 343.874010205 455.783024951 355.462488056 441.13056498 374.367367778 423.717594121 c 0
 394.894203902 404.810666148 420.76127175 386.808846839 445.38555994 374.976396669 c 0
 464.695574659 365.873104016 475.649088083 361.276032371 487.19560335 358.488644904 c 0
 501.592654078 355.01312369 519.675715535 353.878739786 557.569332307 352.488148345 c 2
 618.043878942 350.420642477 l 1
 621.631182902 357.355992942 l 2
 633.482830893 380.071651591 652.213754591 399.542933895 673.944583672 414.437829975 c 0
 701.063903733 433.026143037 733.448429321 445 765.625 445 c 0
 851.364096834 445 926.25 370.114096834 926.25 284.375 c 0
 926.25 198.635903166 851.364096834 123.75 765.625 123.75 c 0
 733.750305998 123.75 701.400262068 135.716983896 674.305963514 154.171896976 c 0
 652.663013543 168.913698085 633.463283604 188.348178566 622.099793337 211.0751591 c 0
 620.907522752 213.459700271 620.036115701 215.02971361 619.534381071 215.896951225 c 0
 615.423168437 216.787904271 599.921628977 217.5 569.375 217.5 c 0
 462.431007575 217.5 375.983304453 246.653826776 301.25 307.799257692 c 1
 301.25 150.101056276 l 1
 308.013883515 146.47754725 l 2
 323.988776617 138.269037848 338.935914673 124.841590355 352.170937247 109.681064922 c 0
 368.752032523 90.687661983 382.845156032 68.8374157499 388.703842589 47.6525710559 c 0
 392.493174711 33.4215237554 394.301152771 19.2312334028 394.301152771 5.33032955125 c 0
 394.301152771 -83.4120732058 320.912073206 -156.801152771 232.169670449 -156.801152771 c 0
 218.268766597 -156.801152771 204.078476245 -154.993174711 189.676400884 -151.157483511 c 0
 160.74055111 -143.175180126 135.036062241 -124.60196237 115.17454543 -101.297782646 c 0
 90.394496768 -72.2225255493 73.75 -34.8050770513 73.75 3.125 c 0
 73.75 34.9996940021 85.7169838964 67.3497379315 104.171896976 94.4440364864 c 0
 118.92520935 116.103886544 138.181533987 134.828555047 160.71478728 146.466120891 c 2
 167.5 150.101056276 l 1
 167.5 449.898943724 l 1
 160.71478728 453.533879109 l 2
 138.181533987 465.171444953 118.92520935 483.896113456 104.171896976 505.555963514 c 0
 85.7169838964 532.650262068 73.75 565.000305998 73.75 596.875 c 0
 73.75 632.359925576 88.3716979729 667.822966123 110.486882269 696.17257182 c 0
 128.205485593 718.886170361 151.296009785 737.623779727 177.73570641 746.994811442 c 0
 197.001070444 753.781473772 216.25935557 757.318239796 235.245347124 757.318239796 c 0
234.375 570 m 0
 236.921850345 570 246.360591418 573.971734562 253.485717456 582.055267499 c 0
 259.057234373 588.376214001 261.25 595.053605585 261.25 596.875 c 0
 261.25 602.539295904 253.553436082 611.738489094 250.968097537 614.522699835 c 0
 247.200964278 618.579612575 237.631413366 623.092990635 234.375 623.75 c 0
 228.477991177 623.13090108 219.870375185 616.386667198 216.727300165 613.468097537 c 0
 212.670387425 609.700964278 208.157009365 600.131413366 207.5 596.875 c 0
 207.5 595.053605585 209.692765627 588.376214001 215.264282544 582.055267499 c 0
 222.389408582 573.971734562 231.828149655 570 234.375 570 c 0
792.5 284.375 m 0
 792.5 290.039295904 784.803436082 299.238489094 782.218097537 302.022699835 c 0
 778.450964278 306.079612575 768.881413366 310.592990635 765.625 311.25 c 0
 759.727991177 310.63090108 751.120375185 303.886667198 747.977300165 300.968097537 c 0
 743.920387425 297.200964278 739.407009365 287.631413366 738.75 284.375 c 0
 739.36909892 278.477991177 746.113332802 269.870375185 749.031902463 266.727300165 c 0
 752.799035722 262.670387425 762.368586634 258.157009365 765.625 257.5 c 0
 768.171850345 257.5 777.610591418 261.471734562 784.735717456 269.555267499 c 0
 790.307234373 275.876214001 792.5 282.553605585 792.5 284.375 c 0
250.968097537 20.772699835 m 0
 247.200964278 24.8296125749 237.631413366 29.3429906347 234.375 30 c 0
 228.477991177 29.3809010802 219.870375185 22.6366671982 216.727300165 19.7180975369 c 0
 212.670387425 15.9509642784 208.157009365 6.38141336565 207.5 3.125 c 0
 207.5 0.578149654549 211.471734562 -8.86059141828 219.555267499 -15.9857174559 c 0
 225.876214001 -21.557234373 232.553605585 -23.75 234.375 -23.75 c 0
 240.039295904 -23.75 249.238489094 -16.053436082 252.022699835 -13.4680975369 c 0
 256.079612575 -9.70096427837 260.592990635 -0.131413365646 261.25 3.125 c 0
 260.613363776 9.18905424193 253.943022864 17.5689340977 250.968097537 20.772699835 c 0
EndSplineSet
EndChar

StartChar: uniF024
Encoding: 61476 61476 28
Width: 1000
LayerCount: 2
Fore
SplineSet
500 757.5 m 0
 543.410080086 757.5 567.303510303 715.348956334 567.303510303 675.676973611 c 0
 567.303510303 665.664733244 565.940562808 655.477513086 563.009661258 645.219357661 c 0
 553.850360181 612.564458171 528.283216069 592.1875 500 592.1875 c 0
 471.755266266 592.1875 446.219218505 612.50904584 437.027817572 645.086134756 c 0
 434.06277939 655.170816409 432.699977118 665.542658387 432.699977118 675.770228841 c 0
 432.699977118 699.671583976 439.795045321 724.378779501 457.179389708 740.425866627 c 0
 463.866474687 746.50503479 471.533958145 750.430613283 479.483437987 753.370676951 c 0
 485.859961014 755.728992722 492.402596492 757.5 500 757.5 c 0
-20 9.60603474034 m 1
 -20 590.39396526 l 1
 -12.7871183316 597.318331661 -5.57423666326 604.242698063 1.63864500511 611.167064465 c 0
 13.3727567086 622.854317022 27.7538421942 631.789113532 45.1697899742 631.789113532 c 0
 66.8393172377 631.789113532 86.2601585621 619.161965189 106.033916047 600.970108303 c 0
 132.315015435 576.791496866 211.520942808 502.169283417 278.326915971 438.608110492 c 0
 331.403042648 388.109918397 373.8490926 348.115795219 382.263093336 337.775234408 c 0
 386.848606137 332.401910984 389.050497442 327.001515202 390.812893678 321.625031744 c 0
 393.080562094 314.707131296 394.375 307.485850791 394.375 300 c 0
 394.375 292.514149209 393.080562094 285.292868704 390.812893678 278.374968256 c 0
 389.050497441 272.998484801 386.848606136 267.59808902 382.26309334 262.224765596 c 0
 373.84909261 251.884204793 331.403042654 211.890081611 278.326915971 161.391889508 c 0
 211.433587062 97.7476037499 132.291793257 23.18713873 105.915425619 -1.07911949672 c 0
 85.7329648929 -19.0598572344 67.0999273037 -31.7891135318 45.1697899742 -31.7891135318 c 0
 27.7538421942 -31.7891135318 13.3727567086 -22.8543170221 1.63864500511 -11.1670644646 c 0
 -5.57423666326 -4.24269806293 -12.7871183316 2.68166833871 -20 9.60603474034 c 1
113.75 188.951062694 m 1
 146.800552991 220.221970524 204.654356091 275.088745645 229.171805495 300.000089085 c 1
 204.767184494 324.797083913 146.653866338 379.916826885 113.75 411.048941998 c 1
 113.75 188.951062694 l 1
955.339435274 632.062927364 m 0
 972.796789823 632.062927364 986.940647839 622.827619131 998.453794569 611.078322473 c 0
 1005.63586305 604.183536736 1012.81793152 597.288750998 1020 590.39396526 c 1
 1020 9.60603474034 l 1
 1012.81794624 2.71126313447 1005.63589249 -4.1835084714 998.453838732 -11.0782800773 c 0
 987.000800763 -22.7664909242 972.912441509 -32.015728821 955.478759122 -32.015728821 c 0
 932.200463501 -32.015728821 912.993039154 -17.5261089423 890.860986588 2.76160590986 c 0
 829.838101975 58.7516752973 634.106873379 243.477322599 618.069626211 261.839743001 c 0
 613.261915437 267.344503605 610.99160222 272.87005277 609.187106322 278.374968256 c 0
 606.919437906 285.292868704 605.625 292.514149209 605.625 300 c 0
 605.625 307.485850791 606.919437906 314.707131296 609.187106322 321.625031744 c 0
 610.979361275 327.092604189 613.230049264 332.584906074 617.97595336 338.0483172 c 0
 633.314658141 355.782834239 829.851108129 541.256716433 890.890531959 597.891233388 c 0
 912.973692951 617.766078281 932.180565827 632.062927364 955.339435274 632.062927364 c 0
885.46875 300 m 0
 885.46875 342.365983028 885.115331544 372.523169999 884.226479439 408.966106313 c 1
 845.865967843 372.79443201 807.726720889 336.401493066 769.596006791 300.000021265 c 1
 807.728440848 263.600226276 845.863971972 227.203528354 884.226477266 191.033804602 c 1
 885.116099218 227.508304631 885.46875 257.585600716 885.46875 300 c 0
500 570 m 0
 543.410080086 570 567.303510303 527.848956334 567.303510303 488.176973611 c 0
 567.303510303 478.164733244 565.940562808 467.977513086 563.009661258 457.719357661 c 0
 553.850360181 425.064458171 528.283216069 404.6875 500 404.6875 c 0
 471.755266266 404.6875 446.219218505 425.00904584 437.027817572 457.586134756 c 0
 434.06277939 467.670816409 432.699977118 478.042658387 432.699977118 488.270228841 c 0
 432.699977118 512.171583976 439.795045321 536.878779501 457.179389708 552.925866627 c 0
 463.866474687 559.00503479 471.533958145 562.930613283 479.483437987 565.870676951 c 0
 485.859961014 568.228992722 492.402596492 570 500 570 c 0
500 382.5 m 0
 543.410080086 382.5 567.303510303 340.348956334 567.303510303 300.676973611 c 0
 567.303510303 290.664733244 565.940562808 280.477513086 563.009661258 270.219357661 c 0
 553.850360181 237.564458171 528.283216069 217.1875 500 217.1875 c 0
 471.755266266 217.1875 446.219218505 237.50904584 437.027817572 270.086134756 c 0
 434.06277939 280.170816409 432.699977118 290.542658387 432.699977118 300.770228841 c 0
 432.699977118 324.671583976 439.795045321 349.378779501 457.179389708 365.425866627 c 0
 463.866474687 371.50503479 471.533958145 375.430613283 479.483437987 378.370676951 c 0
 485.859961014 380.728992722 492.402596492 382.5 500 382.5 c 0
500 195 m 0
 543.410080086 195 567.303510303 152.848956334 567.303510303 113.176973611 c 0
 567.303510303 103.164733244 565.940562808 92.9775130855 563.009661258 82.7193576608 c 0
 553.850360181 50.0644581709 528.283216069 29.6875 500 29.6875 c 0
 471.755266266 29.6875 446.219218504 50.0090458404 437.027817572 82.586134756 c 0
 434.06277939 92.6708164092 432.699977118 103.042658387 432.699977118 113.270228841 c 0
 432.699977118 137.171583976 439.795045321 161.878779501 457.179389708 177.925866627 c 0
 463.866474687 184.00503479 471.533958145 187.930613283 479.483437987 190.870676951 c 0
 485.859961014 193.228992722 492.402596492 195 500 195 c 0
499.392802356 8.04418178916 m 0
 512.795024003 8.04418178916 525.108626088 3.21760631096 535.188141468 -4.40354499884 c 0
 555.29545541 -19.6067443809 567.310353031 -45.6531304336 567.310353031 -74.7265532768 c 0
 567.310353031 -84.5364830626 565.965571497 -94.5405247254 563.009661258 -104.780642339 c 0
 553.850360181 -137.435541829 528.283216069 -157.8125 500 -157.8125 c 0
 471.755266266 -157.8125 446.219218504 -137.49095416 437.027817572 -104.913865244 c 0
 434.06277939 -94.8291835908 432.699977118 -84.4573416129 432.699977118 -74.2297711586 c 0
 432.699977118 -50.3284160237 439.691705852 -25.7158239282 457.076050238 -9.66873680229 c 0
 469.508956706 1.79284884789 484.328103796 8.04418178916 499.392802356 8.04418178916 c 0
EndSplineSet
EndChar

StartChar: uniF026
Encoding: 61478 61478 29
Width: 1000
LayerCount: 2
Fore
SplineSet
481.673676646 817.303964307 m 0
 532.910257 817.303964307 592.306656015 813.234969843 623.708260971 804.922780295 c 0
 758.472077528 768.169012144 862.527454302 693.790113786 935.187647227 581.556065786 c 0
 992.649281329 493.749523788 1016.56542969 411.730790827 1016.56542969 300 c 0
 1016.56542969 154.595461289 966.827710774 32.6085560862 866.954792187 -67.2643625 c 0
 767.081873601 -167.137281086 645.094968398 -216.875 499.690429688 -216.875 c 0
 354.285890977 -216.875 232.252951329 -167.091097422 132.380032743 -67.2181788353 c 0
 33.2416612518 32.5639483145 -16.5656578037 153.029146096 -16.5656578037 297.263827893 c 0
 -16.5656578037 298.205117017 -16.5637624149 299.056776952 -16.5595703125 300 c 0
 -16.5595703125 416.081264622 7.96200597506 500.741503257 70.6245680377 591.828320276 c 0
 148.684245363 706.966344331 268.563317097 784.949616833 411.48977022 812.758836219 c 0
 428.895476199 816.136062752 453.720224445 817.303964307 481.673676646 817.303964307 c 0
498.426466003 685.967729614 m 0
 399.065189925 685.967729614 305.779520917 646.714089785 229.410613364 570.816595241 c 0
 189.344674723 531.367055656 175.716842662 512.932860175 155.768688629 472.432062591 c 0
 127.551224855 414.496206121 113.752929688 356.992254447 113.752929688 299.765625 c 0
 113.752929688 242.539330123 127.587404736 185.12983712 155.789593478 127.525366499 c 0
 204.782690424 27.7683377768 310.809803922 -54.8669344569 419.375159014 -77.2880403999 c 0
 446.470194929 -83.0410959708 473.12009417 -85.9030814958 499.323806762 -85.9030814958 c 0
 557.351139123 -85.9030814958 614.243205377 -72.0342017954 672.221040095 -43.8735392182 c 0
 742.317620884 -9.11977227201 808.881544482 57.5181842924 843.635311428 127.614765082 c 0
 871.858760248 185.56291 885.627929688 242.857593792 885.627929688 300 c 0
 885.627929688 357.142406208 871.796806912 414.563161282 843.573358092 472.5113062 c 0
 794.580261145 572.268334922 688.571055453 654.866934457 580.005700361 677.2880404 c 0
 552.461329096 683.100155437 525.139587273 685.967729614 498.426466003 685.967729614 c 0
499.690429687 569.21875 m 0
 513.023489234 569.21875 527.161969268 565.89804718 538.636794004 557.193007725 c 0
 551.879340533 547.146937945 559.247966536 531.725739796 563.271955281 511.802182124 c 0
 568.351904414 486.650357424 569.690429688 451.096573546 569.690429688 393.75 c 0
 569.690429688 336.364295544 568.237429855 298.579613109 561.892169228 271.545504558 c 0
 558.386590734 256.609917966 553.133820324 243.895006051 543.581366774 234.142754051 c 0
 531.226726907 221.5297054 514.933461304 218.125 499.690429688 218.125 c 0
 484.447398071 218.125 468.154132468 221.5297054 455.799492601 234.142754051 c 0
 446.247039051 243.895006051 440.994268641 256.609917966 437.488690147 271.545504558 c 0
 431.14342952 298.579613109 429.690429688 336.364295544 429.690429688 393.75 c 0
 429.690429688 451.096573546 431.028954961 486.650357424 436.108904094 511.802182124 c 0
 440.134543224 531.733911175 447.54063428 547.435898455 460.944935178 557.343425206 c 0
 472.548174485 565.91973252 486.360032083 569.21875 499.690429687 569.21875 c 0
499.000804864 194.134837993 m 0
 541.994947973 194.134837993 582.190429688 159.728075182 582.190429688 111.875 c 0
 582.190429688 92.1123688164 573.856151034 74.1354555064 561.753283645 60.1404251316 c 0
 546.695805375 42.7288598409 524.543109492 30 499.690429688 30 c 0
 448.844517384 30 418.510924171 73.4386775424 418.510924171 114.163301259 c 0
 418.510924171 140.672506015 431.273375162 168.241640625 459.306580623 183.708236742 c 0
 471.990570863 190.818958543 485.636664456 194.134837993 499.000804864 194.134837993 c 0
EndSplineSet
EndChar

StartChar: uniF027
Encoding: 61479 61479 30
Width: 1000
LayerCount: 2
Fore
SplineSet
491.720075015 819.655662454 m 0
 581.127130567 819.655662454 677.601983066 796.491060102 752.901056114 754.323579195 c 0
 889.567601119 677.529996763 984.947759702 541.0293176 1012.8203444 382.868604416 c 0
 1014.7772922 371.779233581 1015.8248983 361.46911569 1015.8248983 351.763824713 c 0
 1015.8248983 333.772537923 1012.25858168 317.264763053 1002.35624992 303.989879119 c 0
 989.573077276 286.852992849 969.215768615 280 947.5 280 c 0
 919.70381773 280 902.966542422 301.130575454 893.550534084 322.041992643 c 0
 887.203505642 336.137706548 881.981499168 353.4431408 877.878278162 374.237430307 c 0
 842.863173918 551.686856898 679.614741955 686.25 500 686.25 c 0
 404.186480303 686.25 307.620666746 647.030752179 235.028839236 578.009014546 c 0
 220.260458728 563.961042844 209.393085307 553.204960482 199.296434374 541.472706295 c 1
 206.221205622 533.017773684 217.960282632 519.773395496 230.685045049 506.337964588 c 0
 244.277845011 492.337864805 255.084974863 481.318691566 262.972746396 471.331208971 c 0
 266.507844669 466.855071364 269.55749108 462.543109383 271.976869898 457.49063265 c 0
 273.890974039 453.493339396 275.629690521 448.722683039 275.629690521 442.608972136 c 0
 275.629690521 432.958928329 269.862657702 424.106803041 263.129844104 419.473410376 c 0
 257.443164315 415.559946853 251.821350743 413.885979457 245.960270242 412.582610074 c 0
 238.581154228 410.941664538 230.288619198 410.059674232 220.254358805 409.435580461 c 0
 199.658055893 408.15456683 171.613380942 408.125 133.711368733 408.125 c 2
 -16.875 408.125 l 1
 -16.875 558.721406217 l 2
 -16.875 596.716976249 -16.8456586078 624.761624702 -15.5735081187 645.325883079 c 0
 -14.9537441742 655.344340799 -14.0782267364 663.613403613 -12.4474602915 670.97024068 c 0
 -11.1522429286 676.81332332 -9.48969726577 682.418837899 -5.58680264074 688.097394594 c 0
 -0.962964034395 694.824896153 7.88362334072 700.582965227 17.5101776657 700.582965227 c 0
 23.4394818357 700.582965227 28.0907863348 698.938873882 31.9915195892 697.114709749 c 0
 36.9176204743 694.811036065 41.1029598005 691.908971491 45.4151287996 688.565951701 c 0
 55.0565372057 681.091425745 65.5144565252 670.969541772 78.7934217575 658.227100387 c 2
 103.142398955 635.019481496 l 1
 111.441223355 645.214916972 l 2
 177.228801537 724.95743598 297.519036213 791.331482883 412.008901331 812.798332593 c 0
 437.41839619 817.44641092 464.2454668 819.655662454 491.720075015 819.655662454 c 0
500 569.21875 m 0
 513.333059547 569.21875 527.47153958 565.89804718 538.946364316 557.193007725 c 0
 552.188910846 547.146937945 559.557536849 531.725739796 563.581525594 511.802182124 c 0
 568.661474726 486.650357424 570 451.096573546 570 393.75 c 0
 570 336.364295544 568.547000168 298.579613109 562.20173954 271.545504558 c 0
 558.696161046 256.609917966 553.443390636 243.895006051 543.890937087 234.142754051 c 0
 531.536297219 221.5297054 515.243031616 218.125 500 218.125 c 0
 484.756968384 218.125 468.463702781 221.5297054 456.109062913 234.142754051 c 0
 446.556609364 243.895006051 441.303838954 256.609917966 437.79826046 271.545504558 c 0
 431.452999832 298.579613109 430 336.364295544 430 393.75 c 0
 430 451.096573546 431.338525274 486.650357424 436.418474406 511.802182124 c 0
 440.444113536 531.733911175 447.850204593 547.435898455 461.254505491 557.343425206 c 0
 472.857744798 565.91973252 486.669602396 569.21875 500 569.21875 c 0
47.361030309 320.197990732 m 0
 91.0024816916 320.197990732 112.051850425 278.126866709 122.131639594 225.71196303 c 0
 156.53154088 48.9676426291 320.384950826 -86.25 500 -86.25 c 0
 595.813519697 -86.25 692.379333254 -47.0307521789 764.971160764 21.9909854536 c 0
 779.927505488 36.2177523855 790.840958851 47.1537987445 801.08304795 59.385478163 c 1
 794.442707779 68.0054851568 782.826678657 81.667136501 770.046951815 94.8018557556 c 0
 757.006794681 108.194449568 745.729471389 121.463294107 737.770503981 132.547154343 c 0
 734.207957561 137.508447005 731.29579901 141.983746471 728.993203418 146.529391242 c 0
 727.200675223 150.06809185 724.937005178 153.650782637 724.937005178 161.244606505 c 0
 724.937005178 170.516773954 730.178805647 178.386483306 737.239390499 182.884512818 c 0
 742.149422998 186.01250739 746.734314649 187.227488056 751.491074664 188.181353792 c 0
 757.492428042 189.384795914 764.336559021 190.043577129 773.438904023 190.553832131 c 0
 793.013298781 191.651124406 823.159572879 191.875 871.875 191.875 c 2
 1016.875 191.875 l 1
 1016.875 46.875 l 2
 1016.875 5.92097926292 1016.86054366 -23.9176960255 1015.48705656 -45.499766547 c 0
 1014.84888524 -55.5275699361 1013.95569317 -63.798414427 1012.31767912 -71.1442578144 c 0
 1011.01628856 -76.9804783693 1009.35462702 -82.560688584 1005.48137358 -88.2171019425 c 0
 1000.90292538 -94.9033660909 992.096834003 -100.728716757 982.420340727 -100.728716757 c 0
 976.497909135 -100.728716757 971.857506436 -99.0747079271 967.988990845 -97.2479610842 c 0
 963.10250138 -94.9405180886 958.982611674 -92.0451336578 954.75812167 -88.7239324374 c 0
 945.313591584 -81.2988503996 935.073042579 -71.2081987355 922.226939779 -58.6297230768 c 2
 897.837117233 -34.6332847661 l 1
 872.455580146 -60.8205433838 l 2
 772.013695033 -164.014260966 641.554158279 -218.540849317 503.74766676 -218.540849317 c 0
 446.638787135 -218.540849317 388.411463557 -209.198822444 330.637290348 -190.256470573 c 0
 153.83904734 -132.193578958 20.8960313628 25.8566861897 -12.8072785237 217.058155738 c 0
 -14.6845153328 227.468287134 -15.6355230527 237.457698893 -15.6355230527 246.946773833 c 0
 -15.6355230527 274.342948457 -7.73059346714 303.576890488 18.7826133951 314.182173233 c 0
 28.1531933794 317.960632904 37.6541135721 320.197990732 47.361030309 320.197990732 c 0
499.310375177 194.134837993 m 0
 542.304518286 194.134837993 582.5 159.728075182 582.5 111.875 c 0
 582.5 92.1123688164 574.165721347 74.1354555064 562.062853957 60.1404251316 c 0
 547.005375687 42.7288598409 524.852679805 30 500 30 c 0
 449.154087697 30 418.820494483 73.4386775424 418.820494483 114.163301259 c 0
 418.820494483 140.672506015 431.582945474 168.241640625 459.616150935 183.708236742 c 0
 472.300141176 190.818958543 485.946234769 194.134837993 499.310375177 194.134837993 c 0
EndSplineSet
EndChar

StartChar: uniF028
Encoding: 61480 61480 31
Width: 1000
LayerCount: 2
Fore
SplineSet
494.34425552 819.004011643 m 0
 588.299341288 819.004011643 687.510902762 794.038388009 764.2880012 747.775264591 c 0
 795.788313744 728.823857044 818.807475842 712.095022526 834.332769274 694.830216924 c 0
 846.629254963 681.15598681 855.096630752 665.907785295 855.096630752 648.614397982 c 0
 855.096630752 633.373728264 848.268495218 619.945210655 838.520953114 608.818988475 c 0
 826.493036235 594.665803646 810.478217429 584.617712817 791.191523776 584.617712548 c 0
 770.228807054 584.617712548 750.613578136 594.896176949 728.612266832 610.611399309 c 0
 660.186992269 659.679523832 579.948876739 685.541166673 498.852794606 685.541166673 c 0
 472.590386168 685.541166673 446.102183748 682.812486941 419.933752764 677.2880404 c 0
 311.368397672 654.866934457 205.35919198 572.268334922 156.366095033 472.5113062 c 0
 128.142646213 414.563161282 114.311523438 357.142406208 114.311523438 300 c 0
 114.311523438 242.857593792 128.117166347 185.48896086 156.340615167 127.540815942 c 0
 218.460949747 0.933657845614 358.699858466 -86.25 500.249023438 -86.25 c 0
 660.80676182 -86.25 804.91912611 16.788599324 865.939432339 176.518224451 c 0
 877.497824164 206.698469773 888.205108216 226.340669502 907.884892243 236.180561516 c 0
 917.930369311 240.772779604 927.333994733 244.587004234 938.590622349 244.587004234 c 0
 954.299767009 244.587004234 966.316179923 236.562940187 977.672186183 227.544935216 c 0
 990.248254874 217.558057138 1000.88705098 202.60839006 1000.88705098 180.44410373 c 0
 1000.88705098 160.314559216 993.856526943 138.316754683 981.408025326 106.540316344 c 0
 904.91907419 -91.0561407566 709.348372379 -219.604035315 500.532852349 -219.604035315 c 0
 474.526651183 -219.604035315 448.311043784 -217.607542725 422.119226705 -213.506076863 c 0
 199.221045407 -178.41423491 21.8333117346 -1.10349282452 -12.6384866963 220.036346167 c 0
 -16.8453915554 247.126263819 -18.8911376102 274.067133681 -18.8911376102 300.685068866 c 0
 -18.8911376102 545.121943612 153.762945228 759.891731221 402.519182854 810.228287541 c 0
 431.888234299 816.168095698 462.829317119 819.004011643 494.34425552 819.004011643 c 0
500.249023437 569.21875 m 0
 513.582082984 569.21875 527.720563018 565.89804718 539.195387754 557.193007725 c 0
 552.437934283 547.146937945 559.806560286 531.725739796 563.830549031 511.802182124 c 0
 568.910498164 486.650357424 570.249023438 451.096573546 570.249023438 393.75 c 0
 570.249023438 336.364295544 568.796023605 298.579613109 562.450762978 271.545504558 c 0
 558.945184484 256.609917966 553.692414074 243.895006051 544.139960524 234.142754051 c 0
 531.785320657 221.5297054 515.492055054 218.125 500.249023438 218.125 c 0
 485.005991821 218.125 468.712726218 221.5297054 456.358086351 234.142754051 c 0
 446.805632801 243.895006051 441.552862391 256.609917966 438.047283897 271.545504558 c 0
 431.70202327 298.579613109 430.249023438 336.364295544 430.249023438 393.75 c 0
 430.249023438 451.096573546 431.587548711 486.650357424 436.667497844 511.802182124 c 0
 440.693136974 531.733911175 448.09922803 547.435898455 461.503528928 557.343425206 c 0
 473.106768235 565.91973252 486.918625833 569.21875 500.249023437 569.21875 c 0
949.606788178 568.48327179 m 0
 954.379318127 568.48327179 958.281736547 567.771159575 961.595219202 567.129840352 c 0
 974.439275962 564.623682935 986.194030457 560.812872344 996.094798903 552.589530155 c 0
 1008.74195121 542.085107016 1014.2361263 527.360535564 1017.34675799 511.510264992 c 0
 1018.05783677 508.155698931 1018.89090364 504.112441906 1018.89090383 499.008494298 c 0
 1018.89090383 484.753515888 1011.63638499 473.040238108 999.816123072 458.946461493 c 0
 984.573710546 440.772316224 957.265097638 413.384299812 907.513385937 363.3606375 c 0
 856.678498893 312.525750455 827.812709874 284.499656238 807.980823318 268.48961187 c 0
 792.592074335 256.066459223 780.429670681 248.75 765.874023438 248.75 c 0
 753.95086995 248.75 742.833674628 253.676258576 731.521794562 261.740804279 c 0
 717.227218783 271.931794549 700.020658194 288.199640244 672.359660938 315.8606375 c 0
 648.06105754 340.159240897 631.260721924 357.966773232 620.115080113 373.7547594 c 0
 611.338659095 386.186705086 605.117704795 398.507964344 605.117704795 412.667743516 c 0
 605.117704795 430.946710417 615.838914325 444.085393543 626.726215674 454.757676058 c 0
 637.955070225 466.230266538 651.757393311 475.965227597 669.456630537 475.965228106 c 0
 680.930654974 475.965228106 691.42784466 471.932513158 701.347744049 465.988624539 c 0
 713.788961691 458.533991276 726.229370271 447.698163769 741.032500419 433.117621094 c 2
 765.57954154 409.758340028 l 1
 837.468834256 481.122705616 l 2
 876.41075157 519.47459388 897.793983091 540.427418094 913.379316944 552.79760575 c 0
 925.544809519 562.453441646 936.800716024 568.48327179 949.606788178 568.48327179 c 0
499.559398614 194.134837993 m 0
 542.553541723 194.134837993 582.749023438 159.728075182 582.749023438 111.875 c 0
 582.749023438 92.1123688164 574.414744784 74.1354555064 562.311877395 60.1404251316 c 0
 547.254399125 42.7288598409 525.101703242 30 500.249023438 30 c 0
 449.403111134 30 419.069517921 73.4386775424 419.069517921 114.163301259 c 0
 419.069517921 140.672506015 431.831968912 168.241640625 459.865174373 183.708236742 c 0
 472.549164613 190.818958543 486.195258206 194.134837993 499.559398614 194.134837993 c 0
EndSplineSet
EndChar

StartChar: uniF02A
Encoding: 61482 61482 32
Width: 1000
LayerCount: 2
Fore
SplineSet
500.37890625 801.25 m 0
 516.665327398 801.25 535.600354119 797.559669561 548.606707421 783.370920504 c 0
 552.461660997 779.087638753 553.936852411 776.02161092 557.102165682 770.510669525 c 0
 560.877578845 763.93751897 565.702978113 754.999412661 571.38925286 744.121153943 c 0
 600.357663928 688.702468728 644.528247238 595.428507224 672.140755097 538.599958342 c 1
 692.012491612 535.513093179 740.769613586 528.464779327 796.60905437 520.42011413 c 0
 840.297499697 514.128978002 878.923452802 507.653366629 906.547852727 502.080330004 c 0
 918.85210065 499.598030858 928.939775357 497.313355748 936.704457311 495.16607761 c 0
 943.076365976 493.403962915 947.3370282 492.533067633 953.282601821 488.710913162 c 0
 972.477344572 476.37143568 981.90615617 454.756565549 981.90615617 434.018420077 c 0
 981.90615617 425.313603231 980.231363359 416.500693975 976.418985895 408.180248449 c 0
 973.574594627 401.511492136 970.893203801 399.294229549 966.745486467 394.407884808 c 0
 961.695489091 388.458584783 954.715128121 380.820548583 946.092666308 371.718953346 c 0
 900.401932522 323.489274398 831.865732606 259.052316662 780.262737114 209.779779031 c 1
 802.199377562 82.7781244558 l 2
 816.068042202 2.01354802366 821.942609152 -31.9255963517 821.942609152 -54.2095886813 c 0
 821.942609152 -66.3274310536 819.333305085 -76.3438960262 815.272708228 -84.1527361355 c 0
 810.400393859 -93.5928452252 805.02820595 -103.043744881 795.343136999 -110.368812851 c 0
 787.433843754 -116.350815757 777.427945159 -119.424277001 767.20025498 -119.424277001 c 0
 752.43576823 -119.424277001 737.572039438 -114.497194751 718.127059792 -106.204850197 c 0
 693.715593824 -95.7945391268 661.561388546 -79.1746095214 616.213339763 -55.1546384763 c 0
 565.076200737 -27.8483991906 517.928155837 -4.04762051455 501.2328934 3.54649058926 c 1
 484.490934849 -4.04927656487 437.135210907 -27.8532735122 384.920952784 -55.2035989563 c 0
 339.419189174 -79.1954379503 307.272809593 -95.7061040937 282.869296044 -106.047677212 c 0
 263.428458633 -114.286197503 248.612969098 -119.15557444 233.926787267 -119.15557444 c 0
 223.722732659 -119.15557444 213.750946646 -116.097906549 205.870664723 -110.161305623 c 0
 196.257835571 -102.91949232 190.919714794 -93.6135270772 186.069297643 -84.3737140261 c 0
 181.883195943 -76.5871614667 179.283953348 -66.5320888122 179.283953348 -54.5135013598 c 0
 179.283953348 -32.2696477679 185.162675861 1.82052226746 199.033100302 82.1873932967 c 2
 220.980273469 208.672417598 l 1
 126.001832724 301.334347341 l 2
 77.5987603245 348.714819619 51.4592655868 374.785380137 36.4601894951 393.203003667 c 0
 24.731656134 407.604671522 18.0934843805 419.988151719 18.0934843805 433.946723099 c 0
 18.0934843805 445.176982316 18.555490885 456.504739804 25.3259451209 468.038287587 c 0
 30.5987515791 477.020574765 38.9035931454 483.696647484 48.4346580847 488.480080535 c 0
 60.3924156807 494.481417558 75.0479352242 498.527791095 95.1409542913 502.683615074 c 0
 138.246394007 511.599080659 293.651405114 532.915008646 328.782815509 538.508080066 c 1
 345.477411139 573.298931558 361.784775404 606.699186275 381.920043903 648.580544753 c 0
 399.399983088 685.288417042 416.653196 719.605162085 429.617404081 744.143780396 c 0
 435.386859389 755.064189941 440.290402783 764.024988892 444.116078714 770.601359505 c 0
 447.295817857 776.067359089 448.818275625 779.124867411 452.529302498 783.270042874 c 0
 463.141024933 795.314553014 480.270540612 801.25 500.37890625 801.25 c 0
EndSplineSet
EndChar

StartChar: uniF02B
Encoding: 61483 61483 33
Width: 1000
LayerCount: 2
Fore
SplineSet
500.29296875 757.5 m 0
 534.821173801 757.5 567.420251562 757.521633315 600.436666789 757.521633315 c 0
 755.260306412 757.521633315 824.020928116 757.367763361 864.269955315 749.527076366 c 0
 878.661363935 746.723566858 890.06893529 742.64488239 899.655917699 736.508839555 c 0
 914.300899509 727.135479737 922.183058842 715.58609881 931.623543967 703.628150984 c 0
 939.288754691 693.918884158 946.953965242 684.209617159 954.619176111 674.500350479 c 1
 955.552154354 542.016988432 957.210802778 395.844057624 957.210802778 265.067235424 c 0
 957.210802778 178.160020795 956.121861831 137.349601295 946.624722424 108.633678905 c 0
 938.0480987 82.7010637588 921.147373324 69.7690986693 903.921119734 56.1694247828 c 0
 894.227626677 48.5166671054 884.534133618 40.8639094292 874.840640562 33.2111517507 c 1
 774.650282269 31.9627581315 674.457018556 30.7172699331 574.258704615 29.4768319626 c 1
 489.371574005 -54.8248617537 l 2
 448.237943046 -95.6099026202 423.36036064 -119.297967162 404.695861746 -133.849553718 c 0
 390.017000776 -145.293778241 377.976512104 -151.848520122 365.13079724 -154.054841014 c 0
 357.08363612 -155.603747443 349.071210015 -156.368640747 341.169573329 -156.368641032 c 0
 297.080988837 -156.368641032 257.611930762 -132.061521251 240.526378814 -91.3190512214 c 0
 233.306925823 -73.2704187438 230.29296875 -42.4220554085 230.29296875 -6.875 c 2
 230.29296875 29.582877527 l 1
 190.842678314 31.2620562296 l 2
 160.640258706 32.3035189747 144.132510341 32.7681190759 128.617150558 37.5850361737 c 0
 114.642690121 41.9235638235 103.979594683 50.2306542187 93.1211813395 59.0489865218 c 0
 82.934278879 67.321971551 73.2947280256 74.8283122481 65.2004244577 86.3446809664 c 0
 58.7301837966 95.5503743931 54.1532610207 106.51064966 51.0959573291 119.850421496 c 0
 42.9946996752 155.198211441 42.7892572942 210.742005593 42.7892572942 331.304726476 c 0
 42.7892572942 337.7462067 42.78984375 344.373289957 42.78984375 351.1928125 c 2
 42.79296875 392.5 l 2
 42.79296875 407.15904067 42.789711818 421.081112609 42.789711818 434.308747359 c 0
 42.789711818 666.661346389 43.7946500594 684.742819979 81.1094040449 719.072393645 c 0
 91.3664747756 728.540458935 106.881078236 739.058012796 119.249965725 745.278271612 c 0
 125.210388315 748.431130828 131.889016119 750.250385911 140.355233503 751.604040608 c 0
 151.190668608 753.336508361 165.714296264 754.423854571 188.193667454 755.256997961 c 0
 238.66434991 757.127571436 329.389495779 757.5 500.29296875 757.5 c 0
364.043636998 42.7392165553 m 2
 364.04296875 35.625 l 1
 364.04296875 7.653725 l 1
 516.851390744 160.462146994 l 1
 618.211795225 162.463947114 719.569660557 164.468286384 820.91796875 166.482182792 c 1
 820.91796875 620.73518611 l 1
 669.526967279 621.571600483 497.508102445 622.935586535 349.068546701 622.935586535 c 0
 252.546637739 622.935586535 200.377946117 621.868044223 178.6787027 620.149516751 c 1
 177.996870204 596.687889953 177.55859375 545.032229356 177.55859375 481.650390625 c 0
 177.55859375 377.817256947 178.709688628 269.9273794 179.518657094 166.115093253 c 1
 201.023685341 165.275053087 222.550086762 164.473981098 244.040819736 163.586615241 c 0
 274.826687041 162.315447452 296.647940678 161.685909867 314.747934564 157.475046422 c 0
 329.117058615 154.132149204 342.851925161 147.348057394 351.50776922 134.242124618 c 0
 358.153109978 124.180322597 360.772010602 112.885577904 362.226240618 100.574992967 c 0
 364.026337889 85.3365161831 364.043643649 67.37959214 364.043643649 44.1137076953 c 0
 364.043643649 43.6575909217 364.043636998 43.1994337147 364.043636998 42.7392165553 c 2
EndSplineSet
EndChar

StartChar: uniF02C
Encoding: 61484 61484 34
Width: 1000
LayerCount: 2
Fore
SplineSet
481.673676646 817.303964307 m 0
 532.910257 817.303964307 592.306656015 813.234969843 623.708260971 804.922780295 c 0
 758.472077528 768.169012144 862.527454302 693.790113786 935.187647227 581.556065786 c 0
 992.649281329 493.749523788 1016.56542969 411.730790827 1016.56542969 300 c 0
 1016.56542969 154.595461289 966.827710774 32.6085560862 866.954792187 -67.2643625 c 0
 767.081873601 -167.137281086 645.094968398 -216.875 499.690429688 -216.875 c 0
 354.285890977 -216.875 232.252951329 -167.091097422 132.380032743 -67.2181788353 c 0
 33.2416612518 32.5639483145 -16.5656578037 153.029146096 -16.5656578037 297.263827893 c 0
 -16.5656578037 298.205117017 -16.5637624149 299.056776952 -16.5595703125 300 c 0
 -16.5595703125 416.081264622 7.96200597506 500.741503257 70.6245680377 591.828320276 c 0
 148.684245363 706.966344331 268.563317097 784.949616833 411.48977022 812.758836219 c 0
 428.895476199 816.136062752 453.720224445 817.303964307 481.673676646 817.303964307 c 0
498.426466003 685.967729614 m 0
 399.065189925 685.967729614 305.779520917 646.714089785 229.410613364 570.816595241 c 0
 189.344674723 531.367055656 175.716842662 512.932860175 155.768688629 472.432062591 c 0
 127.551224855 414.496206121 113.752929688 356.992254447 113.752929688 299.765625 c 0
 113.752929688 242.539330123 127.587404736 185.12983712 155.789593478 127.525366499 c 0
 204.782690424 27.7683377768 310.809803922 -54.8669344569 419.375159014 -77.2880403999 c 0
 446.470194929 -83.0410959708 473.12009417 -85.9030814958 499.323806762 -85.9030814958 c 0
 557.351139123 -85.9030814958 614.243205377 -72.0342017954 672.221040095 -43.8735392182 c 0
 742.317620884 -9.11977227201 808.881544482 57.5181842924 843.635311428 127.614765082 c 0
 871.858760248 185.56291 885.627929688 242.857593792 885.627929688 300 c 0
 885.627929688 357.142406208 871.796806912 414.563161282 843.573358092 472.5113062 c 0
 794.580261145 572.268334922 688.571055453 654.866934457 580.005700361 677.2880404 c 0
 552.461329096 683.100155437 525.139587273 685.967729614 498.426466003 685.967729614 c 0
500.347124363 219.639267498 m 0
 464.3008191 219.639267498 436.712688524 249.539946135 436.712688524 292.310553474 c 0
 436.712688524 315.575853742 448.891608495 328.562753651 461.934585306 341.147699917 c 0
 474.994539274 354.172457424 498.147024765 372.147925147 515.347571647 384.055996243 c 0
 540.576959352 401.192938835 541.605125749 405.581943164 541.605125749 408.193951579 c 0
 541.605125749 408.425736235 541.597029505 408.643528026 541.597029505 408.854993048 c 0
 541.597029505 414.520576079 540.00272222 419.970805979 535.312853051 424.059253595 c 0
 528.843650153 429.69885594 515.367024366 434.969228935 499.318925329 434.969228935 c 0
 489.061366341 434.969228935 476.496234797 432.396994138 472.070323011 430.181916523 c 0
 466.987383431 427.638010041 460.453293363 422.284274142 448.253789697 409.06814517 c 0
 430.002240092 388.954192545 411.769242005 373.943131552 388.697514358 373.943131552 c 0
 371.194938816 373.943131552 356.913784349 383.272543625 345.015056728 395.146740138 c 0
 332.579371521 407.304425151 323.843261153 422.499262167 323.843261153 440.238299261 c 0
 323.843261153 465.653449169 339.590162498 487.879657161 362.626069164 512.451290938 c 0
 384.931788605 536.151117844 412.405979677 553.725043794 443.970088948 563.5449889 c 0
 457.709134881 567.470430595 473.685792197 569.148326483 490.755251889 569.148326483 c 0
 513.896383059 569.148326483 538.854073203 566.008016033 561.092381562 559.152028172 c 0
 627.792178177 539.469962431 675.178755203 476.340614695 675.178755203 409.824640905 c 0
 675.178755203 403.543827123 674.771779796 397.391008276 673.891772075 391.105238846 c 0
 671.122429881 370.181320045 665.227179352 351.327788797 654.976532518 334.190685271 c 0
 642.147946071 312.743764158 623.213858565 294.883326823 597.954090386 277.311314176 c 0
 576.636499394 262.507431543 553.51328967 244.897787419 548.374683686 240.409066193 c 0
 534.542357236 226.791035552 517.446097911 219.63926799 500.347124363 219.639267498 c 0
499.000804864 194.134837993 m 0
 541.994947973 194.134837993 582.190429688 159.728075182 582.190429688 111.875 c 0
 582.190429688 92.1123688164 573.856151034 74.1354555064 561.753283645 60.1404251316 c 0
 546.695805375 42.7288598409 524.543109492 30 499.690429688 30 c 0
 448.844517384 30 418.510924171 73.4386775424 418.510924171 114.163301259 c 0
 418.510924171 140.672506015 431.273375162 168.241640625 459.306580623 183.708236742 c 0
 471.990570863 190.818958543 485.636664456 194.134837993 499.000804864 194.134837993 c 0
EndSplineSet
EndChar

StartChar: uniF02D
Encoding: 61485 61485 35
Width: 1000
LayerCount: 2
Fore
SplineSet
494.201594993 806.862432957 m 0
 527.459461496 806.862432957 562.424697255 794.110416668 585.501533312 768.525228866 c 0
 610.069266202 741.789754839 629.681005927 706.895163226 739.642111295 503.8419857 c 0
 807.111031224 378.641928099 876.07581133 245.617741957 925.529587593 146.572686532 c 0
 965.497984699 66.5247628822 992.2436938 11.9176686865 997.071360049 -7.71484072438 c 0
 999.802966725 -18.82337454 1001.55452205 -29.1038249244 1001.55452205 -39.4830776706 c 0
 1001.55452205 -69.2092746921 985.918935296 -91.2582272036 959.2878 -117.8893625 c 0
 946.084254167 -131.092908333 932.880708333 -144.296454167 919.6771625 -157.5 c 1
 587.6484375 -157.5 l 2
 396.170502045 -157.5 263.921227728 -155.581419912 178.643684529 -151.258316231 c 0
 140.708125616 -149.335191476 112.092115416 -146.957749244 91.1815746942 -143.926322908 c 0
 74.408920949 -141.494771043 62.8477359125 -139.239339665 52.9338661006 -134.06688585 c 0
 37.4837192855 -126.162159573 25.4587715747 -112.934280324 16.5231193174 -98.0256717486 c 0
 5.32656274976 -79.3448777282 -1.55431517057 -57.0818783039 -1.55431517057 -34.7631355639 c 0
 -1.55431517057 -31.1891721221 -1.36646264198 -27.5772742146 -0.978474411288 -24.0207154333 c 0
 0.392060054636 -11.68590524 6.4722346356 2.91557194619 16.26843624 26.0209008026 c 0
 28.3521144203 54.5214737213 46.4146252473 93.4759814855 68.8014331887 139.61553318 c 0
 119.150961759 243.386677435 191.316466159 383.308441503 265.086984397 518.322408844 c 0
 322.122331768 622.655361352 359.838312451 688.807050182 387.107027723 730.551153686 c 0
 408.825120089 763.798128712 423.510867496 782.42548886 440.278260832 792.649509187 c 0
 456.513692562 802.685957893 475.372095852 806.862432957 494.201594993 806.862432957 c 0
442.181797153 -17.4780501207 m 0
 532.363970657 -17.4780501207 632.675820174 -16.0944385713 730.785334881 -13.1342376965 c 0
 793.318249332 -11.5551236952 829.459623336 -9.96604576417 847.537822513 -8.27338991815 c 1
 834.666429859 20.6170611406 804.184526096 83.5503754937 767.331055726 157.335267762 c 0
 704.600258979 282.929547849 622.27923176 443.088400521 570.061192011 539.224924033 c 0
 541.828681284 590.446764923 514.54171712 636.950352635 499.186402222 661.555198261 c 1
 488.868500062 646.076956975 472.789533699 619.673302837 452.084821389 583.136560354 c 0
 414.367029678 516.57754605 359.700227109 415.110534902 285.983159055 275.07894956 c 0
 209.697128983 129.57041072 160.43805089 30.3568626607 144.358501555 -8.51520642934 c 1
 187.644944659 -13.6386730944 304.125425406 -17.4780501207 442.181797153 -17.4780501207 c 0
567.112723214 372.450801749 m 0
 567.112723214 355.484780115 565.985101312 337.36030054 563.763298941 318.28983019 c 0
 561.734495518 300.353275044 559.324873901 286.172882373 556.37261196 274.553401641 c 0
 554.016817836 265.281492516 551.124522122 257.088633813 545.943119445 249.687226564 c 0
 535.629325336 234.954422488 519.094349419 230.879033171 504.742350671 230.879033171 c 0
 491.392933081 230.879033171 480.75559484 231.903986914 469.828346183 236.488455566 c 0
 459.571132212 240.791814754 450.704732714 248.890269411 445.177444751 259.202460384 c 0
 439.743189008 269.341082328 437.046360033 280.861269796 435.236509004 294.753899392 c 0
 432.840014601 313.149672603 431.987896201 341.589204726 431.987896201 370.840349801 c 0
 431.987896201 439.355982243 438.900706149 477.747537734 473.836515177 497.910215079 c 0
 481.175884377 502.244470321 489.506840468 505.694443334 499.245659722 505.694444444 c 0
 519.892733837 505.694444444 533.088487661 490.67147152 543.562850342 474.993902955 c 0
 560.838912712 450.103002487 567.112723214 414.448471237 567.112723214 372.450801749 c 0
494.993280962 193.730410528 m 0
 509.65543976 193.730410528 520.048300489 186.859767974 531.808531895 179.577194938 c 0
 558.690929087 163.341339244 577.899946643 141.177268104 577.899947164 113.415534349 c 0
 577.899947164 92.8369411767 567.187210817 74.3883605673 550.891490809 58.7193990209 c 0
 534.827409713 43.2502838921 516.308454925 33.6032799756 496.348033436 33.6032799756 c 0
 466.149497465 33.6032799756 442.541899167 55.2781576334 426.721214837 85.254191101 c 0
 421.938373153 94.8198744683 418.316615581 104.781228 418.316615581 115.965088142 c 0
 418.316615581 138.403374144 432.641981712 154.511729271 451.337070721 170.65748796 c 0
 459.392171878 177.730259708 465.893459495 183.303678138 473.533240031 187.645483444 c 0
 479.625898029 191.10803511 486.967155478 193.730410528 494.993280962 193.730410528 c 0
EndSplineSet
EndChar

StartChar: uniF02E
Encoding: 61486 61486 36
Width: 1000
LayerCount: 2
Fore
SplineSet
436.907965986 756.909853557 m 0
 538.928602128 756.909853557 637.552988061 715.892231667 714.178425 639.7643625 c 0
 791.320121534 562.622665966 831.100335337 464.072245249 831.100335337 363.099448333 c 0
 831.100335337 286.374508035 808.175158111 208.653221162 761.968043391 138.096240182 c 1
 759.629699635 134.244850466 l 1
 849.856291875 43.4612987287 l 2
 896.524841172 -3.55552332436 922.714837133 -30.7417214131 937.888691807 -49.7090397557 c 0
 949.646097289 -64.4057966078 956.9140625 -76.223822311 956.9140625 -90.625 c 0
 956.9140625 -111.065261912 946.82289179 -128.996281396 932.785984342 -141.118531176 c 0
 921.505521486 -150.860320019 906.913487312 -157.5 890.6640625 -157.5 c 0
 876.723726601 -157.5 864.633960073 -150.795265756 849.929758951 -139.157326261 c 0
 831.058078505 -124.220950366 804.004745961 -98.146004446 755.943606539 -50.43313415 c 2
 665.169211637 39.7843626239 l 1
 661.299591257 37.4349502504 l 1
 596.653678015 -4.69856898101 509.273232449 -32.5 436.9140625 -32.5 c 0
 216.44111657 -32.5 43.0866372999 153.430386236 43.0866372999 362.922012751 c 0
 43.0866372999 394.139796434 46.9406314255 425.84944925 55.0399652991 457.47947943 c 0
 73.8784465107 530.884595875 103.82780057 583.339835879 160.191624827 639.055800088 c 0
 215.282696563 694.795002079 268.406618054 725.477195532 339.377555053 744.359371431 c 0
 371.756300023 752.77149635 404.462922332 756.909853557 436.907965986 756.909853557 c 0
435.662258547 622.991442471 m 0
 368.765119487 622.991442471 305.916073339 596.973285839 254.178425 545.2356375 c 0
 201.206288692 492.87707806 177.147476253 427.744033166 177.147476253 363.534975583 c 0
 177.147476253 244.662431672 259.299752458 129.36394611 395.933676202 105.962555855 c 0
 410.155197042 103.541871457 424.305023587 102.357502329 438.319761177 102.357502329 c 0
 504.922252485 102.357502329 568.988010085 129.102672585 619.6497 179.7643625 c 0
 671.509423275 231.332739015 697.2265625 296.866737888 697.2265625 362.34375 c 0
 697.2265625 427.821306126 671.538167448 493.680549702 619.60984632 545.900602971 c 0
 581.316435692 584.194013599 540.957779808 606.818360475 490.347338517 617.289486259 c 0
 471.846282809 621.113037772 453.570768766 622.991442471 435.662258547 622.991442471 c 0
EndSplineSet
EndChar

StartChar: uniF02F
Encoding: 61487 61487 37
Width: 1000
LayerCount: 2
Fore
SplineSet
830.871784987 648.748116047 m 0
 869.114666712 648.748116047 891.352073558 632.027619975 911.771697367 610.881826474 c 0
 928.998607157 593.601298704 948.763272316 563.347792597 960.957550252 540.314156494 c 0
 973.880230526 513.962024172 981.82521998 490.155623403 981.82521998 466.138417685 c 0
 981.82521998 427.130353975 960.419358659 394.641789964 924.010431658 358.232862963 c 0
 904.049051406 338.62793593 898.274960175 331.533682496 896.821279445 327.631782769 c 0
 895.592577965 324.333761499 895 317.353467878 895 300 c 0
 895 282.646532122 895.592577965 275.666238501 896.821279445 272.368217231 c 0
 898.274960175 268.466317504 904.177982248 261.244289533 924.1393625 241.6393625 c 0
 962.938356999 202.840368001 982.5 169.737442363 982.5 129.375 c 0
 982.5 110.173569074 974.367342457 88.6194363067 963.444448999 65.990842026 c 0
 949.762494453 37.6463928577 930.764819446 8.11225075046 910.885431658 -11.7671370371 c 0
 890.003011439 -32.2766568947 868.16474979 -48.7805893356 830.299686966 -48.7805893356 c 0
 799.395711229 -48.7805893356 752.345593251 -35.0001039096 721.767600043 -27.0724760408 c 1
 701.249291088 -39.1962469232 l 2
 685.28308717 -48.4398386655 678.781041739 -53.0878030754 675.565316642 -57.0654662681 c 0
 671.60511767 -61.9639999451 667.715828284 -72.4716695794 659.94418339 -101.438709638 c 0
 645.285067972 -156.077230743 613.377150125 -200.77831461 569.086631572 -213.028883571 c 0
 550.977438798 -218.037809232 525.735571263 -219.84375 500 -219.84375 c 0
 474.231279089 -219.84375 448.71359438 -218.208943389 430.660619057 -212.957168749 c 0
 386.550871503 -200.125242188 354.787740766 -156.348608767 340.05581661 -101.438709638 c 0
 332.284171716 -72.4716695794 328.39488233 -61.9639999451 324.434683358 -57.0654662681 c 0
 321.218958261 -53.0878030754 314.563073736 -48.3498561675 298.596869817 -39.1062644253 c 2
 278.232082606 -27.072526528 l 1
 247.42926685 -35.0583200042 200.344224131 -48.748116047 169.128215013 -48.748116047 c 0
 130.790647253 -48.748116047 108.546280491 -31.9523892053 88.0840658929 -10.7323148073 c 0
 68.4790087859 9.65694458401 49.786411839 38.9253426605 36.28947599 66.9314845472 c 0
 25.5153928678 89.2877070257 17.5 110.432847611 17.5 129.375 c 0
 17.5 169.735846705 37.1481465297 202.906663347 75.8606375 242.2643625 c 0
 95.414907841 261.818632841 101.463730324 269.217173804 103.04410442 273.331299847 c 0
 104.348495613 276.726970397 105 283.306242065 105 300 c 0
 105 316.693757935 104.348495613 323.273029603 103.04410442 326.668700153 c 0
 101.463730324 330.782826196 95.2976485297 338.299599558 75.7433781887 357.853869899 c 0
 37.0308872184 397.211569053 17.5 430.264153295 17.5 470.625 c 0
 17.5 489.567152389 25.5153928678 510.712292974 36.28947599 533.068515453 c 0
 49.786411839 561.07465734 68.375859227 590.234980723 87.980916334 610.624240114 c 0
 108.281497684 632.052631539 130.33150568 648.912492377 168.594933388 648.912492377 c 0
 199.923983199 648.912492377 247.596099536 635.053075165 278.678752882 627.092883454 c 1
 300.217345169 640.203303699 l 2
 315.422908741 649.495592548 321.06133414 653.703101776 324.350095743 658.065855231 c 0
 328.57283261 663.667586848 333.198689559 676.449296785 342.688176591 708.783845191 c 0
 357.938138173 760.501106206 386.067053277 800.129634004 428.083151406 812.309789196 c 0
 445.995790572 817.696125183 472.553680999 819.299218962 499.819458029 819.299219375 c 0
 526.146121429 819.299219375 552.036797097 817.990647686 569.339380943 812.957168749 c 0
 613.449128497 800.125242188 645.212259234 756.348608767 659.94418339 701.438709638 c 0
 667.715828284 672.471669579 671.60511767 661.963999945 675.565316642 657.065466268 c 0
 678.781041739 653.087803075 685.436926264 648.349856167 701.403130183 639.106264425 c 2
 721.767917394 627.072526528 l 1
 752.57073315 635.058320004 799.655775869 648.748116047 830.871784987 648.748116047 c 0
500 -86.25 m 1
 502.338377102 -86.2502183597 l 2
 516.312503555 -86.2502183597 523.239761099 -85.3384807875 524.214612866 -84.9619676803 c 2
 524.214612866 -84.9619676803 525.392763781 -84.202984127 527.866383981 -77.9005809676 c 0
 530.695075149 -70.6935116877 535.057338283 -54.8090011652 540.048038683 -36.0903689514 c 0
 546.489345238 -11.7890760381 554.591354918 8.2075099054 568.558846148 25.664808968 c 0
 586.029347554 47.5003528606 610.460970183 63.1760089027 646.56112042 81.5800070632 c 0
 676.38226809 97.0168364449 696.073775506 106.203348021 721.179224434 106.203348021 c 0
 740.629414695 106.203348021 763.849449618 99.9052500818 791.200007798 92.3875410256 c 0
 807.537975152 87.8968068939 817.621879274 85.702481054 820.687060876 85.702481054 c 0
 821.969852544 85.702481054 822.733122224 87.1674443345 824.660943062 90.1692238274 c 0
 828.976221524 96.8884749805 839.424240409 117.927975583 845.111097425 129.017609751 c 1
 819.868939515 155.612026121 l 2
 794.803837892 182.089246145 778.553753507 202.66893775 769.831832012 228.61356861 c 0
 762.908471762 249.208116053 761.25 271.232883454 761.25 300 c 0
 761.25 328.767116546 762.908471762 350.791883947 769.831832012 371.38643139 c 0
 778.553753507 397.33106225 794.785689465 417.891608103 819.850791088 444.368828128 c 2
 845.111000358 470.982280991 l 1
 842.578125438 475.921387086 840.029765381 480.86291892 837.521440314 485.821986381 c 0
 828.470604226 503.715881923 822.70979392 512.958369029 821.33541301 514.340286774 c 1
 820.687060876 514.297518946 l 2
 817.621879274 514.297518946 807.537975152 512.103193106 791.200007798 507.612458974 c 0
 763.938341371 500.119183143 740.562803769 493.796651979 721.179224434 493.796651979 c 0
 696.073775506 493.796651979 676.272184669 503.039715548 646.451037 518.476544929 c 0
 610.350886762 536.88054309 586.029347554 552.499647139 568.558846148 574.335191032 c 0
 554.591354918 591.792490095 546.481698065 611.817839592 540.04039151 636.119132505 c 0
 534.897177156 655.66334705 528.528426831 676.51370185 525.523046306 684.439932028 c 0
 522.49943746 685.020009927 514.365184394 686.249999999 500 686.25 c 2
 497.661622898 686.25021836 l 2
 483.687496445 686.25021836 476.760238901 685.338480788 475.785387134 684.96196768 c 2
 475.785387134 684.96196768 474.607236219 684.202984127 472.133616019 677.900580968 c 0
 469.304924851 670.693511688 464.942661717 654.809001165 459.951961317 636.090368951 c 0
 453.470124613 611.341537898 444.951605916 590.977975562 430.655957447 573.278601267 c 0
 412.778711258 551.14486789 387.937686762 535.221204429 352.120247745 517.135170866 c 0
 323.221318298 502.511616206 303.63121639 493.690543894 279.034170767 493.690543894 c 0
 259.486549235 493.690543894 236.294779375 500.055106427 208.799992202 507.612458974 c 0
 192.462024848 512.103193106 182.378120726 514.297518946 179.312939124 514.297518946 c 0
 178.030147457 514.297518946 177.266877777 512.832555666 175.339056938 509.830776173 c 0
 171.023778476 503.11152502 160.575759591 482.072024417 154.888902575 470.982390249 c 1
 180.131060485 444.387973879 l 2
 205.196162108 417.910753855 221.446246493 397.33106225 230.168167988 371.38643139 c 0
 237.091528238 350.791883947 238.75 328.767116546 238.75 300 c 0
 238.75 271.232883454 237.091528238 249.208116053 230.168167988 228.61356861 c 0
 221.446246493 202.66893775 205.214310535 182.108391897 180.149208912 155.631171872 c 2
 154.888999642 129.017719009 l 1
 157.421874562 124.078612914 159.970234619 119.13708108 162.478559686 114.178013619 c 0
 171.529395774 96.2841180766 177.29020608 87.0416309713 178.66458699 85.6597132256 c 1
 179.312939124 85.702481054 l 2
 182.378120726 85.702481054 192.462024848 87.8968068939 208.799992202 92.3875410256 c 0
 236.200632664 99.9190159445 259.549804265 106.309456106 279.034170767 106.309456106 c 0
 303.63121639 106.309456106 323.236533635 97.4806926358 352.135463082 82.8571379758 c 0
 387.9529021 64.7711044126 412.778711258 48.85513211 430.655957447 26.721398733 c 0
 445.424578834 8.43643892065 453.678979964 -12.5718687054 460.506396966 -38.1698920953 c 0
 465.059721125 -55.2496828083 468.377959161 -67.5036893911 471.137779282 -75.2342472527 c 0
 473.441030952 -81.68590697 475.148603191 -84.2705770757 475.785387134 -84.9619676803 c 2
 475.785387134 -84.9619676803 478.065967608 -86.2502183597 497.661622898 -86.2502183597 c 2
 500 -86.25 l 1
496.415364984 505.729547627 m 0
 554.41578325 505.729547627 616.296232417 482.487003176 653.226591153 439.982250668 c 0
 689.043699695 398.75878612 704.375 356.841083187 704.375 300 c 0
 704.375 216.351263758 664.665381863 151.502678443 591.336480531 115.180886195 c 0
 563.050785314 101.212641643 531.536850753 94.375 500 94.375 c 0
 468.463149247 94.375 436.951459853 101.211533094 408.665764636 115.179777645 c 0
 331.629551495 153.210313247 293.6863753 226.424238272 293.6863753 299.039581692 c 0
 293.6863753 380.398965416 341.226377953 462.307938595 432.576051293 495.062801546 c 0
 452.843175451 502.397570289 474.544009666 505.729547627 496.415364984 505.729547627 c 0
499.570376855 372.891773971 m 0
 488.27803764 372.891773971 477.213972889 369.522924214 464.089571399 362.80811415 c 0
 456.085124603 358.712815789 447.215097423 350.477251645 440.215875083 340.075983052 c 0
 431.440017742 327.034527174 426.25 311.377483682 426.25 300 c 0
 426.25 280.841499365 437.188569673 259.65395105 454.381593556 244.880686084 c 0
 468.060456553 233.126996398 484.72641918 226.25 500 226.25 c 0
 510.269616767 226.25 527.128181239 232.622846262 534.667702349 236.570605423 c 0
 543.563654675 241.117425501 552.638055944 249.374108797 559.707992796 259.608017389 c 0
 568.576683291 272.445666403 573.75 287.780829289 573.75 300 c 0
 573.75 312.219170711 568.576683291 327.554333597 559.707992796 340.391982611 c 0
 552.638055944 350.625891203 543.563654675 358.882574499 534.667702349 363.429394577 c 0
 521.669514529 370.061123056 510.317225603 372.891773971 499.570376855 372.891773971 c 0
EndSplineSet
EndChar

StartChar: uniF030
Encoding: 61488 61488 38
Width: 1000
LayerCount: 2
Fore
SplineSet
172.397937831 739.373812253 m 0
 189.857368452 739.373812253 207.44019618 732.244568096 220.001744028 718.467386586 c 0
 229.891405897 707.620660665 237.091626302 694.117874551 237.091626302 678.390257732 c 0
 237.091626302 655.776289576 224.204022084 635.678910082 204.966042487 612.208574973 c 0
 148.78173468 544.787405605 112.720703125 446.548851618 112.720703125 362.5 c 0
 112.720703125 280.234250662 149.09573966 179.250057275 201.852868448 116.527693049 c 0
 213.537746565 102.322547103 222.311985041 90.360387541 228.277810092 78.5811645426 c 0
 233.022998893 69.2120267306 236.122836347 59.5436001471 236.122836347 49.2189289387 c 0
 236.122836347 35.7269950674 230.535794928 24.0242946552 223.099093297 14.2576485012 c 0
 211.291871677 -1.68615441728 193.337646149 -12.7401772099 166.504867073 -12.7401809961 c 0
 146.127788078 -12.7401809961 128.517110478 -2.49997384459 111.496450835 15.9026806829 c 0
 97.8037730079 30.7071374362 82.8331646092 51.5921589009 62.8401986987 81.5816077667 c 0
 31.1887352127 130.027725347 11.8939111695 174.093473604 -6.54598591774 241.494476751 c 0
 -14.6947555417 270.69423457 -17.9238055781 313.73965548 -17.9238055781 358.324455409 c 0
 -17.9238055781 406.764684311 -13.9646055501 456.178630382 -5.36893226167 489.486864374 c 0
 16.1218726376 570.891428387 60.938360766 654.40045521 114.912491756 712.323912858 c 0
 130.794069609 729.493186213 151.29952521 739.373812253 172.397937831 739.373812253 c 0
827.720703125 738.75 m 0
 866.845496593 738.75 890.534493797 709.96467335 935.052652779 643.492353774 c 0
 990.612528583 559.265946306 1017.92445092 461.589379539 1017.92445092 363.713775637 c 0
 1017.92445092 245.7142558 978.216031344 127.530423611 899.965610361 32.2071835049 c 0
 891.742572938 22.4890483687 882.507794056 12.7873745074 874.070016981 4.94122787772 c 0
 867.260776329 -1.39057019093 861.489489191 -6.45587360997 854.592309425 -10.1697396382 c 0
 845.306057393 -15.1092353997 835.3453687 -17.4725174196 825.542315461 -17.4725174196 c 0
 790.721386046 -17.4725174196 760.220703125 11.7355856992 760.220703125 50 c 0
 760.220703125 60.6396488089 764.111055941 68.5492221601 768.693158732 77.2321478492 c 0
 774.488374462 88.2138804356 782.890450456 100.465419874 792.975363763 112.791425027 c 0
 849.15967157 180.212594395 885.220703125 278.451148382 885.220703125 362.5 c 0
 885.220703125 446.548851618 849.055607383 544.913318126 792.871299576 612.334487494 c 0
 773.633319979 635.804822603 760.849779948 655.776289576 760.849779948 678.390257732 c 0
 760.849779948 694.110348691 768.089834621 707.91600405 778.098818731 718.639915596 c 0
 791.232794862 732.71203288 809.243240578 738.75 827.720703125 738.75 c 0
296.659228235 600.928372836 m 0
 313.931228364 600.928372836 328.988800734 592.286760624 341.228161314 579.773692753 c 0
 351.980566455 569.285949411 361.451165257 555.996041692 361.451166474 538.526057585 c 0
 361.451166474 529.309852823 359.086613335 520.668627712 355.516149151 511.767004379 c 0
 351.033719109 500.591733661 344.43060065 488.549656973 335.465591281 473.410699148 c 0
 311.761077282 434.270687662 300.788946119 399.587102185 300.788946119 364.551155982 c 0
 300.788946119 324.234096827 315.464825158 281.116321013 347.818227032 228.703809976 c 0
 355.110701068 217.035851519 361.468182542 207.075536279 361.468182542 193.11804595 c 0
 361.468182542 183.693979099 358.701408822 176.016933011 355.53749496 168.502637588 c 0
 344.771226222 142.932749336 320.471202168 126.501190712 293.962762804 126.501190712 c 0
 269.103085146 126.501190712 253.779175836 139.082162873 240.845159753 153.453069857 c 0
 229.678675841 165.860082544 219.395708027 181.569223286 209.997242884 199.378655725 c 0
 188.901260568 239.354062993 172.173974979 290.214129901 168.411026068 336.498401504 c 0
 167.80362384 344.030189133 167.51021938 351.668935556 167.51021938 359.377371968 c 0
 167.51021938 436.858329294 196.334899264 523.090308738 243.23818235 573.162732572 c 0
 258.561686879 589.252412328 276.029870602 600.928372836 296.659228235 600.928372836 c 0
701.568220518 598.178672839 m 0
 719.142518505 598.178672839 735.193317999 590.439707633 748.947048888 578.342287571 c 0
 766.161862412 563.200590226 780.93423513 541.019578519 795.060491515 511.919490366 c 0
 818.552532597 464.065332606 830.119742856 412.238070202 830.119742856 360.86978083 c 0
 830.119742856 294.705569978 810.827988871 229.300252656 772.791705597 174.693707361 c 0
 752.321260013 145.848988583 730.608949164 124.617733093 701.878052589 124.617733093 c 0
 691.088004127 124.617733093 680.911622538 127.909023729 671.704101957 133.170181887 c 0
 650.749455355 144.714170797 636.877246137 164.31913863 636.877246072 187.601912056 c 0
 636.877246072 201.536511179 641.520827159 215.079932078 649.39649865 227.914359693 c 0
 671.035765613 263.292843776 682.376782629 285.512043119 688.25655892 306.091260137 c 0
 692.967830843 322.580711866 694.595703125 338.948099821 694.595703125 362.5 c 0
 694.595703125 386.048864147 692.962165693 402.583149693 688.298864651 419.048929147 c 0
 682.480546793 439.592989624 671.292093571 461.527936695 650.036597585 495.810994738 c 0
 641.858821759 509.137740528 636.965499804 523.082040104 636.965499804 537.398983104 c 0
 636.965499804 559.387011441 649.690527319 578.320801551 669.279034554 589.370728709 c 0
 679.298187297 594.936924677 690.226058843 598.178672839 701.568220518 598.178672839 c 0
498.970703125 489.375 m 0
 523.085170677 489.375 547.573773997 484.199498621 566.919501226 471.027939657 c 0
 600.784512817 448.451265264 625.220703125 416.593608896 625.220703125 364.375 c 0
 625.220703125 315.904947174 608.695579363 287.649275242 580.683174563 264.147912801 c 2
 568.970703125 253.997104221 l 1
 568.970703125 92.5 l 2
 568.970703125 40.2065178917 568.199398464 -9.71915465445 566.856403417 -46.0883269789 c 0
 566.25881341 -62.2714499203 565.554343946 -75.7408959389 564.717833398 -85.8206368697 c 0
 564.040960124 -93.976788935 563.760139887 -99.0300141729 561.898765664 -105.069710608 c 0
 552.669988637 -137.555752123 527.170370748 -157.8125 498.970703125 -157.8125 c 0
 470.771035792 -157.8125 445.271417541 -137.555751252 436.042640124 -105.069709048 c 0
 434.181267074 -99.0300130806 433.900446827 -93.9767880118 433.223572852 -85.8206368697 c 0
 432.387062304 -75.7408959389 431.68259284 -62.2714499203 431.085002833 -46.0883269789 c 0
 429.742007786 -9.71915465445 428.970703125 40.2065178917 428.970703125 92.5 c 2
 428.970703125 253.997104221 l 1
 417.258231687 264.147912801 l 2
 389.232349414 287.660582338 372.720703125 315.872823575 372.720703125 364.375 c 0
 372.720703125 416.461044691 397.079591563 448.398583508 430.85963145 470.918610099 c 0
 450.205358679 484.090169064 474.856235573 489.375 498.970703125 489.375 c 0
EndSplineSet
EndChar

StartChar: uniF031
Encoding: 61489 61489 39
Width: 1000
LayerCount: 2
Fore
SplineSet
341.680947172 768.077133226 m 0
 364.413946705 768.077133226 386.835228866 762.068858433 405.068513916 749.172144617 c 0
 418.135326652 738.905363182 431.882820111 720.729427853 441.550601347 702.88121634 c 0
 456.051523652 673.154325614 457.5 656.554429361 457.5 564.375 c 2
 457.5 472.789684376 l 1
 475.47659212 459.948803273 l 2
 491.365547484 448.421521931 497.960355714 446.40625 500 446.40625 c 0
 502.039644286 446.40625 508.75473354 448.508109034 524.643688903 460.035390376 c 2
 542.5 472.789898302 l 1
 542.5 564.375 l 2
 542.5 648.555041435 543.817937279 673.197214745 556.186604063 699.575390177 c 0
 575.592628625 742.79575834 613.517424194 768.647890299 657.783545718 768.647890786 c 0
 670.045760405 768.647890786 682.532788253 766.720515156 695.040465625 762.935420252 c 0
 705.51963385 759.910469486 715.349606072 754.173814512 725.842553574 746.875048592 c 0
 739.022865973 737.70698415 753.103288767 725.735657201 767.216888383 712.17833685 c 0
 798.954834 681.691323774 830.729099508 643.588673709 847.720136239 611.151239951 c 0
 875.752686037 557.755907002 895 482.437085911 895 425 c 0
 895 367.579984842 875.842987981 291.746433998 847.717055022 238.842893432 c 0
 837.599700131 219.58728251 818.820479068 195.359040751 797.226921041 170.754893387 c 0
 770.253072722 140.020331803 739.441758878 109.628120335 715.710224484 92.8993337948 c 2
 706.845327447 86.7856117 l 1
 710.077227335 28.9342937146 715.75086906 -53.3391974976 715.75086906 -107.906234939 c 0
 715.75086906 -117.980729709 715.556688392 -126.34098485 715.090972833 -132.998482475 c 0
 714.703830706 -138.532757071 714.618165558 -142.691668918 712.434591099 -148.393224451 c 0
 702.374955532 -174.660050654 677.057115781 -188.476705427 652.568114062 -188.476705427 c 0
 635.755955377 -188.476705427 618.359318574 -182.030144997 605.411413292 -168.05133353 c 0
 601.399927117 -163.828659547 596.986396173 -158.180954783 593.885440896 -151.147326267 c 0
 589.986523826 -142.303759208 588.048715126 -132.475180519 586.370240238 -118.495450484 c 0
 583.137530086 -91.5707609705 575.22423977 50.1416192925 575.22423977 80.9810985861 c 0
 575.22423977 109.632276348 579.345300357 124.555922297 586.683881819 141.164290869 c 0
 595.287900351 160.718878441 611.65377796 181.951454169 629.34066769 194.814646701 c 0
 652.176818068 211.778644124 677.520315871 235.682971301 697.556517533 258.252438623 c 0
 713.55257697 276.270950658 726.176714073 293.734289366 731.378979607 304.355581498 c 0
 751.385546904 345.480192053 761.049643565 387.109696828 761.049643565 427.184210266 c 0
 761.049643565 493.290059878 734.826372003 556.373444738 682.7356375 607.7356375 c 2
 678.084732204 612.386542796 l 1
 676.241423474 545.659218349 l 2
 673.181536333 440.399100699 672.289520619 425.999005947 653.895774889 399.174793424 c 0
 641.887982255 382.020803947 615.172764201 360.053172103 590.386470442 343.30567632 c 0
 568.792162573 329.025569504 555.310650493 320.46577535 539.542539826 315.665809941 c 0
 526.943769918 311.830622515 514.857477883 311.25 500 311.25 c 0
 485.019458328 311.25 472.852566524 311.670708703 459.900495588 315.632412708 c 0
 443.713239624 320.583676263 429.725576495 329.573105145 406.390951297 345.245614607 c 0
 376.504390799 365.261384482 355.34041724 379.376168881 342.236554076 404.260587709 c 0
 335.079664056 417.85162163 331.254756404 433.16160507 328.853075417 451.859581153 c 0
 324.229132768 487.858687414 323.250555033 564.572383706 321.907637536 612.917413588 c 1
 316.6393625 607.7356375 l 2
 264.827691397 555.923966397 238.627702854 492.826375816 238.627702854 426.873888598 c 0
 238.627702854 388.40460725 247.58884241 348.577844131 266.217368692 309.15468386 c 0
 279.936815037 280.13277813 326.681231043 227.499729226 370.495554525 194.935029341 c 0
 388.182444256 182.07183681 404.699599681 160.747227545 413.303618213 141.192639973 c 0
 420.642199675 124.584271401 424.77576023 109.632276348 424.77576023 80.9810985861 c 0
 424.77576023 50.1232090459 416.851066214 -91.6657404421 413.629759762 -118.495450484 c 0
 411.951284874 -132.475180519 410.013476174 -142.303759208 406.114559104 -151.147326267 c 0
 403.013601509 -158.180952772 398.600070485 -163.828657595 394.588586516 -168.051333735 c 0
 381.640678981 -182.030142932 364.244042279 -188.476703289 347.431885938 -188.476705427 c 0
 323.122214181 -188.476705427 296.895844762 -174.533682992 287.408885489 -147.970197028 c 0
 285.354351307 -142.217501316 285.291751772 -138.469607706 284.909027167 -132.998482475 c 0
 284.443311608 -126.34098485 284.24913094 -117.980729709 284.24913094 -107.906234939 c 0
 284.24913094 -53.5442845793 289.935492761 29.1623535415 293.154704328 86.7862405983 c 1
 284.120703053 93.017221229 l 2
 260.38916866 109.746007769 229.746927278 140.020331803 202.773078959 170.754893387 c 0
 181.179520932 195.359040751 162.44564791 219.501482321 152.328293019 238.757093242 c 0
 124.202360059 291.660633809 105 367.579984842 105 425 c 0
 105 482.420015158 124.259685849 558.446406469 152.385618808 611.349947036 c 0
 168.042681914 640.37279572 194.983067938 674.384856693 222.628394094 703.010987841 c 0
 244.76243116 725.930299565 266.92761896 745.340493259 286.7001591 755.400206663 c 0
 303.933680311 764.016967269 322.94965682 768.077133226 341.680947172 768.077133226 c 0
EndSplineSet
EndChar

StartChar: uniF032
Encoding: 61490 61490 40
Width: 1000
LayerCount: 2
Fore
SplineSet
73.7391088722 198.923695398 m 0
 73.7391088722 231.796623713 73.7607421875 264.366450406 73.7607421875 298.75 c 2
 73.7607421875 301.143435502 l 2
 73.7607421875 425.244857408 73.7644692566 508.170683186 74.9339493464 565.017043525 c 0
 76.2410555886 628.553167903 78.4939977329 659.559950105 85.7582745204 681.606891313 c 0
 91.8385573838 700.060433592 102.801027581 710.524899364 112.077177482 719.072393645 c 0
 122.361108744 728.565253272 137.930144941 739.113105327 150.31484621 745.327051755 c 0
 159.919791645 750.30307655 171.120927301 752.942505865 186.5870166 754.636814406 c 0
 206.141441384 756.778999545 233.562103546 757.5 276.885742188 757.5 c 0
 282.584061719 757.5 287.951636314 757.502368217 293.015743056 757.502368217 c 0
 335.612080568 757.502368217 356.737455754 757.33481206 372.625142981 754.18092874 c 0
 379.006878725 752.914082935 384.901452439 750.917337826 390.107623597 747.944456741 c 0
 396.588463719 744.24370115 400.944518704 739.846066728 404.663373119 736.126115529 c 0
 417.56257357 723.602927228 425.702704744 707.744027646 425.702706473 690.381713511 c 0
 425.702706473 675.434451143 419.734442104 661.415310591 410.031275496 649.420127022 c 0
 392.008084137 626.48320889 374.693418613 626.746167664 286.924574965 623.760831939 c 2
 210.635742188 621.267732828 l 1
 210.635742188 -21.2677364647 l 1
 286.951548015 -23.7617313991 l 2
 374.720393083 -26.7470662653 392.008197509 -26.4832117579 410.031275685 -49.4201275696 c 0
 419.737787834 -61.4196185908 425.702706473 -75.4611716768 425.702706473 -90.4442647595 c 0
 425.702706473 -107.885444493 417.587616203 -123.826850984 404.775104688 -136.6393625 c 0
 397.564042432 -143.850424755 390.352980177 -151.06148701 383.141917922 -158.272549266 c 1
 156.666750625 -154.252280024 l 1
 144.846188359 -144.916616644 132.960358491 -135.567480731 121.230301318 -126.153986493 c 0
 112.016925626 -118.760155611 102.461007822 -111.411734677 94.751031212 -99.3830037428 c 0
 88.6165286174 -89.8122508269 84.5357856588 -78.423996083 81.7320874503 -64.0669463075 c 0
 73.8911085433 -23.9152195213 73.7391088722 44.6171022662 73.7391088722 198.923695398 c 0
658.760742188 570 m 0
 673.402725963 570 685.601049177 562.588702079 701.420538035 549.718609449 c 0
 721.828088796 533.115856287 752.069211982 503.720255205 806.025104687 449.7643625 c 0
 863.438159565 392.351307623 892.360918252 363.043013208 908.22003695 342.959516166 c 0
 918.421134126 330.04116245 926.260742188 318.919189696 926.260742188 300 c 0
 926.260742188 281.141880007 918.392294525 269.922315972 908.22003695 257.040483834 c 0
 892.360918252 236.956986792 863.438159565 207.648692377 806.025104687 150.2356375 c 0
 752.069211982 96.2797447947 721.828088796 66.8841437126 701.420538035 50.2813905515 c 0
 685.601049177 37.4112979208 673.402725963 30 658.760742188 30 c 0
 619.940519462 30 588.329283454 59.0610580313 588.329283454 95.2051960627 c 0
 588.329283454 104.751121571 590.629808196 114.408853524 595.312787229 123.453646272 c 0
 599.494108402 131.741077366 606.121757557 138.846454062 616.659035441 150.792072965 c 0
 636.347428307 173.111882286 668.722624856 205.770378572 692.705005249 230 c 1
 567.510742188 230 l 2
 509.332459793 230 460.053811228 230.770033369 425.700452806 232.116031993 c 0
 410.409473901 232.715147699 398.108394828 233.419739195 388.962243073 234.270357177 c 0
 381.403765787 234.973316944 376.84141145 235.137559834 370.386295575 237.558228287 c 0
 342.22448266 248.310920491 323.752313892 272.511977746 323.752313892 299.833709057 c 0
 323.752313892 315.527229191 329.832097863 330.875039808 341.459875561 343.445610292 c 0
 344.688246114 346.996817901 350.747467223 353.058639266 359.32296864 356.469423917 c 0
 369.63288753 360.570048639 380.960503335 361.65903284 400.525314768 362.523124888 c 0
 427.847964082 363.729846665 472.221320444 363.75 549.947566574 363.75 c 2
 698.938257848 363.75 l 1
 673.347934184 389.591307168 638.957661886 424.56234596 617.635736167 448.426234159 c 0
 611.636123552 455.141110037 606.64256303 460.935021526 602.840353924 465.678075531 c 0
 599.723840028 469.565761163 597.571803102 472.060913682 595.298411139 476.574866701 c 0
 590.815820105 485.291751186 588.896971984 494.638309224 588.896971984 503.782048674 c 0
 588.896971984 524.235633683 598.205415573 544.434683808 615.452310285 557.03818379 c 0
 621.1785148 560.855653467 627.28149613 563.500114161 633.789135686 565.616419707 c 0
 641.721072292 568.195911287 650.047735564 570 658.760742188 570 c 0
EndSplineSet
EndChar

StartChar: uniF033
Encoding: 61491 61491 41
Width: 1000
LayerCount: 2
Fore
SplineSet
257.70559875 570.061027778 m 0
 269.920974672 570.061027778 282.006074873 570 294.71484375 570 c 2
 395.293507191 570 l 1
 458.314886673 631.874811106 l 2
 497.121797736 669.409364429 543.702024847 710.91263183 567.609913358 726.172460811 c 0
 623.272083086 762.815600468 697.872836787 793.383484534 763.746322486 807.079950228 c 0
 797.465342909 814.104746149 842.52281089 819.382110491 873.53142681 819.400754216 c 0
 903.813828935 819.400754216 927.874497143 815.872785688 949.220685252 804.818773576 c 0
 966.133224575 796.06070335 980.946107634 782.912869541 994.182665694 766.112622773 c 0
 1001.78841866 756.45916709 1008.03687163 747.340466058 1012.02336902 735.924587175 c 0
 1017.62673567 719.878582665 1019.44109094 693.385458697 1019.44109094 667.21615471 c 0
 1019.44109094 571.251865381 982.622235209 453.027574821 926.52862072 367.295634433 c 0
 911.281745134 343.395061513 869.65725304 296.687693135 832.109314258 257.866944633 c 2
 770.33984375 194.953595041 l 1
 770.33984375 94.375 l 2
 770.33984375 81.6546365325 770.400871528 69.5938975277 770.400871528 57.365755 c 0
 770.400871528 7.91917998272 770.004878758 -24.6189879996 753.486103093 -54.0618038345 c 0
 744.380811104 -70.2909385223 731.06477527 -83.7927596528 713.409995339 -97.4588280492 c 0
 689.616516726 -115.876690372 638.638423113 -146.779947169 597.793653726 -171.972523907 c 0
 575.038416196 -186.194547364 552.620057396 -198.771659929 535.249350729 -207.391912397 c 0
 527.499979227 -211.237555531 520.801928753 -214.293103009 515.039160258 -216.48031728 c 0
 510.353473933 -218.258733332 506.976430817 -220 499.71484375 -220 c 0
 499.584406448 -220 499.453969146 -220 499.323531844 -220 c 0
 448.636728846 -219.025253788 437.352137483 -181.053069461 393.016756289 -31.8705030106 c 2
 379.470148367 14.4137407226 l 1
 295.628545021 97.0577706251 l 2
 248.792025149 143.547353313 226.626152198 164.813068518 211.536760619 175.269943986 c 0
 199.665634898 183.496576763 191.691039658 186.230106712 172.726874712 192.086687063 c 0
 119.972428504 207.881431437 68.1169327762 223.282353445 39.9169300637 234.687022014 c 0
 7.03696805117 247.984363618 -19.4415564455 264.635761797 -19.4415564455 296.148804145 c 0
 -19.4415564455 309.423131838 -14.9577832631 321.495430168 -8.81933667041 334.192695103 c 0
 2.27684949939 357.144954025 26.1138404636 393.761903122 42.0957287974 419.76211794 c 0
 67.6477479477 461.331547851 85.7424714798 490.929385292 102.881015701 513.070151589 c 0
 116.547084097 530.72493152 130.048905228 544.040967354 146.278039915 553.146259343 c 0
 175.72085575 569.665035008 208.259023733 570.061027778 257.70559875 570.061027778 c 0
885.667930195 659.903993947 m 0
 885.667930195 668.287475465 885.037069464 675.800466985 884.569826786 683.743533759 c 1
 875.949317232 684.030884077 867.511640712 684.487580185 858.712281731 684.487580185 c 0
 785.862965067 684.487580185 682.304556122 647.124739642 613.806963541 594.168617647 c 0
 571.448702243 561.811612489 498.824515737 485.653265695 457.097568522 428.807859345 c 0
 428.609679707 390.145724525 357.567247985 282.167782165 336.66204904 246.832122431 c 1
 352.660480569 229.468985436 415.46860817 165.433814563 435.588762864 147.350883978 c 0
 441.534384447 142.007273852 445.823535773 138.76973622 448.161462635 137.22436124 c 0
 455.885784534 141.605644481 502.939837398 171.587367333 550.614079162 202.967880904 c 0
 683.699572257 291.485208869 775.186648526 376.477011306 820.112910379 450.368889353 c 0
 858.826205543 514.32998571 885.667930195 602.731707383 885.667930195 659.903993947 c 0
265.96484375 436.25 m 2
 211.267641075 436.25 l 1
 193.470914154 408.520216194 162.319836626 359.26341571 149.550412055 338.366823104 c 1
 179.302661719 329.133366311 l 2
 202.185569207 322.271017347 216.321785982 319.001150801 222.335060101 318.083382052 c 1
 240.397464412 343.958708703 280.539607199 406.28086929 298.615623107 435.515851366 c 1
 289.173258322 435.923336987 277.886051439 436.25 265.96484375 436.25 c 2
635.499114997 82.6313101037 m 0
 635.499114997 88.0594592236 635.426391739 93.2810864535 635.308729859 98.0906677929 c 1
 600.520698027 76.402082468 540.86519316 37.7767160267 518.928266537 22.3057033599 c 1
 520.712953896 13.1478801556 524.659700782 -3.99194099289 530.022547324 -20.795526835 c 2
 539.611664047 -50.590176712 l 1
 570.813704822 -30.8100314714 602.273709439 -11.2878500728 633.771480683 8.19656469922 c 1
 634.45702122 32.8760240331 635.499114997 57.5078976251 635.499114997 82.6313101037 c 0
687.150218927 569.134837993 m 0
 730.144362036 569.134837993 770.33984375 534.728075182 770.33984375 486.875 c 0
 770.33984375 467.112368816 762.005565097 449.135455506 749.902697707 435.140425132 c 0
 734.845219437 417.728859841 712.692523555 405 687.83984375 405 c 0
 636.993931447 405 606.660338233 448.438677542 606.660338233 489.163301259 c 0
 606.660338233 515.672506015 619.422789224 543.241640625 647.455994685 558.708236742 c 0
 660.139984926 565.818958543 673.786078519 569.134837993 687.150218927 569.134837993 c 0
155.380091991 68.6565377879 m 0
 159.874082569 68.6565377879 164.510175019 68.4579815502 169.329304185 68.0707451774 c 0
 185.439175385 66.9916238301 198.462287401 65.237821903 211.069358658 58.6361879447 c 0
 220.981328056 53.4458315552 228.889825396 46.2561688094 237.605939437 37.2662402705 c 0
 246.5942394 28.5513891437 253.807599332 20.6016640252 259.033566397 10.6146843982 c 0
 265.68574327 -2.09781672476 267.590816632 -15.2754186024 269.02013622 -32.0699237619 c 0
 269.636341891 -39.4643918181 270.030288253 -45.8839060868 270.030288253 -51.9666419858 c 0
 270.030288253 -75.2615002373 262.705713059 -89.0665162744 252.669094347 -104.121444342 c 0
 240.45942721 -122.620940004 219.809567162 -138.061146056 194.837819646 -151.910409332 c 0
 163.513231822 -169.282940571 124.334791723 -183.942902034 83.8788934956 -192.690123272 c 0
 64.3606559114 -196.830355487 50.4174173597 -199.784032532 37.624795055 -199.784032532 c 0
 28.4449206747 -199.784032532 15.8875679885 -197.916949233 7.51519569741 -186.997290346 c 0
 1.23731400995 -178.809368909 0.378251832055 -169.945053722 0.378251832055 -162.569126548 c 0
 0.378251832055 -152.033720079 2.42514915522 -140.910720283 5.09180897805 -126.744089974 c 0
 14.4932982568 -79.0134520973 30.213049583 -35.4591375562 49.5382810501 -1.86388925558 c 0
 64.8905187473 24.8246520062 82.6598617392 46.3351361076 104.54000285 57.275206663 c 0
 119.368309051 64.6893597637 135.971006785 68.6565377879 155.380091991 68.6565377879 c 0
EndSplineSet
EndChar

StartChar: uniF034
Encoding: 61492 61492 42
Width: 1000
LayerCount: 2
Fore
SplineSet
175.971293521 694.035139942 m 0
 189.190068348 694.035139942 208.740608793 690.863914852 244.396465258 685.40151754 c 0
 483.296099306 649.438131769 698.679852311 495.002695677 808.582710597 280.981340069 c 0
 859.735006885 181.234362307 890.01438139 75.4312207328 892.634984377 -12.3589793287 c 0
 892.846255101 -17.9576535066 892.976432183 -22.911853509 892.976432183 -27.4465399266 c 0
 892.976432183 -39.92038638 892.257832346 -50.3608388509 887.150633697 -60.4880492487 c 0
 883.058311259 -68.6028325558 876.94590026 -74.2434265417 871.379160315 -78.7498350686 c 0
 859.426949044 -88.3116040852 845.437847424 -94.2980708738 830.370243242 -94.2980708738 c 0
 815.05878093 -94.2980708738 800.769097566 -88.1387541879 788.393726162 -78.2046237461 c 0
 767.962750564 -62.3281951456 763.847517893 -42.7401129366 757.813610466 4.9277433799 c 0
 720.249847059 296.955710515 483.923466554 527.314842316 188.670867706 558.234518992 c 0
 170.841726783 560.025883275 157.878908615 562.471292167 146.466866657 567.656328622 c 0
 124.853119877 577.476487485 108.016728485 603.472397798 108.016728485 629.977140856 c 0
 108.016728485 654.147353112 122.079239402 677.564730355 146.843542706 687.471882703 c 0
 154.765868955 690.641501543 163.957820554 694.035139942 175.971293521 694.035139942 c 0
107.024414062 311.875 m 0
 107.024414062 325.024133162 112.644686046 335.836246368 119.134968227 345.396602817 c 0
 127.211218244 357.293131625 138.278435467 368.95348039 153.211228173 374.387374881 c 0
 161.107059835 377.362446995 169.187222602 378.152871624 177.798023635 378.152872171 c 0
 218.529620736 378.152872171 281.697960705 358.019069803 339.249797719 328.436349842 c 0
 419.231553291 287.45396269 494.18723743 210.533077334 534.367912726 127.536928361 c 0
 561.582657242 72.040194446 579.494293426 12.6572692705 579.494293426 -25.7989058023 c 0
 579.494293426 -34.302248504 578.748983017 -42.2497822024 575.784396868 -50.0706406348 c 0
 565.854079381 -77.5233116255 541.656052249 -94.5482909745 515.579517623 -94.5482909745 c 0
 499.102792327 -94.5482909745 482.224463055 -87.6141275623 469.827020417 -74.1835647051 c 0
 464.029557665 -67.9029800565 459.974386551 -60.5861027882 456.192280938 -52.3258231887 c 0
 451.501851319 -42.0817253096 447.601150961 -30.4180210576 445.491982301 -18.7054291931 c 0
 418.270600012 120.042373554 313.257617419 222.186148674 172.56397152 245.881370937 c 0
 153.434788539 248.866214974 136.659924444 259.517518419 124.631547166 272.548259712 c 0
 115.111614601 282.861519991 107.024414062 295.975793282 107.024414062 311.875 c 0
188.834789239 69.1348379927 m 0
 231.828932348 69.1348379927 272.024414062 34.7280751816 272.024414062 -13.125 c 0
 272.024414062 -32.8876311836 263.690135409 -50.8645444936 251.58726802 -64.8595748684 c 0
 236.52978975 -82.2711401591 214.377093867 -95 189.524414062 -95 c 0
 138.678501759 -95 108.344908546 -51.5613224576 108.344908546 -10.8366987405 c 0
 108.344908546 15.6725060153 121.107359537 43.2416406249 149.140564998 58.7082367416 c 0
 161.824555238 65.818958543 175.470648831 69.1348379927 188.834789239 69.1348379927 c 0
EndSplineSet
EndChar

StartChar: uniF035
Encoding: 61493 61493 43
Width: 1000
LayerCount: 2
Fore
SplineSet
292.488083934 567.479952456 m 0
 292.488083934 576.297947351 292.5 586.047390196 292.5 596.875 c 0
 292.5 607.702609804 292.488083934 617.452052649 292.488083934 626.270047544 c 0
 292.488083934 666.489140882 292.735973231 687.331371713 295.493010288 702.717844121 c 0
 296.700227419 709.455081483 298.628198368 715.623341809 301.718102927 721.131327119 c 0
 305.513115942 727.896220839 310.165665685 732.355478688 313.984126094 736.01884516 c 0
 320.858095643 743.179230107 327.732065192 750.339615053 334.60603474 757.5 c 1
 665.39396526 757.5 l 1
 672.267934808 750.339615053 679.141904357 743.179230107 686.015873906 736.01884516 c 0
 689.834334315 732.355478688 694.486884058 727.896220839 698.281897073 721.131327119 c 0
 701.371801632 715.623341809 703.299772581 709.455081483 704.506989712 702.717844121 c 0
 707.264026769 687.331371713 707.511916066 666.489140882 707.511916066 626.270047544 c 0
 707.511916066 617.452052649 707.5 607.702609804 707.5 596.875 c 0
 707.5 586.047390196 707.511916066 576.297947351 707.511916066 567.479952456 c 0
 707.511916066 527.260859118 707.264026769 506.418628287 704.506989712 491.032155879 c 0
 703.299772581 484.294918517 701.371801632 478.126658191 698.281897073 472.618672881 c 0
 694.486884058 465.853779161 689.834334315 461.394521312 686.015873906 457.73115484 c 0
 679.141904357 450.570769893 672.267934808 443.410384947 665.39396526 436.25 c 1
 334.60603474 436.25 l 1
 327.732065192 443.410384947 320.858095643 450.570769893 313.984126094 457.73115484 c 0
 310.165665685 461.394521312 305.513115942 465.853779161 301.718102927 472.618672881 c 0
 298.628198368 478.126658191 296.700227419 484.294918517 295.493010288 491.032155879 c 0
 292.735973231 506.418628287 292.488083934 527.260859118 292.488083934 567.479952456 c 0
573.75 570 m 1
 573.75 587.916666667 573.75 605.833333333 573.75 623.75 c 1
 524.583333333 623.75 475.416666667 623.75 426.25 623.75 c 1
 426.25 605.833333333 426.25 587.916666667 426.25 570 c 1
 475.416666667 570 524.583333333 570 573.75 570 c 1
500 -157.5 m 0
 477.607178457 -157.5 456.062090091 -157.509798229 434.410064412 -157.509798229 c 0
 432.780038577 -157.509798229 431.160631504 -157.509804975 429.551757313 -157.509804975 c 0
 293.882664432 -157.509804975 233.110650756 -157.461836484 195.740023864 -149.275967212 c 0
 182.201487875 -146.31041124 171.180556245 -141.910804235 161.925176245 -135.584026709 c 0
 148.600378677 -126.475483374 140.369467539 -115.281538475 131.169424783 -103.628150984 c 0
 123.487949855 -93.8982827427 115.806474928 -84.168414501 108.125 -74.4385462594 c 1
 108.125 609.624969869 l 1
 114.342854758 618.174520161 120.560709515 626.724070453 126.778564273 635.273620745 c 0
 136.949643268 650.053558937 152.726564601 665.442365911 167.154976788 673.992935816 c 0
 173.873959935 678.170638922 179.100501418 681.469489701 185.112776016 684.131887024 c 0
 189.929489453 686.26485753 195.688179978 687.991105288 202.033259763 687.991105288 c 0
 215.001951679 687.991105288 223.357121965 682.540513272 233.513070363 677.168217757 c 0
 254.910383484 666.394073287 269.860683936 647.468654349 269.860683936 624.207585449 c 0
 269.860683936 606.827210928 262.111110675 590.602251528 249.745339362 575.958574973 c 2
 238.779618535 562.799709981 l 1
 239.472684954 368.02693446 240.435729808 173.524137374 241.752434373 -20.625 c 1
 758.247568438 -20.625 l 1
 759.559926779 173.528652205 760.531690707 368.022898824 761.220382513 562.800217564 c 1
 750.389164732 575.798861782 l 2
 737.980399749 590.379160637 730.375920521 606.794251416 730.375920521 624.040735762 c 0
 730.375920521 649.790293289 748.079455581 670.148446131 772.901798858 680.327836855 c 0
 780.488949963 683.577973936 788.614027824 685.3110716 796.890992 685.311071782 c 0
 825.142016425 685.311071782 849.465193071 666.537611832 870.257998683 639.025895127 c 0
 877.463665789 629.761465991 884.669332894 620.497036855 891.875 611.23260772 c 1
 891.875 -74.4385462594 l 1
 882.9339679 -85.7600871128 874.047299835 -97.1795256068 864.974765316 -108.373237611 c 0
 857.059689552 -118.13887459 849.667281257 -127.659673565 838.074823755 -135.584026709 c 0
 828.819443755 -141.910804235 817.798512125 -146.31041124 804.259976136 -149.275967212 c 0
 766.889349244 -157.461836484 706.117335568 -157.509804975 570.448242687 -157.509804975 c 0
 568.839368496 -157.509804975 567.219961423 -157.509798229 565.589935588 -157.509798229 c 0
 543.957917998 -157.509798229 522.374754644 -157.5 500 -157.5 c 0
EndSplineSet
EndChar

StartChar: uniF036
Encoding: 61494 61494 44
Width: 1000
LayerCount: 2
Fore
SplineSet
73.7352026222 198.923695398 m 0
 73.7352026222 231.796623713 73.7568359375 264.366450406 73.7568359375 298.75 c 2
 73.7568359375 301.143435502 l 2
 73.7568359375 425.244857408 73.7605630066 508.170683186 74.9300430964 565.017043525 c 0
 76.2371493386 628.553167903 78.4900914829 659.559950105 85.7543682704 681.606891313 c 0
 91.8346511338 700.060433592 102.797121331 710.524899364 112.073271232 719.072393645 c 0
 122.357202494 728.565253272 137.926238691 739.113105327 150.31093996 745.327051755 c 0
 159.915885395 750.30307655 171.117021051 752.942505865 186.58311035 754.636814406 c 0
 206.137535134 756.778999545 233.558197296 757.5 276.881835938 757.5 c 0
 282.580155469 757.5 287.947730064 757.502368217 293.011836806 757.502368217 c 0
 335.608174318 757.502368217 356.733549504 757.33481206 372.621236731 754.18092874 c 0
 379.002972475 752.914082935 384.897546189 750.917337826 390.103717347 747.944456741 c 0
 396.584557469 744.24370115 400.940612454 739.846066728 404.659466869 736.126115529 c 0
 417.55866732 723.602927228 425.698798494 707.744027646 425.698800223 690.381713511 c 0
 425.698800223 675.434451143 419.730535854 661.415310591 410.027369246 649.420127022 c 0
 392.004177887 626.48320889 374.689512363 626.746167664 286.920668715 623.760831939 c 2
 210.631835938 621.267732828 l 1
 210.631835938 -21.2677364647 l 1
 286.947641765 -23.7617313991 l 2
 374.716486833 -26.7470662653 392.004291259 -26.4832117579 410.027369435 -49.4201275696 c 0
 419.733881584 -61.4196185908 425.698800223 -75.4611716768 425.698800223 -90.4442647595 c 0
 425.698800223 -107.885444493 417.583709953 -123.826850984 404.771198438 -136.6393625 c 0
 397.560136182 -143.850424755 390.349073927 -151.06148701 383.138011672 -158.272549266 c 1
 156.662844375 -154.252280024 l 1
 144.842282109 -144.916616644 132.956452241 -135.567480731 121.226395068 -126.153986493 c 0
 112.013019376 -118.760155611 102.457101572 -111.411734677 94.747124962 -99.3830037428 c 0
 88.6126223674 -89.8122508269 84.5318794088 -78.423996083 81.7281812003 -64.0669463075 c 0
 73.8872022933 -23.9152195213 73.7352026222 44.6171022662 73.7352026222 198.923695398 c 0
590.631835938 570 m 0
 629.586237891 570 661.682477578 541.553410547 661.682477578 505.004170712 c 0
 661.682477578 495.393938503 659.440096512 485.829944767 654.782042601 476.7001591 c 0
 652.485351443 472.106776785 650.322454068 469.601582811 647.177224201 465.678075531 c 0
 643.375015095 460.935021526 638.381454573 455.141110037 632.381841958 448.426234159 c 0
 611.097677253 424.604608776 576.621058554 389.542018299 551.079448199 363.75 c 1
 700.070011551 363.75 l 2
 777.796257681 363.75 822.169614043 363.729846665 849.492263357 362.523124888 c 0
 869.05707479 361.65903284 880.384690595 360.570048639 890.694609485 356.469423917 c 0
 899.270110902 353.058639266 905.211676753 347.125120466 908.440047306 343.573912858 c 0
 920.067825004 331.003342374 926.265264233 315.527229191 926.265264233 299.833709057 c 0
 926.265264233 272.511977746 907.682347045 248.269012698 879.520534131 237.516320494 c 0
 873.065418255 235.095652041 868.613812338 234.973316944 861.055335052 234.270357177 c 0
 851.909183297 233.419739195 839.608104224 232.715147699 824.317125319 232.116031993 c 0
 789.963766897 230.770033369 740.685118332 230 682.506835938 230 c 2
 557.659861748 230 l 1
 584.278726726 203.380589844 l 2
 602.933852342 184.373480726 620.549737753 165.438005919 633.390378064 150.810765208 c 0
 643.91255358 138.824572126 650.524318069 131.739507016 654.70479105 123.453646478 c 0
 659.387770267 114.408853777 661.688294671 104.751121787 661.688294671 95.2051960627 c 0
 661.688294671 59.0610580313 630.077058663 30 591.256835938 30 c 0
 576.614852162 30 564.416528948 37.4112979208 548.59704009 50.2813905515 c 0
 528.189489329 66.8841437126 497.948366143 96.2797447947 443.992473437 150.2356375 c 0
 386.57941856 207.648692377 357.656659873 236.956986792 341.797541175 257.040483834 c 0
 331.596443999 269.95883755 323.756835938 281.080810304 323.756835938 300 c 0
 323.756835938 313.375741537 329.235750473 326.738419771 341.776239164 342.675290815 c 0
 357.6153509 362.804161979 386.521032455 392.292776088 443.947026344 449.718769977 c 0
 498.25424254 504.374109353 528.253620753 533.689766756 548.429677825 550.123005628 c 0
 564.095849833 562.882978793 576.308882028 570 590.631835938 570 c 0
EndSplineSet
EndChar

